G75*
%MOIN*%
%OFA0B0*%
%FSLAX25Y25*%
%IPPOS*%
%LPD*%
%AMOC8*
5,1,8,0,0,1.08239X$1,22.5*
%
%ADD10C,0.13398*%
%ADD11C,0.08674*%
%ADD12C,0.11725*%
%ADD13R,0.16391X0.16391*%
%ADD14C,0.06800*%
%ADD15C,0.09658*%
%ADD16C,0.04769*%
%ADD17C,0.06343*%
%ADD18R,0.03753X0.05721*%
%ADD19R,0.04737X0.05524*%
%ADD20OC8,0.04000*%
%ADD21OC8,0.05600*%
%ADD22OC8,0.04762*%
%ADD23OC8,0.04800*%
%ADD24R,0.04762X0.04762*%
D10*
X0019300Y0112146D03*
X0014241Y0231539D03*
X0014241Y0261539D03*
X0019300Y0352646D03*
X0269800Y0356146D03*
D11*
X0262800Y0103646D03*
D12*
X0064800Y0302642D03*
X0064800Y0354650D03*
D13*
X0064800Y0328646D03*
D14*
X0043300Y0176646D03*
X0226800Y0240646D03*
D15*
X0216800Y0250646D03*
X0216800Y0230646D03*
X0236800Y0230646D03*
X0236800Y0250646D03*
X0053300Y0186646D03*
X0053300Y0166646D03*
X0033300Y0166646D03*
X0033300Y0186646D03*
D16*
X0104481Y0308988D03*
X0112355Y0308988D03*
X0112355Y0330988D03*
X0104481Y0330988D03*
D17*
X0049241Y0249020D03*
X0049241Y0239020D03*
X0039241Y0244020D03*
X0039241Y0254059D03*
X0200351Y0209000D03*
X0200351Y0191283D03*
X0225942Y0191283D03*
X0225942Y0209000D03*
X0245351Y0209000D03*
X0245351Y0191283D03*
X0252946Y0175787D03*
X0270662Y0175787D03*
X0270942Y0191283D03*
X0270942Y0209000D03*
X0270662Y0150197D03*
X0271154Y0139594D03*
X0253438Y0139594D03*
X0252946Y0150197D03*
X0253438Y0114004D03*
X0271154Y0114004D03*
D18*
X0163095Y0150469D03*
X0158095Y0150469D03*
X0153095Y0150469D03*
X0148095Y0150469D03*
X0143095Y0150469D03*
X0138095Y0150469D03*
D19*
X0123450Y0107909D03*
X0179749Y0107870D03*
D20*
X0188300Y0124146D03*
X0214300Y0124146D03*
X0163300Y0142646D03*
X0156800Y0140646D03*
X0142800Y0143146D03*
X0125300Y0134646D03*
X0111300Y0130146D03*
X0119800Y0154146D03*
X0119300Y0160146D03*
X0112300Y0158646D03*
X0073800Y0212646D03*
X0063300Y0214646D03*
X0055300Y0216146D03*
X0060300Y0223646D03*
X0069800Y0223646D03*
X0068800Y0246646D03*
X0061300Y0246646D03*
X0069300Y0267646D03*
D21*
X0065300Y0293646D03*
X0121300Y0263146D03*
X0125300Y0252146D03*
X0137800Y0255146D03*
X0177800Y0268146D03*
X0187800Y0183146D03*
X0162300Y0159146D03*
X0178800Y0147646D03*
X0198300Y0147646D03*
X0247800Y0114146D03*
D22*
X0227300Y0279646D03*
X0104800Y0294146D03*
X0103800Y0342646D03*
D23*
X0150300Y0338646D03*
X0150300Y0311646D03*
X0192800Y0209146D03*
X0235800Y0202646D03*
X0222800Y0149146D03*
X0231300Y0133646D03*
X0259300Y0146146D03*
D24*
X0270800Y0161146D03*
M02*
