G75*
%MOIN*%
%OFA0B0*%
%FSLAX25Y25*%
%IPPOS*%
%LPD*%
%AMOC8*
5,1,8,0,0,1.08239X$1,22.5*
%
%ADD10C,0.00000*%
%ADD11C,0.00591*%
%ADD12R,0.08701X0.01481*%
%ADD13R,0.01481X0.08701*%
%ADD14C,0.00500*%
%ADD15C,0.00400*%
D10*
X0013001Y0112146D02*
X0013003Y0112304D01*
X0013009Y0112462D01*
X0013019Y0112620D01*
X0013033Y0112778D01*
X0013051Y0112935D01*
X0013072Y0113092D01*
X0013098Y0113248D01*
X0013128Y0113404D01*
X0013161Y0113559D01*
X0013199Y0113712D01*
X0013240Y0113865D01*
X0013285Y0114017D01*
X0013334Y0114168D01*
X0013387Y0114317D01*
X0013443Y0114465D01*
X0013503Y0114611D01*
X0013567Y0114756D01*
X0013635Y0114899D01*
X0013706Y0115041D01*
X0013780Y0115181D01*
X0013858Y0115318D01*
X0013940Y0115454D01*
X0014024Y0115588D01*
X0014113Y0115719D01*
X0014204Y0115848D01*
X0014299Y0115975D01*
X0014396Y0116100D01*
X0014497Y0116222D01*
X0014601Y0116341D01*
X0014708Y0116458D01*
X0014818Y0116572D01*
X0014931Y0116683D01*
X0015046Y0116792D01*
X0015164Y0116897D01*
X0015285Y0116999D01*
X0015408Y0117099D01*
X0015534Y0117195D01*
X0015662Y0117288D01*
X0015792Y0117378D01*
X0015925Y0117464D01*
X0016060Y0117548D01*
X0016196Y0117627D01*
X0016335Y0117704D01*
X0016476Y0117776D01*
X0016618Y0117846D01*
X0016762Y0117911D01*
X0016908Y0117973D01*
X0017055Y0118031D01*
X0017204Y0118086D01*
X0017354Y0118137D01*
X0017505Y0118184D01*
X0017657Y0118227D01*
X0017810Y0118266D01*
X0017965Y0118302D01*
X0018120Y0118333D01*
X0018276Y0118361D01*
X0018432Y0118385D01*
X0018589Y0118405D01*
X0018747Y0118421D01*
X0018904Y0118433D01*
X0019063Y0118441D01*
X0019221Y0118445D01*
X0019379Y0118445D01*
X0019537Y0118441D01*
X0019696Y0118433D01*
X0019853Y0118421D01*
X0020011Y0118405D01*
X0020168Y0118385D01*
X0020324Y0118361D01*
X0020480Y0118333D01*
X0020635Y0118302D01*
X0020790Y0118266D01*
X0020943Y0118227D01*
X0021095Y0118184D01*
X0021246Y0118137D01*
X0021396Y0118086D01*
X0021545Y0118031D01*
X0021692Y0117973D01*
X0021838Y0117911D01*
X0021982Y0117846D01*
X0022124Y0117776D01*
X0022265Y0117704D01*
X0022404Y0117627D01*
X0022540Y0117548D01*
X0022675Y0117464D01*
X0022808Y0117378D01*
X0022938Y0117288D01*
X0023066Y0117195D01*
X0023192Y0117099D01*
X0023315Y0116999D01*
X0023436Y0116897D01*
X0023554Y0116792D01*
X0023669Y0116683D01*
X0023782Y0116572D01*
X0023892Y0116458D01*
X0023999Y0116341D01*
X0024103Y0116222D01*
X0024204Y0116100D01*
X0024301Y0115975D01*
X0024396Y0115848D01*
X0024487Y0115719D01*
X0024576Y0115588D01*
X0024660Y0115454D01*
X0024742Y0115318D01*
X0024820Y0115181D01*
X0024894Y0115041D01*
X0024965Y0114899D01*
X0025033Y0114756D01*
X0025097Y0114611D01*
X0025157Y0114465D01*
X0025213Y0114317D01*
X0025266Y0114168D01*
X0025315Y0114017D01*
X0025360Y0113865D01*
X0025401Y0113712D01*
X0025439Y0113559D01*
X0025472Y0113404D01*
X0025502Y0113248D01*
X0025528Y0113092D01*
X0025549Y0112935D01*
X0025567Y0112778D01*
X0025581Y0112620D01*
X0025591Y0112462D01*
X0025597Y0112304D01*
X0025599Y0112146D01*
X0025597Y0111988D01*
X0025591Y0111830D01*
X0025581Y0111672D01*
X0025567Y0111514D01*
X0025549Y0111357D01*
X0025528Y0111200D01*
X0025502Y0111044D01*
X0025472Y0110888D01*
X0025439Y0110733D01*
X0025401Y0110580D01*
X0025360Y0110427D01*
X0025315Y0110275D01*
X0025266Y0110124D01*
X0025213Y0109975D01*
X0025157Y0109827D01*
X0025097Y0109681D01*
X0025033Y0109536D01*
X0024965Y0109393D01*
X0024894Y0109251D01*
X0024820Y0109111D01*
X0024742Y0108974D01*
X0024660Y0108838D01*
X0024576Y0108704D01*
X0024487Y0108573D01*
X0024396Y0108444D01*
X0024301Y0108317D01*
X0024204Y0108192D01*
X0024103Y0108070D01*
X0023999Y0107951D01*
X0023892Y0107834D01*
X0023782Y0107720D01*
X0023669Y0107609D01*
X0023554Y0107500D01*
X0023436Y0107395D01*
X0023315Y0107293D01*
X0023192Y0107193D01*
X0023066Y0107097D01*
X0022938Y0107004D01*
X0022808Y0106914D01*
X0022675Y0106828D01*
X0022540Y0106744D01*
X0022404Y0106665D01*
X0022265Y0106588D01*
X0022124Y0106516D01*
X0021982Y0106446D01*
X0021838Y0106381D01*
X0021692Y0106319D01*
X0021545Y0106261D01*
X0021396Y0106206D01*
X0021246Y0106155D01*
X0021095Y0106108D01*
X0020943Y0106065D01*
X0020790Y0106026D01*
X0020635Y0105990D01*
X0020480Y0105959D01*
X0020324Y0105931D01*
X0020168Y0105907D01*
X0020011Y0105887D01*
X0019853Y0105871D01*
X0019696Y0105859D01*
X0019537Y0105851D01*
X0019379Y0105847D01*
X0019221Y0105847D01*
X0019063Y0105851D01*
X0018904Y0105859D01*
X0018747Y0105871D01*
X0018589Y0105887D01*
X0018432Y0105907D01*
X0018276Y0105931D01*
X0018120Y0105959D01*
X0017965Y0105990D01*
X0017810Y0106026D01*
X0017657Y0106065D01*
X0017505Y0106108D01*
X0017354Y0106155D01*
X0017204Y0106206D01*
X0017055Y0106261D01*
X0016908Y0106319D01*
X0016762Y0106381D01*
X0016618Y0106446D01*
X0016476Y0106516D01*
X0016335Y0106588D01*
X0016196Y0106665D01*
X0016060Y0106744D01*
X0015925Y0106828D01*
X0015792Y0106914D01*
X0015662Y0107004D01*
X0015534Y0107097D01*
X0015408Y0107193D01*
X0015285Y0107293D01*
X0015164Y0107395D01*
X0015046Y0107500D01*
X0014931Y0107609D01*
X0014818Y0107720D01*
X0014708Y0107834D01*
X0014601Y0107951D01*
X0014497Y0108070D01*
X0014396Y0108192D01*
X0014299Y0108317D01*
X0014204Y0108444D01*
X0014113Y0108573D01*
X0014024Y0108704D01*
X0013940Y0108838D01*
X0013858Y0108974D01*
X0013780Y0109111D01*
X0013706Y0109251D01*
X0013635Y0109393D01*
X0013567Y0109536D01*
X0013503Y0109681D01*
X0013443Y0109827D01*
X0013387Y0109975D01*
X0013334Y0110124D01*
X0013285Y0110275D01*
X0013240Y0110427D01*
X0013199Y0110580D01*
X0013161Y0110733D01*
X0013128Y0110888D01*
X0013098Y0111044D01*
X0013072Y0111200D01*
X0013051Y0111357D01*
X0013033Y0111514D01*
X0013019Y0111672D01*
X0013009Y0111830D01*
X0013003Y0111988D01*
X0013001Y0112146D01*
X0007942Y0231539D02*
X0007944Y0231697D01*
X0007950Y0231855D01*
X0007960Y0232013D01*
X0007974Y0232171D01*
X0007992Y0232328D01*
X0008013Y0232485D01*
X0008039Y0232641D01*
X0008069Y0232797D01*
X0008102Y0232952D01*
X0008140Y0233105D01*
X0008181Y0233258D01*
X0008226Y0233410D01*
X0008275Y0233561D01*
X0008328Y0233710D01*
X0008384Y0233858D01*
X0008444Y0234004D01*
X0008508Y0234149D01*
X0008576Y0234292D01*
X0008647Y0234434D01*
X0008721Y0234574D01*
X0008799Y0234711D01*
X0008881Y0234847D01*
X0008965Y0234981D01*
X0009054Y0235112D01*
X0009145Y0235241D01*
X0009240Y0235368D01*
X0009337Y0235493D01*
X0009438Y0235615D01*
X0009542Y0235734D01*
X0009649Y0235851D01*
X0009759Y0235965D01*
X0009872Y0236076D01*
X0009987Y0236185D01*
X0010105Y0236290D01*
X0010226Y0236392D01*
X0010349Y0236492D01*
X0010475Y0236588D01*
X0010603Y0236681D01*
X0010733Y0236771D01*
X0010866Y0236857D01*
X0011001Y0236941D01*
X0011137Y0237020D01*
X0011276Y0237097D01*
X0011417Y0237169D01*
X0011559Y0237239D01*
X0011703Y0237304D01*
X0011849Y0237366D01*
X0011996Y0237424D01*
X0012145Y0237479D01*
X0012295Y0237530D01*
X0012446Y0237577D01*
X0012598Y0237620D01*
X0012751Y0237659D01*
X0012906Y0237695D01*
X0013061Y0237726D01*
X0013217Y0237754D01*
X0013373Y0237778D01*
X0013530Y0237798D01*
X0013688Y0237814D01*
X0013845Y0237826D01*
X0014004Y0237834D01*
X0014162Y0237838D01*
X0014320Y0237838D01*
X0014478Y0237834D01*
X0014637Y0237826D01*
X0014794Y0237814D01*
X0014952Y0237798D01*
X0015109Y0237778D01*
X0015265Y0237754D01*
X0015421Y0237726D01*
X0015576Y0237695D01*
X0015731Y0237659D01*
X0015884Y0237620D01*
X0016036Y0237577D01*
X0016187Y0237530D01*
X0016337Y0237479D01*
X0016486Y0237424D01*
X0016633Y0237366D01*
X0016779Y0237304D01*
X0016923Y0237239D01*
X0017065Y0237169D01*
X0017206Y0237097D01*
X0017345Y0237020D01*
X0017481Y0236941D01*
X0017616Y0236857D01*
X0017749Y0236771D01*
X0017879Y0236681D01*
X0018007Y0236588D01*
X0018133Y0236492D01*
X0018256Y0236392D01*
X0018377Y0236290D01*
X0018495Y0236185D01*
X0018610Y0236076D01*
X0018723Y0235965D01*
X0018833Y0235851D01*
X0018940Y0235734D01*
X0019044Y0235615D01*
X0019145Y0235493D01*
X0019242Y0235368D01*
X0019337Y0235241D01*
X0019428Y0235112D01*
X0019517Y0234981D01*
X0019601Y0234847D01*
X0019683Y0234711D01*
X0019761Y0234574D01*
X0019835Y0234434D01*
X0019906Y0234292D01*
X0019974Y0234149D01*
X0020038Y0234004D01*
X0020098Y0233858D01*
X0020154Y0233710D01*
X0020207Y0233561D01*
X0020256Y0233410D01*
X0020301Y0233258D01*
X0020342Y0233105D01*
X0020380Y0232952D01*
X0020413Y0232797D01*
X0020443Y0232641D01*
X0020469Y0232485D01*
X0020490Y0232328D01*
X0020508Y0232171D01*
X0020522Y0232013D01*
X0020532Y0231855D01*
X0020538Y0231697D01*
X0020540Y0231539D01*
X0020538Y0231381D01*
X0020532Y0231223D01*
X0020522Y0231065D01*
X0020508Y0230907D01*
X0020490Y0230750D01*
X0020469Y0230593D01*
X0020443Y0230437D01*
X0020413Y0230281D01*
X0020380Y0230126D01*
X0020342Y0229973D01*
X0020301Y0229820D01*
X0020256Y0229668D01*
X0020207Y0229517D01*
X0020154Y0229368D01*
X0020098Y0229220D01*
X0020038Y0229074D01*
X0019974Y0228929D01*
X0019906Y0228786D01*
X0019835Y0228644D01*
X0019761Y0228504D01*
X0019683Y0228367D01*
X0019601Y0228231D01*
X0019517Y0228097D01*
X0019428Y0227966D01*
X0019337Y0227837D01*
X0019242Y0227710D01*
X0019145Y0227585D01*
X0019044Y0227463D01*
X0018940Y0227344D01*
X0018833Y0227227D01*
X0018723Y0227113D01*
X0018610Y0227002D01*
X0018495Y0226893D01*
X0018377Y0226788D01*
X0018256Y0226686D01*
X0018133Y0226586D01*
X0018007Y0226490D01*
X0017879Y0226397D01*
X0017749Y0226307D01*
X0017616Y0226221D01*
X0017481Y0226137D01*
X0017345Y0226058D01*
X0017206Y0225981D01*
X0017065Y0225909D01*
X0016923Y0225839D01*
X0016779Y0225774D01*
X0016633Y0225712D01*
X0016486Y0225654D01*
X0016337Y0225599D01*
X0016187Y0225548D01*
X0016036Y0225501D01*
X0015884Y0225458D01*
X0015731Y0225419D01*
X0015576Y0225383D01*
X0015421Y0225352D01*
X0015265Y0225324D01*
X0015109Y0225300D01*
X0014952Y0225280D01*
X0014794Y0225264D01*
X0014637Y0225252D01*
X0014478Y0225244D01*
X0014320Y0225240D01*
X0014162Y0225240D01*
X0014004Y0225244D01*
X0013845Y0225252D01*
X0013688Y0225264D01*
X0013530Y0225280D01*
X0013373Y0225300D01*
X0013217Y0225324D01*
X0013061Y0225352D01*
X0012906Y0225383D01*
X0012751Y0225419D01*
X0012598Y0225458D01*
X0012446Y0225501D01*
X0012295Y0225548D01*
X0012145Y0225599D01*
X0011996Y0225654D01*
X0011849Y0225712D01*
X0011703Y0225774D01*
X0011559Y0225839D01*
X0011417Y0225909D01*
X0011276Y0225981D01*
X0011137Y0226058D01*
X0011001Y0226137D01*
X0010866Y0226221D01*
X0010733Y0226307D01*
X0010603Y0226397D01*
X0010475Y0226490D01*
X0010349Y0226586D01*
X0010226Y0226686D01*
X0010105Y0226788D01*
X0009987Y0226893D01*
X0009872Y0227002D01*
X0009759Y0227113D01*
X0009649Y0227227D01*
X0009542Y0227344D01*
X0009438Y0227463D01*
X0009337Y0227585D01*
X0009240Y0227710D01*
X0009145Y0227837D01*
X0009054Y0227966D01*
X0008965Y0228097D01*
X0008881Y0228231D01*
X0008799Y0228367D01*
X0008721Y0228504D01*
X0008647Y0228644D01*
X0008576Y0228786D01*
X0008508Y0228929D01*
X0008444Y0229074D01*
X0008384Y0229220D01*
X0008328Y0229368D01*
X0008275Y0229517D01*
X0008226Y0229668D01*
X0008181Y0229820D01*
X0008140Y0229973D01*
X0008102Y0230126D01*
X0008069Y0230281D01*
X0008039Y0230437D01*
X0008013Y0230593D01*
X0007992Y0230750D01*
X0007974Y0230907D01*
X0007960Y0231065D01*
X0007950Y0231223D01*
X0007944Y0231381D01*
X0007942Y0231539D01*
X0007942Y0261539D02*
X0007944Y0261697D01*
X0007950Y0261855D01*
X0007960Y0262013D01*
X0007974Y0262171D01*
X0007992Y0262328D01*
X0008013Y0262485D01*
X0008039Y0262641D01*
X0008069Y0262797D01*
X0008102Y0262952D01*
X0008140Y0263105D01*
X0008181Y0263258D01*
X0008226Y0263410D01*
X0008275Y0263561D01*
X0008328Y0263710D01*
X0008384Y0263858D01*
X0008444Y0264004D01*
X0008508Y0264149D01*
X0008576Y0264292D01*
X0008647Y0264434D01*
X0008721Y0264574D01*
X0008799Y0264711D01*
X0008881Y0264847D01*
X0008965Y0264981D01*
X0009054Y0265112D01*
X0009145Y0265241D01*
X0009240Y0265368D01*
X0009337Y0265493D01*
X0009438Y0265615D01*
X0009542Y0265734D01*
X0009649Y0265851D01*
X0009759Y0265965D01*
X0009872Y0266076D01*
X0009987Y0266185D01*
X0010105Y0266290D01*
X0010226Y0266392D01*
X0010349Y0266492D01*
X0010475Y0266588D01*
X0010603Y0266681D01*
X0010733Y0266771D01*
X0010866Y0266857D01*
X0011001Y0266941D01*
X0011137Y0267020D01*
X0011276Y0267097D01*
X0011417Y0267169D01*
X0011559Y0267239D01*
X0011703Y0267304D01*
X0011849Y0267366D01*
X0011996Y0267424D01*
X0012145Y0267479D01*
X0012295Y0267530D01*
X0012446Y0267577D01*
X0012598Y0267620D01*
X0012751Y0267659D01*
X0012906Y0267695D01*
X0013061Y0267726D01*
X0013217Y0267754D01*
X0013373Y0267778D01*
X0013530Y0267798D01*
X0013688Y0267814D01*
X0013845Y0267826D01*
X0014004Y0267834D01*
X0014162Y0267838D01*
X0014320Y0267838D01*
X0014478Y0267834D01*
X0014637Y0267826D01*
X0014794Y0267814D01*
X0014952Y0267798D01*
X0015109Y0267778D01*
X0015265Y0267754D01*
X0015421Y0267726D01*
X0015576Y0267695D01*
X0015731Y0267659D01*
X0015884Y0267620D01*
X0016036Y0267577D01*
X0016187Y0267530D01*
X0016337Y0267479D01*
X0016486Y0267424D01*
X0016633Y0267366D01*
X0016779Y0267304D01*
X0016923Y0267239D01*
X0017065Y0267169D01*
X0017206Y0267097D01*
X0017345Y0267020D01*
X0017481Y0266941D01*
X0017616Y0266857D01*
X0017749Y0266771D01*
X0017879Y0266681D01*
X0018007Y0266588D01*
X0018133Y0266492D01*
X0018256Y0266392D01*
X0018377Y0266290D01*
X0018495Y0266185D01*
X0018610Y0266076D01*
X0018723Y0265965D01*
X0018833Y0265851D01*
X0018940Y0265734D01*
X0019044Y0265615D01*
X0019145Y0265493D01*
X0019242Y0265368D01*
X0019337Y0265241D01*
X0019428Y0265112D01*
X0019517Y0264981D01*
X0019601Y0264847D01*
X0019683Y0264711D01*
X0019761Y0264574D01*
X0019835Y0264434D01*
X0019906Y0264292D01*
X0019974Y0264149D01*
X0020038Y0264004D01*
X0020098Y0263858D01*
X0020154Y0263710D01*
X0020207Y0263561D01*
X0020256Y0263410D01*
X0020301Y0263258D01*
X0020342Y0263105D01*
X0020380Y0262952D01*
X0020413Y0262797D01*
X0020443Y0262641D01*
X0020469Y0262485D01*
X0020490Y0262328D01*
X0020508Y0262171D01*
X0020522Y0262013D01*
X0020532Y0261855D01*
X0020538Y0261697D01*
X0020540Y0261539D01*
X0020538Y0261381D01*
X0020532Y0261223D01*
X0020522Y0261065D01*
X0020508Y0260907D01*
X0020490Y0260750D01*
X0020469Y0260593D01*
X0020443Y0260437D01*
X0020413Y0260281D01*
X0020380Y0260126D01*
X0020342Y0259973D01*
X0020301Y0259820D01*
X0020256Y0259668D01*
X0020207Y0259517D01*
X0020154Y0259368D01*
X0020098Y0259220D01*
X0020038Y0259074D01*
X0019974Y0258929D01*
X0019906Y0258786D01*
X0019835Y0258644D01*
X0019761Y0258504D01*
X0019683Y0258367D01*
X0019601Y0258231D01*
X0019517Y0258097D01*
X0019428Y0257966D01*
X0019337Y0257837D01*
X0019242Y0257710D01*
X0019145Y0257585D01*
X0019044Y0257463D01*
X0018940Y0257344D01*
X0018833Y0257227D01*
X0018723Y0257113D01*
X0018610Y0257002D01*
X0018495Y0256893D01*
X0018377Y0256788D01*
X0018256Y0256686D01*
X0018133Y0256586D01*
X0018007Y0256490D01*
X0017879Y0256397D01*
X0017749Y0256307D01*
X0017616Y0256221D01*
X0017481Y0256137D01*
X0017345Y0256058D01*
X0017206Y0255981D01*
X0017065Y0255909D01*
X0016923Y0255839D01*
X0016779Y0255774D01*
X0016633Y0255712D01*
X0016486Y0255654D01*
X0016337Y0255599D01*
X0016187Y0255548D01*
X0016036Y0255501D01*
X0015884Y0255458D01*
X0015731Y0255419D01*
X0015576Y0255383D01*
X0015421Y0255352D01*
X0015265Y0255324D01*
X0015109Y0255300D01*
X0014952Y0255280D01*
X0014794Y0255264D01*
X0014637Y0255252D01*
X0014478Y0255244D01*
X0014320Y0255240D01*
X0014162Y0255240D01*
X0014004Y0255244D01*
X0013845Y0255252D01*
X0013688Y0255264D01*
X0013530Y0255280D01*
X0013373Y0255300D01*
X0013217Y0255324D01*
X0013061Y0255352D01*
X0012906Y0255383D01*
X0012751Y0255419D01*
X0012598Y0255458D01*
X0012446Y0255501D01*
X0012295Y0255548D01*
X0012145Y0255599D01*
X0011996Y0255654D01*
X0011849Y0255712D01*
X0011703Y0255774D01*
X0011559Y0255839D01*
X0011417Y0255909D01*
X0011276Y0255981D01*
X0011137Y0256058D01*
X0011001Y0256137D01*
X0010866Y0256221D01*
X0010733Y0256307D01*
X0010603Y0256397D01*
X0010475Y0256490D01*
X0010349Y0256586D01*
X0010226Y0256686D01*
X0010105Y0256788D01*
X0009987Y0256893D01*
X0009872Y0257002D01*
X0009759Y0257113D01*
X0009649Y0257227D01*
X0009542Y0257344D01*
X0009438Y0257463D01*
X0009337Y0257585D01*
X0009240Y0257710D01*
X0009145Y0257837D01*
X0009054Y0257966D01*
X0008965Y0258097D01*
X0008881Y0258231D01*
X0008799Y0258367D01*
X0008721Y0258504D01*
X0008647Y0258644D01*
X0008576Y0258786D01*
X0008508Y0258929D01*
X0008444Y0259074D01*
X0008384Y0259220D01*
X0008328Y0259368D01*
X0008275Y0259517D01*
X0008226Y0259668D01*
X0008181Y0259820D01*
X0008140Y0259973D01*
X0008102Y0260126D01*
X0008069Y0260281D01*
X0008039Y0260437D01*
X0008013Y0260593D01*
X0007992Y0260750D01*
X0007974Y0260907D01*
X0007960Y0261065D01*
X0007950Y0261223D01*
X0007944Y0261381D01*
X0007942Y0261539D01*
X0013001Y0352646D02*
X0013003Y0352804D01*
X0013009Y0352962D01*
X0013019Y0353120D01*
X0013033Y0353278D01*
X0013051Y0353435D01*
X0013072Y0353592D01*
X0013098Y0353748D01*
X0013128Y0353904D01*
X0013161Y0354059D01*
X0013199Y0354212D01*
X0013240Y0354365D01*
X0013285Y0354517D01*
X0013334Y0354668D01*
X0013387Y0354817D01*
X0013443Y0354965D01*
X0013503Y0355111D01*
X0013567Y0355256D01*
X0013635Y0355399D01*
X0013706Y0355541D01*
X0013780Y0355681D01*
X0013858Y0355818D01*
X0013940Y0355954D01*
X0014024Y0356088D01*
X0014113Y0356219D01*
X0014204Y0356348D01*
X0014299Y0356475D01*
X0014396Y0356600D01*
X0014497Y0356722D01*
X0014601Y0356841D01*
X0014708Y0356958D01*
X0014818Y0357072D01*
X0014931Y0357183D01*
X0015046Y0357292D01*
X0015164Y0357397D01*
X0015285Y0357499D01*
X0015408Y0357599D01*
X0015534Y0357695D01*
X0015662Y0357788D01*
X0015792Y0357878D01*
X0015925Y0357964D01*
X0016060Y0358048D01*
X0016196Y0358127D01*
X0016335Y0358204D01*
X0016476Y0358276D01*
X0016618Y0358346D01*
X0016762Y0358411D01*
X0016908Y0358473D01*
X0017055Y0358531D01*
X0017204Y0358586D01*
X0017354Y0358637D01*
X0017505Y0358684D01*
X0017657Y0358727D01*
X0017810Y0358766D01*
X0017965Y0358802D01*
X0018120Y0358833D01*
X0018276Y0358861D01*
X0018432Y0358885D01*
X0018589Y0358905D01*
X0018747Y0358921D01*
X0018904Y0358933D01*
X0019063Y0358941D01*
X0019221Y0358945D01*
X0019379Y0358945D01*
X0019537Y0358941D01*
X0019696Y0358933D01*
X0019853Y0358921D01*
X0020011Y0358905D01*
X0020168Y0358885D01*
X0020324Y0358861D01*
X0020480Y0358833D01*
X0020635Y0358802D01*
X0020790Y0358766D01*
X0020943Y0358727D01*
X0021095Y0358684D01*
X0021246Y0358637D01*
X0021396Y0358586D01*
X0021545Y0358531D01*
X0021692Y0358473D01*
X0021838Y0358411D01*
X0021982Y0358346D01*
X0022124Y0358276D01*
X0022265Y0358204D01*
X0022404Y0358127D01*
X0022540Y0358048D01*
X0022675Y0357964D01*
X0022808Y0357878D01*
X0022938Y0357788D01*
X0023066Y0357695D01*
X0023192Y0357599D01*
X0023315Y0357499D01*
X0023436Y0357397D01*
X0023554Y0357292D01*
X0023669Y0357183D01*
X0023782Y0357072D01*
X0023892Y0356958D01*
X0023999Y0356841D01*
X0024103Y0356722D01*
X0024204Y0356600D01*
X0024301Y0356475D01*
X0024396Y0356348D01*
X0024487Y0356219D01*
X0024576Y0356088D01*
X0024660Y0355954D01*
X0024742Y0355818D01*
X0024820Y0355681D01*
X0024894Y0355541D01*
X0024965Y0355399D01*
X0025033Y0355256D01*
X0025097Y0355111D01*
X0025157Y0354965D01*
X0025213Y0354817D01*
X0025266Y0354668D01*
X0025315Y0354517D01*
X0025360Y0354365D01*
X0025401Y0354212D01*
X0025439Y0354059D01*
X0025472Y0353904D01*
X0025502Y0353748D01*
X0025528Y0353592D01*
X0025549Y0353435D01*
X0025567Y0353278D01*
X0025581Y0353120D01*
X0025591Y0352962D01*
X0025597Y0352804D01*
X0025599Y0352646D01*
X0025597Y0352488D01*
X0025591Y0352330D01*
X0025581Y0352172D01*
X0025567Y0352014D01*
X0025549Y0351857D01*
X0025528Y0351700D01*
X0025502Y0351544D01*
X0025472Y0351388D01*
X0025439Y0351233D01*
X0025401Y0351080D01*
X0025360Y0350927D01*
X0025315Y0350775D01*
X0025266Y0350624D01*
X0025213Y0350475D01*
X0025157Y0350327D01*
X0025097Y0350181D01*
X0025033Y0350036D01*
X0024965Y0349893D01*
X0024894Y0349751D01*
X0024820Y0349611D01*
X0024742Y0349474D01*
X0024660Y0349338D01*
X0024576Y0349204D01*
X0024487Y0349073D01*
X0024396Y0348944D01*
X0024301Y0348817D01*
X0024204Y0348692D01*
X0024103Y0348570D01*
X0023999Y0348451D01*
X0023892Y0348334D01*
X0023782Y0348220D01*
X0023669Y0348109D01*
X0023554Y0348000D01*
X0023436Y0347895D01*
X0023315Y0347793D01*
X0023192Y0347693D01*
X0023066Y0347597D01*
X0022938Y0347504D01*
X0022808Y0347414D01*
X0022675Y0347328D01*
X0022540Y0347244D01*
X0022404Y0347165D01*
X0022265Y0347088D01*
X0022124Y0347016D01*
X0021982Y0346946D01*
X0021838Y0346881D01*
X0021692Y0346819D01*
X0021545Y0346761D01*
X0021396Y0346706D01*
X0021246Y0346655D01*
X0021095Y0346608D01*
X0020943Y0346565D01*
X0020790Y0346526D01*
X0020635Y0346490D01*
X0020480Y0346459D01*
X0020324Y0346431D01*
X0020168Y0346407D01*
X0020011Y0346387D01*
X0019853Y0346371D01*
X0019696Y0346359D01*
X0019537Y0346351D01*
X0019379Y0346347D01*
X0019221Y0346347D01*
X0019063Y0346351D01*
X0018904Y0346359D01*
X0018747Y0346371D01*
X0018589Y0346387D01*
X0018432Y0346407D01*
X0018276Y0346431D01*
X0018120Y0346459D01*
X0017965Y0346490D01*
X0017810Y0346526D01*
X0017657Y0346565D01*
X0017505Y0346608D01*
X0017354Y0346655D01*
X0017204Y0346706D01*
X0017055Y0346761D01*
X0016908Y0346819D01*
X0016762Y0346881D01*
X0016618Y0346946D01*
X0016476Y0347016D01*
X0016335Y0347088D01*
X0016196Y0347165D01*
X0016060Y0347244D01*
X0015925Y0347328D01*
X0015792Y0347414D01*
X0015662Y0347504D01*
X0015534Y0347597D01*
X0015408Y0347693D01*
X0015285Y0347793D01*
X0015164Y0347895D01*
X0015046Y0348000D01*
X0014931Y0348109D01*
X0014818Y0348220D01*
X0014708Y0348334D01*
X0014601Y0348451D01*
X0014497Y0348570D01*
X0014396Y0348692D01*
X0014299Y0348817D01*
X0014204Y0348944D01*
X0014113Y0349073D01*
X0014024Y0349204D01*
X0013940Y0349338D01*
X0013858Y0349474D01*
X0013780Y0349611D01*
X0013706Y0349751D01*
X0013635Y0349893D01*
X0013567Y0350036D01*
X0013503Y0350181D01*
X0013443Y0350327D01*
X0013387Y0350475D01*
X0013334Y0350624D01*
X0013285Y0350775D01*
X0013240Y0350927D01*
X0013199Y0351080D01*
X0013161Y0351233D01*
X0013128Y0351388D01*
X0013098Y0351544D01*
X0013072Y0351700D01*
X0013051Y0351857D01*
X0013033Y0352014D01*
X0013019Y0352172D01*
X0013009Y0352330D01*
X0013003Y0352488D01*
X0013001Y0352646D01*
X0258863Y0103646D02*
X0258865Y0103771D01*
X0258871Y0103896D01*
X0258881Y0104020D01*
X0258895Y0104144D01*
X0258912Y0104268D01*
X0258934Y0104391D01*
X0258960Y0104513D01*
X0258989Y0104635D01*
X0259022Y0104755D01*
X0259060Y0104874D01*
X0259100Y0104993D01*
X0259145Y0105109D01*
X0259193Y0105224D01*
X0259245Y0105338D01*
X0259301Y0105450D01*
X0259360Y0105560D01*
X0259422Y0105668D01*
X0259488Y0105775D01*
X0259557Y0105879D01*
X0259630Y0105980D01*
X0259705Y0106080D01*
X0259784Y0106177D01*
X0259866Y0106271D01*
X0259951Y0106363D01*
X0260038Y0106452D01*
X0260129Y0106538D01*
X0260222Y0106621D01*
X0260318Y0106702D01*
X0260416Y0106779D01*
X0260516Y0106853D01*
X0260619Y0106924D01*
X0260724Y0106991D01*
X0260832Y0107056D01*
X0260941Y0107116D01*
X0261052Y0107174D01*
X0261165Y0107227D01*
X0261279Y0107277D01*
X0261395Y0107324D01*
X0261512Y0107366D01*
X0261631Y0107405D01*
X0261751Y0107441D01*
X0261872Y0107472D01*
X0261994Y0107500D01*
X0262116Y0107523D01*
X0262240Y0107543D01*
X0262364Y0107559D01*
X0262488Y0107571D01*
X0262613Y0107579D01*
X0262738Y0107583D01*
X0262862Y0107583D01*
X0262987Y0107579D01*
X0263112Y0107571D01*
X0263236Y0107559D01*
X0263360Y0107543D01*
X0263484Y0107523D01*
X0263606Y0107500D01*
X0263728Y0107472D01*
X0263849Y0107441D01*
X0263969Y0107405D01*
X0264088Y0107366D01*
X0264205Y0107324D01*
X0264321Y0107277D01*
X0264435Y0107227D01*
X0264548Y0107174D01*
X0264659Y0107116D01*
X0264769Y0107056D01*
X0264876Y0106991D01*
X0264981Y0106924D01*
X0265084Y0106853D01*
X0265184Y0106779D01*
X0265282Y0106702D01*
X0265378Y0106621D01*
X0265471Y0106538D01*
X0265562Y0106452D01*
X0265649Y0106363D01*
X0265734Y0106271D01*
X0265816Y0106177D01*
X0265895Y0106080D01*
X0265970Y0105980D01*
X0266043Y0105879D01*
X0266112Y0105775D01*
X0266178Y0105668D01*
X0266240Y0105560D01*
X0266299Y0105450D01*
X0266355Y0105338D01*
X0266407Y0105224D01*
X0266455Y0105109D01*
X0266500Y0104993D01*
X0266540Y0104874D01*
X0266578Y0104755D01*
X0266611Y0104635D01*
X0266640Y0104513D01*
X0266666Y0104391D01*
X0266688Y0104268D01*
X0266705Y0104144D01*
X0266719Y0104020D01*
X0266729Y0103896D01*
X0266735Y0103771D01*
X0266737Y0103646D01*
X0266735Y0103521D01*
X0266729Y0103396D01*
X0266719Y0103272D01*
X0266705Y0103148D01*
X0266688Y0103024D01*
X0266666Y0102901D01*
X0266640Y0102779D01*
X0266611Y0102657D01*
X0266578Y0102537D01*
X0266540Y0102418D01*
X0266500Y0102299D01*
X0266455Y0102183D01*
X0266407Y0102068D01*
X0266355Y0101954D01*
X0266299Y0101842D01*
X0266240Y0101732D01*
X0266178Y0101624D01*
X0266112Y0101517D01*
X0266043Y0101413D01*
X0265970Y0101312D01*
X0265895Y0101212D01*
X0265816Y0101115D01*
X0265734Y0101021D01*
X0265649Y0100929D01*
X0265562Y0100840D01*
X0265471Y0100754D01*
X0265378Y0100671D01*
X0265282Y0100590D01*
X0265184Y0100513D01*
X0265084Y0100439D01*
X0264981Y0100368D01*
X0264876Y0100301D01*
X0264768Y0100236D01*
X0264659Y0100176D01*
X0264548Y0100118D01*
X0264435Y0100065D01*
X0264321Y0100015D01*
X0264205Y0099968D01*
X0264088Y0099926D01*
X0263969Y0099887D01*
X0263849Y0099851D01*
X0263728Y0099820D01*
X0263606Y0099792D01*
X0263484Y0099769D01*
X0263360Y0099749D01*
X0263236Y0099733D01*
X0263112Y0099721D01*
X0262987Y0099713D01*
X0262862Y0099709D01*
X0262738Y0099709D01*
X0262613Y0099713D01*
X0262488Y0099721D01*
X0262364Y0099733D01*
X0262240Y0099749D01*
X0262116Y0099769D01*
X0261994Y0099792D01*
X0261872Y0099820D01*
X0261751Y0099851D01*
X0261631Y0099887D01*
X0261512Y0099926D01*
X0261395Y0099968D01*
X0261279Y0100015D01*
X0261165Y0100065D01*
X0261052Y0100118D01*
X0260941Y0100176D01*
X0260831Y0100236D01*
X0260724Y0100301D01*
X0260619Y0100368D01*
X0260516Y0100439D01*
X0260416Y0100513D01*
X0260318Y0100590D01*
X0260222Y0100671D01*
X0260129Y0100754D01*
X0260038Y0100840D01*
X0259951Y0100929D01*
X0259866Y0101021D01*
X0259784Y0101115D01*
X0259705Y0101212D01*
X0259630Y0101312D01*
X0259557Y0101413D01*
X0259488Y0101517D01*
X0259422Y0101624D01*
X0259360Y0101732D01*
X0259301Y0101842D01*
X0259245Y0101954D01*
X0259193Y0102068D01*
X0259145Y0102183D01*
X0259100Y0102299D01*
X0259060Y0102418D01*
X0259022Y0102537D01*
X0258989Y0102657D01*
X0258960Y0102779D01*
X0258934Y0102901D01*
X0258912Y0103024D01*
X0258895Y0103148D01*
X0258881Y0103272D01*
X0258871Y0103396D01*
X0258865Y0103521D01*
X0258863Y0103646D01*
X0263501Y0356146D02*
X0263503Y0356304D01*
X0263509Y0356462D01*
X0263519Y0356620D01*
X0263533Y0356778D01*
X0263551Y0356935D01*
X0263572Y0357092D01*
X0263598Y0357248D01*
X0263628Y0357404D01*
X0263661Y0357559D01*
X0263699Y0357712D01*
X0263740Y0357865D01*
X0263785Y0358017D01*
X0263834Y0358168D01*
X0263887Y0358317D01*
X0263943Y0358465D01*
X0264003Y0358611D01*
X0264067Y0358756D01*
X0264135Y0358899D01*
X0264206Y0359041D01*
X0264280Y0359181D01*
X0264358Y0359318D01*
X0264440Y0359454D01*
X0264524Y0359588D01*
X0264613Y0359719D01*
X0264704Y0359848D01*
X0264799Y0359975D01*
X0264896Y0360100D01*
X0264997Y0360222D01*
X0265101Y0360341D01*
X0265208Y0360458D01*
X0265318Y0360572D01*
X0265431Y0360683D01*
X0265546Y0360792D01*
X0265664Y0360897D01*
X0265785Y0360999D01*
X0265908Y0361099D01*
X0266034Y0361195D01*
X0266162Y0361288D01*
X0266292Y0361378D01*
X0266425Y0361464D01*
X0266560Y0361548D01*
X0266696Y0361627D01*
X0266835Y0361704D01*
X0266976Y0361776D01*
X0267118Y0361846D01*
X0267262Y0361911D01*
X0267408Y0361973D01*
X0267555Y0362031D01*
X0267704Y0362086D01*
X0267854Y0362137D01*
X0268005Y0362184D01*
X0268157Y0362227D01*
X0268310Y0362266D01*
X0268465Y0362302D01*
X0268620Y0362333D01*
X0268776Y0362361D01*
X0268932Y0362385D01*
X0269089Y0362405D01*
X0269247Y0362421D01*
X0269404Y0362433D01*
X0269563Y0362441D01*
X0269721Y0362445D01*
X0269879Y0362445D01*
X0270037Y0362441D01*
X0270196Y0362433D01*
X0270353Y0362421D01*
X0270511Y0362405D01*
X0270668Y0362385D01*
X0270824Y0362361D01*
X0270980Y0362333D01*
X0271135Y0362302D01*
X0271290Y0362266D01*
X0271443Y0362227D01*
X0271595Y0362184D01*
X0271746Y0362137D01*
X0271896Y0362086D01*
X0272045Y0362031D01*
X0272192Y0361973D01*
X0272338Y0361911D01*
X0272482Y0361846D01*
X0272624Y0361776D01*
X0272765Y0361704D01*
X0272904Y0361627D01*
X0273040Y0361548D01*
X0273175Y0361464D01*
X0273308Y0361378D01*
X0273438Y0361288D01*
X0273566Y0361195D01*
X0273692Y0361099D01*
X0273815Y0360999D01*
X0273936Y0360897D01*
X0274054Y0360792D01*
X0274169Y0360683D01*
X0274282Y0360572D01*
X0274392Y0360458D01*
X0274499Y0360341D01*
X0274603Y0360222D01*
X0274704Y0360100D01*
X0274801Y0359975D01*
X0274896Y0359848D01*
X0274987Y0359719D01*
X0275076Y0359588D01*
X0275160Y0359454D01*
X0275242Y0359318D01*
X0275320Y0359181D01*
X0275394Y0359041D01*
X0275465Y0358899D01*
X0275533Y0358756D01*
X0275597Y0358611D01*
X0275657Y0358465D01*
X0275713Y0358317D01*
X0275766Y0358168D01*
X0275815Y0358017D01*
X0275860Y0357865D01*
X0275901Y0357712D01*
X0275939Y0357559D01*
X0275972Y0357404D01*
X0276002Y0357248D01*
X0276028Y0357092D01*
X0276049Y0356935D01*
X0276067Y0356778D01*
X0276081Y0356620D01*
X0276091Y0356462D01*
X0276097Y0356304D01*
X0276099Y0356146D01*
X0276097Y0355988D01*
X0276091Y0355830D01*
X0276081Y0355672D01*
X0276067Y0355514D01*
X0276049Y0355357D01*
X0276028Y0355200D01*
X0276002Y0355044D01*
X0275972Y0354888D01*
X0275939Y0354733D01*
X0275901Y0354580D01*
X0275860Y0354427D01*
X0275815Y0354275D01*
X0275766Y0354124D01*
X0275713Y0353975D01*
X0275657Y0353827D01*
X0275597Y0353681D01*
X0275533Y0353536D01*
X0275465Y0353393D01*
X0275394Y0353251D01*
X0275320Y0353111D01*
X0275242Y0352974D01*
X0275160Y0352838D01*
X0275076Y0352704D01*
X0274987Y0352573D01*
X0274896Y0352444D01*
X0274801Y0352317D01*
X0274704Y0352192D01*
X0274603Y0352070D01*
X0274499Y0351951D01*
X0274392Y0351834D01*
X0274282Y0351720D01*
X0274169Y0351609D01*
X0274054Y0351500D01*
X0273936Y0351395D01*
X0273815Y0351293D01*
X0273692Y0351193D01*
X0273566Y0351097D01*
X0273438Y0351004D01*
X0273308Y0350914D01*
X0273175Y0350828D01*
X0273040Y0350744D01*
X0272904Y0350665D01*
X0272765Y0350588D01*
X0272624Y0350516D01*
X0272482Y0350446D01*
X0272338Y0350381D01*
X0272192Y0350319D01*
X0272045Y0350261D01*
X0271896Y0350206D01*
X0271746Y0350155D01*
X0271595Y0350108D01*
X0271443Y0350065D01*
X0271290Y0350026D01*
X0271135Y0349990D01*
X0270980Y0349959D01*
X0270824Y0349931D01*
X0270668Y0349907D01*
X0270511Y0349887D01*
X0270353Y0349871D01*
X0270196Y0349859D01*
X0270037Y0349851D01*
X0269879Y0349847D01*
X0269721Y0349847D01*
X0269563Y0349851D01*
X0269404Y0349859D01*
X0269247Y0349871D01*
X0269089Y0349887D01*
X0268932Y0349907D01*
X0268776Y0349931D01*
X0268620Y0349959D01*
X0268465Y0349990D01*
X0268310Y0350026D01*
X0268157Y0350065D01*
X0268005Y0350108D01*
X0267854Y0350155D01*
X0267704Y0350206D01*
X0267555Y0350261D01*
X0267408Y0350319D01*
X0267262Y0350381D01*
X0267118Y0350446D01*
X0266976Y0350516D01*
X0266835Y0350588D01*
X0266696Y0350665D01*
X0266560Y0350744D01*
X0266425Y0350828D01*
X0266292Y0350914D01*
X0266162Y0351004D01*
X0266034Y0351097D01*
X0265908Y0351193D01*
X0265785Y0351293D01*
X0265664Y0351395D01*
X0265546Y0351500D01*
X0265431Y0351609D01*
X0265318Y0351720D01*
X0265208Y0351834D01*
X0265101Y0351951D01*
X0264997Y0352070D01*
X0264896Y0352192D01*
X0264799Y0352317D01*
X0264704Y0352444D01*
X0264613Y0352573D01*
X0264524Y0352704D01*
X0264440Y0352838D01*
X0264358Y0352974D01*
X0264280Y0353111D01*
X0264206Y0353251D01*
X0264135Y0353393D01*
X0264067Y0353536D01*
X0264003Y0353681D01*
X0263943Y0353827D01*
X0263887Y0353975D01*
X0263834Y0354124D01*
X0263785Y0354275D01*
X0263740Y0354427D01*
X0263699Y0354580D01*
X0263661Y0354733D01*
X0263628Y0354888D01*
X0263598Y0355044D01*
X0263572Y0355200D01*
X0263551Y0355357D01*
X0263533Y0355514D01*
X0263519Y0355672D01*
X0263509Y0355830D01*
X0263503Y0355988D01*
X0263501Y0356146D01*
D11*
X0091090Y0342346D02*
X0091090Y0314575D01*
X0089608Y0314575D01*
X0078685Y0303652D01*
X0078685Y0302541D01*
X0070910Y0302541D01*
X0070539Y0313094D02*
X0052396Y0313094D01*
X0052581Y0313650D02*
X0052581Y0318463D01*
X0053321Y0318093D02*
X0053321Y0314020D01*
X0054062Y0314390D02*
X0054062Y0317723D01*
X0052396Y0319389D02*
X0070539Y0319389D01*
X0076649Y0308651D02*
X0076953Y0308815D01*
X0077253Y0308986D01*
X0077549Y0309164D01*
X0077840Y0309349D01*
X0078126Y0309542D01*
X0078408Y0309741D01*
X0078685Y0309947D01*
X0084795Y0316427D02*
X0085535Y0317723D01*
X0088312Y0327905D02*
X0088312Y0329386D01*
X0090164Y0342346D02*
X0078685Y0353824D01*
X0078685Y0354380D01*
X0071095Y0354380D01*
X0076279Y0348826D02*
X0077575Y0348085D01*
X0071095Y0344012D02*
X0052211Y0344012D01*
X0052581Y0343272D02*
X0052581Y0338458D01*
X0053321Y0338828D02*
X0053321Y0342901D01*
X0054062Y0342531D02*
X0054062Y0339199D01*
X0052211Y0337717D02*
X0071095Y0337717D01*
X0064060Y0337347D02*
X0064146Y0337179D01*
X0064236Y0337013D01*
X0064330Y0336849D01*
X0064428Y0336687D01*
X0064530Y0336528D01*
X0064636Y0336372D01*
X0064746Y0336218D01*
X0064859Y0336067D01*
X0064976Y0335919D01*
X0065097Y0335773D01*
X0065221Y0335631D01*
X0065348Y0335492D01*
X0065479Y0335356D01*
X0065614Y0335223D01*
X0065751Y0335093D01*
X0065892Y0334967D01*
X0066035Y0334844D01*
X0066182Y0334725D01*
X0066332Y0334610D01*
X0066484Y0334498D01*
X0066639Y0334390D01*
X0066796Y0334286D01*
X0066956Y0334186D01*
X0067119Y0334089D01*
X0067284Y0333997D01*
X0067451Y0333909D01*
X0067620Y0333824D01*
X0067791Y0333744D01*
X0067964Y0333669D01*
X0068139Y0333597D01*
X0068315Y0333530D01*
X0068493Y0333467D01*
X0068673Y0333409D01*
X0068854Y0333354D01*
X0069036Y0333305D01*
X0069220Y0333260D01*
X0069404Y0333219D01*
X0069590Y0333183D01*
X0069776Y0333151D01*
X0069963Y0333124D01*
X0070150Y0333102D01*
X0070339Y0333084D01*
X0070527Y0333071D01*
X0070716Y0333062D01*
X0070905Y0333058D01*
X0071093Y0333059D01*
X0071282Y0333064D01*
X0071471Y0333074D01*
X0071659Y0333089D01*
X0071847Y0333108D01*
X0072035Y0333132D01*
X0072221Y0333160D01*
X0072407Y0333193D01*
X0072593Y0333230D01*
X0072777Y0333272D01*
X0072960Y0333319D01*
X0073142Y0333369D01*
X0073322Y0333425D01*
X0073502Y0333485D01*
X0073679Y0333549D01*
X0073855Y0333617D01*
X0074030Y0333690D01*
X0074202Y0333767D01*
X0074373Y0333848D01*
X0074541Y0333933D01*
X0074708Y0334023D01*
X0074872Y0334116D01*
X0075034Y0334214D01*
X0075193Y0334315D01*
X0075350Y0334421D01*
X0075504Y0334530D01*
X0075655Y0334643D01*
X0075804Y0334759D01*
X0075950Y0334879D01*
X0076093Y0335003D01*
X0076233Y0335130D01*
X0076369Y0335260D01*
X0076502Y0335394D01*
X0076632Y0335531D01*
X0076759Y0335671D01*
X0076882Y0335815D01*
X0077002Y0335961D01*
X0077118Y0336110D01*
X0077230Y0336262D01*
X0077339Y0336416D01*
X0077443Y0336574D01*
X0077544Y0336733D01*
X0077641Y0336896D01*
X0077734Y0337060D01*
X0077823Y0337227D01*
X0077908Y0337396D01*
X0077988Y0337566D01*
X0078065Y0337739D01*
X0078137Y0337914D01*
X0078205Y0338090D01*
X0078268Y0338268D01*
X0078327Y0338447D01*
X0078382Y0338628D01*
X0078432Y0338810D01*
X0078478Y0338994D01*
X0078519Y0339178D01*
X0078556Y0339363D01*
X0078588Y0339549D01*
X0078616Y0339736D01*
X0078639Y0339924D01*
X0078658Y0340112D01*
X0078672Y0340300D01*
X0078681Y0340489D01*
X0078685Y0340678D01*
X0078685Y0340866D01*
X0078681Y0341055D01*
X0078672Y0341244D01*
X0078658Y0341432D01*
X0078639Y0341620D01*
X0078616Y0341808D01*
X0078588Y0341995D01*
X0078556Y0342181D01*
X0078519Y0342366D01*
X0078478Y0342550D01*
X0078432Y0342734D01*
X0078382Y0342916D01*
X0078327Y0343097D01*
X0078268Y0343276D01*
X0078205Y0343454D01*
X0078137Y0343630D01*
X0078065Y0343805D01*
X0077988Y0343978D01*
X0077908Y0344148D01*
X0077823Y0344317D01*
X0077734Y0344484D01*
X0077641Y0344648D01*
X0077544Y0344811D01*
X0077443Y0344970D01*
X0077339Y0345128D01*
X0077230Y0345282D01*
X0077118Y0345434D01*
X0077002Y0345583D01*
X0076882Y0345729D01*
X0076759Y0345873D01*
X0076632Y0346013D01*
X0076502Y0346150D01*
X0076369Y0346284D01*
X0076233Y0346414D01*
X0076093Y0346541D01*
X0075950Y0346665D01*
X0075804Y0346785D01*
X0075655Y0346901D01*
X0075504Y0347014D01*
X0075350Y0347123D01*
X0075193Y0347229D01*
X0075034Y0347330D01*
X0074872Y0347428D01*
X0074708Y0347521D01*
X0074541Y0347611D01*
X0074373Y0347696D01*
X0074202Y0347777D01*
X0074030Y0347854D01*
X0073855Y0347927D01*
X0073679Y0347995D01*
X0073502Y0348059D01*
X0073322Y0348119D01*
X0073142Y0348175D01*
X0072960Y0348225D01*
X0072777Y0348272D01*
X0072593Y0348314D01*
X0072407Y0348351D01*
X0072221Y0348384D01*
X0072035Y0348412D01*
X0071847Y0348436D01*
X0071659Y0348455D01*
X0071471Y0348470D01*
X0071282Y0348480D01*
X0071093Y0348485D01*
X0070905Y0348486D01*
X0070716Y0348482D01*
X0070527Y0348473D01*
X0070339Y0348460D01*
X0070150Y0348442D01*
X0069963Y0348420D01*
X0069776Y0348393D01*
X0069590Y0348361D01*
X0069404Y0348325D01*
X0069220Y0348284D01*
X0069036Y0348239D01*
X0068854Y0348190D01*
X0068673Y0348135D01*
X0068493Y0348077D01*
X0068315Y0348014D01*
X0068139Y0347947D01*
X0067964Y0347875D01*
X0067791Y0347800D01*
X0067620Y0347720D01*
X0067451Y0347635D01*
X0067284Y0347547D01*
X0067119Y0347455D01*
X0066956Y0347358D01*
X0066796Y0347258D01*
X0066639Y0347154D01*
X0066484Y0347046D01*
X0066332Y0346934D01*
X0066182Y0346819D01*
X0066035Y0346700D01*
X0065892Y0346577D01*
X0065751Y0346451D01*
X0065614Y0346321D01*
X0065479Y0346188D01*
X0065348Y0346052D01*
X0065221Y0345913D01*
X0065097Y0345771D01*
X0064976Y0345625D01*
X0064859Y0345477D01*
X0064746Y0345326D01*
X0064636Y0345172D01*
X0064530Y0345016D01*
X0064428Y0344857D01*
X0064330Y0344695D01*
X0064236Y0344531D01*
X0064146Y0344365D01*
X0064060Y0344197D01*
X0064245Y0343272D02*
X0064245Y0338458D01*
X0064985Y0338828D02*
X0064985Y0342901D01*
X0065726Y0342531D02*
X0065726Y0339199D01*
X0054062Y0348641D02*
X0053758Y0348477D01*
X0053458Y0348306D01*
X0053162Y0348128D01*
X0052871Y0347943D01*
X0052585Y0347750D01*
X0052303Y0347551D01*
X0052026Y0347345D01*
X0050730Y0353454D02*
X0050572Y0353467D01*
X0050414Y0353475D01*
X0050257Y0353480D01*
X0050099Y0353481D01*
X0049941Y0353478D01*
X0049783Y0353470D01*
X0049625Y0353459D01*
X0049468Y0353444D01*
X0049311Y0353425D01*
X0049155Y0353402D01*
X0049000Y0353375D01*
X0048845Y0353344D01*
X0048691Y0353310D01*
X0048537Y0353271D01*
X0048385Y0353229D01*
X0048234Y0353183D01*
X0048084Y0353133D01*
X0047936Y0353079D01*
X0047789Y0353022D01*
X0047643Y0352961D01*
X0047499Y0352896D01*
X0047357Y0352827D01*
X0047216Y0352756D01*
X0047077Y0352680D01*
X0046940Y0352601D01*
X0046806Y0352519D01*
X0046673Y0352433D01*
X0046542Y0352345D01*
X0046414Y0352252D01*
X0046288Y0352157D01*
X0046165Y0352059D01*
X0046044Y0351957D01*
X0045926Y0351852D01*
X0045810Y0351745D01*
X0045697Y0351634D01*
X0045587Y0351521D01*
X0045479Y0351405D01*
X0045375Y0351287D01*
X0045274Y0351166D01*
X0045176Y0351042D01*
X0045081Y0350916D01*
X0044989Y0350787D01*
X0044900Y0350657D01*
X0044815Y0350524D01*
X0044733Y0350389D01*
X0044654Y0350252D01*
X0044579Y0350113D01*
X0044507Y0349972D01*
X0044439Y0349830D01*
X0044375Y0349685D01*
X0044314Y0349540D01*
X0044257Y0349392D01*
X0044204Y0349244D01*
X0044154Y0349094D01*
X0044108Y0348943D01*
X0044066Y0348790D01*
X0044028Y0348637D01*
X0043994Y0348483D01*
X0043963Y0348328D01*
X0043937Y0348172D01*
X0043914Y0348016D01*
X0043895Y0347859D01*
X0043881Y0347702D01*
X0043870Y0347544D01*
X0043863Y0347387D01*
X0043860Y0347229D01*
X0043861Y0347071D01*
X0043866Y0346913D01*
X0043875Y0346755D01*
X0043888Y0346598D01*
X0043905Y0346441D01*
X0043926Y0346284D01*
X0043951Y0346128D01*
X0043979Y0345973D01*
X0044012Y0345818D01*
X0044049Y0345665D01*
X0044089Y0345512D01*
X0044133Y0345360D01*
X0044181Y0345210D01*
X0044233Y0345061D01*
X0044288Y0344913D01*
X0044347Y0344766D01*
X0044410Y0344621D01*
X0044476Y0344478D01*
X0044546Y0344337D01*
X0044620Y0344197D01*
X0045916Y0340865D02*
X0045175Y0339569D01*
X0042398Y0329386D02*
X0042398Y0327905D01*
X0044621Y0312723D02*
X0044547Y0312587D01*
X0044477Y0312449D01*
X0044410Y0312308D01*
X0044346Y0312167D01*
X0044287Y0312023D01*
X0044231Y0311879D01*
X0044178Y0311733D01*
X0044130Y0311585D01*
X0044085Y0311437D01*
X0044044Y0311287D01*
X0044007Y0311136D01*
X0043973Y0310985D01*
X0043943Y0310832D01*
X0043918Y0310679D01*
X0043896Y0310525D01*
X0043878Y0310371D01*
X0043864Y0310217D01*
X0043854Y0310062D01*
X0043847Y0309907D01*
X0043845Y0309752D01*
X0043847Y0309596D01*
X0043852Y0309441D01*
X0043862Y0309286D01*
X0043875Y0309132D01*
X0043892Y0308977D01*
X0043914Y0308824D01*
X0043939Y0308670D01*
X0043968Y0308518D01*
X0044000Y0308366D01*
X0044037Y0308215D01*
X0044078Y0308065D01*
X0044122Y0307917D01*
X0044170Y0307769D01*
X0044221Y0307623D01*
X0044277Y0307478D01*
X0044336Y0307334D01*
X0044399Y0307192D01*
X0044465Y0307052D01*
X0044534Y0306913D01*
X0044608Y0306776D01*
X0044684Y0306641D01*
X0044765Y0306508D01*
X0044848Y0306377D01*
X0044935Y0306249D01*
X0045025Y0306122D01*
X0045118Y0305998D01*
X0045214Y0305876D01*
X0045313Y0305757D01*
X0045415Y0305640D01*
X0045521Y0305526D01*
X0045629Y0305414D01*
X0045740Y0305306D01*
X0045853Y0305200D01*
X0045969Y0305097D01*
X0046088Y0304997D01*
X0046209Y0304900D01*
X0046333Y0304806D01*
X0046459Y0304716D01*
X0046587Y0304628D01*
X0046718Y0304544D01*
X0046850Y0304463D01*
X0046985Y0304386D01*
X0047121Y0304312D01*
X0047259Y0304241D01*
X0047399Y0304174D01*
X0047541Y0304111D01*
X0047684Y0304051D01*
X0047829Y0303995D01*
X0047975Y0303942D01*
X0048122Y0303893D01*
X0048271Y0303848D01*
X0048421Y0303807D01*
X0048571Y0303769D01*
X0048723Y0303736D01*
X0048875Y0303706D01*
X0049028Y0303680D01*
X0049182Y0303658D01*
X0049336Y0303640D01*
X0049491Y0303625D01*
X0049645Y0303615D01*
X0049800Y0303609D01*
X0049956Y0303606D01*
X0050111Y0303607D01*
X0050266Y0303613D01*
X0050421Y0303622D01*
X0050576Y0303635D01*
X0050730Y0303652D01*
X0050730Y0302541D01*
X0058505Y0302541D01*
X0054432Y0308466D02*
X0053136Y0309206D01*
X0064245Y0313835D02*
X0064245Y0318648D01*
X0064985Y0318278D02*
X0064985Y0314205D01*
X0065726Y0314575D02*
X0065726Y0317908D01*
X0070539Y0319388D02*
X0070650Y0319386D01*
X0070761Y0319380D01*
X0070872Y0319370D01*
X0070982Y0319357D01*
X0071092Y0319339D01*
X0071201Y0319318D01*
X0071309Y0319292D01*
X0071416Y0319263D01*
X0071522Y0319231D01*
X0071627Y0319194D01*
X0071730Y0319154D01*
X0071833Y0319110D01*
X0071933Y0319062D01*
X0072032Y0319011D01*
X0072129Y0318957D01*
X0072223Y0318899D01*
X0072316Y0318838D01*
X0072407Y0318774D01*
X0072495Y0318706D01*
X0072581Y0318636D01*
X0072664Y0318562D01*
X0072745Y0318486D01*
X0072822Y0318407D01*
X0072897Y0318325D01*
X0072969Y0318240D01*
X0073038Y0318153D01*
X0073104Y0318064D01*
X0073167Y0317972D01*
X0073227Y0317878D01*
X0073283Y0317782D01*
X0073335Y0317685D01*
X0073385Y0317585D01*
X0073430Y0317484D01*
X0073472Y0317381D01*
X0073511Y0317277D01*
X0073545Y0317171D01*
X0073576Y0317064D01*
X0073604Y0316957D01*
X0073627Y0316848D01*
X0073646Y0316739D01*
X0073662Y0316629D01*
X0073674Y0316518D01*
X0073682Y0316408D01*
X0073686Y0316297D01*
X0073686Y0316185D01*
X0073682Y0316074D01*
X0073674Y0315964D01*
X0073662Y0315853D01*
X0073646Y0315743D01*
X0073627Y0315634D01*
X0073604Y0315525D01*
X0073576Y0315418D01*
X0073545Y0315311D01*
X0073511Y0315205D01*
X0073472Y0315101D01*
X0073430Y0314998D01*
X0073385Y0314897D01*
X0073335Y0314797D01*
X0073283Y0314700D01*
X0073227Y0314604D01*
X0073167Y0314510D01*
X0073104Y0314418D01*
X0073038Y0314329D01*
X0072969Y0314242D01*
X0072897Y0314157D01*
X0072822Y0314075D01*
X0072745Y0313996D01*
X0072664Y0313920D01*
X0072581Y0313846D01*
X0072495Y0313776D01*
X0072407Y0313708D01*
X0072316Y0313644D01*
X0072223Y0313583D01*
X0072129Y0313525D01*
X0072032Y0313471D01*
X0071933Y0313420D01*
X0071833Y0313372D01*
X0071730Y0313328D01*
X0071627Y0313288D01*
X0071522Y0313251D01*
X0071416Y0313219D01*
X0071309Y0313190D01*
X0071201Y0313164D01*
X0071092Y0313143D01*
X0070982Y0313125D01*
X0070872Y0313112D01*
X0070761Y0313102D01*
X0070650Y0313096D01*
X0070539Y0313094D01*
X0064245Y0312724D02*
X0064331Y0312556D01*
X0064421Y0312390D01*
X0064515Y0312226D01*
X0064613Y0312064D01*
X0064715Y0311905D01*
X0064821Y0311749D01*
X0064931Y0311595D01*
X0065044Y0311444D01*
X0065161Y0311296D01*
X0065282Y0311150D01*
X0065406Y0311008D01*
X0065533Y0310869D01*
X0065664Y0310733D01*
X0065799Y0310600D01*
X0065936Y0310470D01*
X0066077Y0310344D01*
X0066220Y0310221D01*
X0066367Y0310102D01*
X0066517Y0309987D01*
X0066669Y0309875D01*
X0066824Y0309767D01*
X0066981Y0309663D01*
X0067141Y0309563D01*
X0067304Y0309466D01*
X0067469Y0309374D01*
X0067636Y0309286D01*
X0067805Y0309201D01*
X0067976Y0309121D01*
X0068149Y0309046D01*
X0068324Y0308974D01*
X0068500Y0308907D01*
X0068678Y0308844D01*
X0068858Y0308786D01*
X0069039Y0308731D01*
X0069221Y0308682D01*
X0069405Y0308637D01*
X0069589Y0308596D01*
X0069775Y0308560D01*
X0069961Y0308528D01*
X0070148Y0308501D01*
X0070335Y0308479D01*
X0070524Y0308461D01*
X0070712Y0308448D01*
X0070901Y0308439D01*
X0071090Y0308435D01*
X0071278Y0308436D01*
X0071467Y0308441D01*
X0071656Y0308451D01*
X0071844Y0308466D01*
X0072032Y0308485D01*
X0072220Y0308509D01*
X0072406Y0308537D01*
X0072592Y0308570D01*
X0072778Y0308607D01*
X0072962Y0308649D01*
X0073145Y0308696D01*
X0073327Y0308746D01*
X0073507Y0308802D01*
X0073687Y0308862D01*
X0073864Y0308926D01*
X0074040Y0308994D01*
X0074215Y0309067D01*
X0074387Y0309144D01*
X0074558Y0309225D01*
X0074726Y0309310D01*
X0074893Y0309400D01*
X0075057Y0309493D01*
X0075219Y0309591D01*
X0075378Y0309692D01*
X0075535Y0309798D01*
X0075689Y0309907D01*
X0075840Y0310020D01*
X0075989Y0310136D01*
X0076135Y0310256D01*
X0076278Y0310380D01*
X0076418Y0310507D01*
X0076554Y0310637D01*
X0076687Y0310771D01*
X0076817Y0310908D01*
X0076944Y0311048D01*
X0077067Y0311192D01*
X0077187Y0311338D01*
X0077303Y0311487D01*
X0077415Y0311639D01*
X0077524Y0311793D01*
X0077628Y0311951D01*
X0077729Y0312110D01*
X0077826Y0312273D01*
X0077919Y0312437D01*
X0078008Y0312604D01*
X0078093Y0312773D01*
X0078173Y0312943D01*
X0078250Y0313116D01*
X0078322Y0313291D01*
X0078390Y0313467D01*
X0078453Y0313645D01*
X0078512Y0313824D01*
X0078567Y0314005D01*
X0078617Y0314187D01*
X0078663Y0314371D01*
X0078704Y0314555D01*
X0078741Y0314740D01*
X0078773Y0314926D01*
X0078801Y0315113D01*
X0078824Y0315301D01*
X0078843Y0315489D01*
X0078857Y0315677D01*
X0078866Y0315866D01*
X0078870Y0316055D01*
X0078870Y0316243D01*
X0078866Y0316432D01*
X0078857Y0316621D01*
X0078843Y0316809D01*
X0078824Y0316997D01*
X0078801Y0317185D01*
X0078773Y0317372D01*
X0078741Y0317558D01*
X0078704Y0317743D01*
X0078663Y0317927D01*
X0078617Y0318111D01*
X0078567Y0318293D01*
X0078512Y0318474D01*
X0078453Y0318653D01*
X0078390Y0318831D01*
X0078322Y0319007D01*
X0078250Y0319182D01*
X0078173Y0319355D01*
X0078093Y0319525D01*
X0078008Y0319694D01*
X0077919Y0319861D01*
X0077826Y0320025D01*
X0077729Y0320188D01*
X0077628Y0320347D01*
X0077524Y0320505D01*
X0077415Y0320659D01*
X0077303Y0320811D01*
X0077187Y0320960D01*
X0077067Y0321106D01*
X0076944Y0321250D01*
X0076817Y0321390D01*
X0076687Y0321527D01*
X0076554Y0321661D01*
X0076418Y0321791D01*
X0076278Y0321918D01*
X0076135Y0322042D01*
X0075989Y0322162D01*
X0075840Y0322278D01*
X0075689Y0322391D01*
X0075535Y0322500D01*
X0075378Y0322606D01*
X0075219Y0322707D01*
X0075057Y0322805D01*
X0074893Y0322898D01*
X0074726Y0322988D01*
X0074558Y0323073D01*
X0074387Y0323154D01*
X0074215Y0323231D01*
X0074040Y0323304D01*
X0073864Y0323372D01*
X0073687Y0323436D01*
X0073507Y0323496D01*
X0073327Y0323552D01*
X0073145Y0323602D01*
X0072962Y0323649D01*
X0072778Y0323691D01*
X0072592Y0323728D01*
X0072406Y0323761D01*
X0072220Y0323789D01*
X0072032Y0323813D01*
X0071844Y0323832D01*
X0071656Y0323847D01*
X0071467Y0323857D01*
X0071278Y0323862D01*
X0071090Y0323863D01*
X0070901Y0323859D01*
X0070712Y0323850D01*
X0070524Y0323837D01*
X0070335Y0323819D01*
X0070148Y0323797D01*
X0069961Y0323770D01*
X0069775Y0323738D01*
X0069589Y0323702D01*
X0069405Y0323661D01*
X0069221Y0323616D01*
X0069039Y0323567D01*
X0068858Y0323512D01*
X0068678Y0323454D01*
X0068500Y0323391D01*
X0068324Y0323324D01*
X0068149Y0323252D01*
X0067976Y0323177D01*
X0067805Y0323097D01*
X0067636Y0323012D01*
X0067469Y0322924D01*
X0067304Y0322832D01*
X0067141Y0322735D01*
X0066981Y0322635D01*
X0066824Y0322531D01*
X0066669Y0322423D01*
X0066517Y0322311D01*
X0066367Y0322196D01*
X0066220Y0322077D01*
X0066077Y0321954D01*
X0065936Y0321828D01*
X0065799Y0321698D01*
X0065664Y0321565D01*
X0065533Y0321429D01*
X0065406Y0321290D01*
X0065282Y0321148D01*
X0065161Y0321002D01*
X0065044Y0320854D01*
X0064931Y0320703D01*
X0064821Y0320549D01*
X0064715Y0320393D01*
X0064613Y0320234D01*
X0064515Y0320072D01*
X0064421Y0319908D01*
X0064331Y0319742D01*
X0064245Y0319574D01*
X0046656Y0315316D02*
X0046450Y0315593D01*
X0046251Y0315875D01*
X0046058Y0316161D01*
X0045873Y0316452D01*
X0045695Y0316748D01*
X0045524Y0317048D01*
X0045360Y0317352D01*
X0087757Y0333644D02*
X0087631Y0334177D01*
X0087494Y0334706D01*
X0087345Y0335233D01*
X0087185Y0335756D01*
X0087014Y0336276D01*
X0086831Y0336791D01*
X0085351Y0339939D02*
X0085187Y0340243D01*
X0085016Y0340543D01*
X0084838Y0340839D01*
X0084653Y0341130D01*
X0084460Y0341416D01*
X0084261Y0341698D01*
X0084055Y0341975D01*
X0071095Y0344012D02*
X0071206Y0344010D01*
X0071317Y0344004D01*
X0071428Y0343994D01*
X0071538Y0343981D01*
X0071648Y0343963D01*
X0071757Y0343942D01*
X0071865Y0343916D01*
X0071972Y0343887D01*
X0072078Y0343855D01*
X0072183Y0343818D01*
X0072286Y0343778D01*
X0072389Y0343734D01*
X0072489Y0343686D01*
X0072588Y0343635D01*
X0072685Y0343581D01*
X0072779Y0343523D01*
X0072872Y0343462D01*
X0072963Y0343398D01*
X0073051Y0343330D01*
X0073137Y0343260D01*
X0073220Y0343186D01*
X0073301Y0343110D01*
X0073378Y0343031D01*
X0073453Y0342949D01*
X0073525Y0342864D01*
X0073594Y0342777D01*
X0073660Y0342688D01*
X0073723Y0342596D01*
X0073783Y0342502D01*
X0073839Y0342406D01*
X0073891Y0342309D01*
X0073941Y0342209D01*
X0073986Y0342108D01*
X0074028Y0342005D01*
X0074067Y0341901D01*
X0074101Y0341795D01*
X0074132Y0341688D01*
X0074160Y0341581D01*
X0074183Y0341472D01*
X0074202Y0341363D01*
X0074218Y0341253D01*
X0074230Y0341142D01*
X0074238Y0341032D01*
X0074242Y0340921D01*
X0074242Y0340809D01*
X0074238Y0340698D01*
X0074230Y0340588D01*
X0074218Y0340477D01*
X0074202Y0340367D01*
X0074183Y0340258D01*
X0074160Y0340149D01*
X0074132Y0340042D01*
X0074101Y0339935D01*
X0074067Y0339829D01*
X0074028Y0339725D01*
X0073986Y0339622D01*
X0073941Y0339521D01*
X0073891Y0339421D01*
X0073839Y0339324D01*
X0073783Y0339228D01*
X0073723Y0339134D01*
X0073660Y0339042D01*
X0073594Y0338953D01*
X0073525Y0338866D01*
X0073453Y0338781D01*
X0073378Y0338699D01*
X0073301Y0338620D01*
X0073220Y0338544D01*
X0073137Y0338470D01*
X0073051Y0338400D01*
X0072963Y0338332D01*
X0072872Y0338268D01*
X0072779Y0338207D01*
X0072685Y0338149D01*
X0072588Y0338095D01*
X0072489Y0338044D01*
X0072389Y0337996D01*
X0072286Y0337952D01*
X0072183Y0337912D01*
X0072078Y0337875D01*
X0071972Y0337843D01*
X0071865Y0337814D01*
X0071757Y0337788D01*
X0071648Y0337767D01*
X0071538Y0337749D01*
X0071428Y0337736D01*
X0071317Y0337726D01*
X0071206Y0337720D01*
X0071095Y0337718D01*
X0042954Y0323647D02*
X0043080Y0323114D01*
X0043217Y0322585D01*
X0043366Y0322058D01*
X0043526Y0321535D01*
X0043697Y0321015D01*
X0043880Y0320500D01*
X0044620Y0312724D02*
X0044994Y0313226D01*
X0045357Y0313737D01*
X0045706Y0314257D01*
X0046044Y0314785D01*
X0046368Y0315321D01*
X0046679Y0315865D01*
X0046977Y0316415D01*
X0047262Y0316974D01*
X0047533Y0317538D01*
X0047790Y0318109D01*
X0048033Y0318687D01*
X0048262Y0319270D01*
X0048478Y0319858D01*
X0048679Y0320451D01*
X0048865Y0321049D01*
X0049037Y0321651D01*
X0049194Y0322258D01*
X0049337Y0322868D01*
X0049465Y0323481D01*
X0049578Y0324097D01*
X0049676Y0324716D01*
X0049759Y0325337D01*
X0049827Y0325959D01*
X0049880Y0326583D01*
X0049918Y0327209D01*
X0049940Y0327835D01*
X0049948Y0328461D01*
X0049940Y0329087D01*
X0049918Y0329713D01*
X0049880Y0330339D01*
X0049827Y0330963D01*
X0049759Y0331585D01*
X0049676Y0332206D01*
X0049578Y0332825D01*
X0049465Y0333441D01*
X0049337Y0334054D01*
X0049194Y0334664D01*
X0049037Y0335271D01*
X0048865Y0335873D01*
X0048679Y0336471D01*
X0048478Y0337064D01*
X0048262Y0337652D01*
X0048033Y0338235D01*
X0047790Y0338813D01*
X0047533Y0339384D01*
X0047262Y0339948D01*
X0046977Y0340507D01*
X0046679Y0341057D01*
X0046368Y0341601D01*
X0046044Y0342137D01*
X0045706Y0342665D01*
X0045357Y0343185D01*
X0044994Y0343696D01*
X0044620Y0344198D01*
X0050730Y0353454D02*
X0050730Y0354380D01*
X0058320Y0354380D01*
X0083498Y0314576D02*
X0083160Y0314153D01*
X0082812Y0313739D01*
X0082455Y0313333D01*
X0082089Y0312934D01*
X0081714Y0312545D01*
X0081330Y0312164D01*
X0080937Y0311791D01*
X0080536Y0311428D01*
X0047213Y0342715D02*
X0047551Y0343138D01*
X0047899Y0343552D01*
X0048256Y0343958D01*
X0048622Y0344357D01*
X0048997Y0344746D01*
X0049381Y0345127D01*
X0049774Y0345500D01*
X0050175Y0345863D01*
X0048138Y0313465D02*
X0048501Y0313064D01*
X0048874Y0312671D01*
X0049255Y0312287D01*
X0049644Y0311912D01*
X0050043Y0311546D01*
X0050449Y0311189D01*
X0050863Y0310841D01*
X0051286Y0310503D01*
X0082573Y0343827D02*
X0082210Y0344228D01*
X0081837Y0344621D01*
X0081456Y0345005D01*
X0081067Y0345380D01*
X0080668Y0345746D01*
X0080262Y0346103D01*
X0079848Y0346451D01*
X0079425Y0346789D01*
X0088128Y0325684D02*
X0088053Y0325166D01*
X0087966Y0324651D01*
X0087868Y0324137D01*
X0087758Y0323626D01*
X0087636Y0323118D01*
X0087503Y0322612D01*
X0087358Y0322110D01*
X0087202Y0321611D01*
X0042583Y0331608D02*
X0042658Y0332126D01*
X0042745Y0332641D01*
X0042843Y0333155D01*
X0042953Y0333666D01*
X0043075Y0334174D01*
X0043208Y0334680D01*
X0043353Y0335182D01*
X0043509Y0335681D01*
D12*
X0082481Y0328646D03*
D13*
X0082388Y0328738D03*
D14*
X0131835Y0156374D02*
X0168725Y0156374D01*
X0168725Y0144996D01*
X0131835Y0144996D01*
X0131835Y0156374D01*
X0131914Y0143421D02*
X0168528Y0143382D01*
X0168528Y0104366D01*
X0165615Y0100705D01*
X0132780Y0100705D01*
X0131993Y0101492D01*
X0131993Y0101689D01*
X0131914Y0101610D02*
X0131914Y0143421D01*
X0137505Y0139130D02*
X0137505Y0137004D01*
X0150182Y0137004D01*
X0150182Y0133500D01*
X0156402Y0133500D01*
X0156402Y0137004D01*
X0163017Y0137004D01*
X0163017Y0133500D01*
X0156402Y0133500D01*
X0156402Y0137004D02*
X0150182Y0137004D01*
X0150182Y0133500D02*
X0137505Y0133500D01*
X0137505Y0137004D01*
X0137505Y0139130D02*
X0163017Y0139130D01*
X0163017Y0137004D01*
X0163017Y0133500D02*
X0163017Y0129602D01*
X0150261Y0129602D01*
X0150261Y0126059D01*
X0163017Y0126059D01*
X0163017Y0113421D01*
X0159080Y0109484D01*
X0137505Y0109484D01*
X0137505Y0129602D01*
X0150261Y0129602D01*
X0150261Y0126059D02*
X0137544Y0126059D01*
X0137505Y0129602D02*
X0137505Y0133500D01*
X0126560Y0111295D02*
X0120300Y0111295D01*
X0120300Y0104445D01*
X0126560Y0104445D01*
X0126560Y0111295D01*
X0163017Y0126059D02*
X0163017Y0129602D01*
X0176757Y0111217D02*
X0182702Y0111217D01*
X0182702Y0104484D01*
X0176757Y0104484D01*
X0176757Y0111217D01*
D15*
X0176443Y0115846D02*
X0175676Y0116614D01*
X0175676Y0118148D01*
X0174909Y0118916D01*
X0174141Y0118916D01*
X0173374Y0118148D01*
X0173374Y0116614D01*
X0174141Y0115846D01*
X0176443Y0115846D02*
X0177211Y0115846D01*
X0177978Y0116614D01*
X0177978Y0118148D01*
X0177211Y0118916D01*
X0177978Y0120450D02*
X0177978Y0121985D01*
X0177978Y0121218D02*
X0173374Y0121218D01*
X0173374Y0121985D02*
X0173374Y0120450D01*
X0173374Y0123520D02*
X0177978Y0123520D01*
X0176443Y0125054D01*
X0177978Y0126589D01*
X0173374Y0126589D01*
X0172607Y0128124D02*
X0172607Y0131193D01*
X0174141Y0132728D02*
X0173374Y0133495D01*
X0173374Y0135029D01*
X0174141Y0135797D01*
X0174909Y0135797D01*
X0175676Y0135029D01*
X0175676Y0132728D01*
X0174141Y0132728D01*
X0175676Y0132728D02*
X0177211Y0134262D01*
X0177978Y0135797D01*
X0172607Y0137331D02*
X0172607Y0140401D01*
X0173374Y0141935D02*
X0177978Y0141935D01*
X0176443Y0143470D01*
X0177978Y0145005D01*
X0173374Y0145005D01*
X0174141Y0146539D02*
X0173374Y0147307D01*
X0173374Y0148841D01*
X0174141Y0149609D01*
X0177211Y0149609D01*
X0177978Y0148841D01*
X0177978Y0147307D01*
X0177211Y0146539D01*
X0174141Y0146539D01*
X0173374Y0151143D02*
X0173374Y0153445D01*
X0174141Y0154213D01*
X0177211Y0154213D01*
X0177978Y0153445D01*
X0177978Y0151143D01*
X0173374Y0151143D01*
M02*
