G75*
%MOIN*%
%OFA0B0*%
%FSLAX25Y25*%
%IPPOS*%
%LPD*%
%AMOC8*
5,1,8,0,0,1.08239X$1,22.5*
%
%ADD10C,0.10925*%
%ADD11R,0.15591X0.15591*%
%ADD12C,0.06000*%
%ADD13C,0.08858*%
%ADD14C,0.03969*%
%ADD15C,0.05543*%
%ADD16R,0.02953X0.04921*%
%ADD17R,0.03937X0.04724*%
%ADD18OC8,0.03200*%
%ADD19C,0.01600*%
%ADD20C,0.03200*%
%ADD21OC8,0.04800*%
%ADD22C,0.02400*%
%ADD23OC8,0.03962*%
%ADD24OC8,0.04000*%
%ADD25R,0.03962X0.03962*%
D10*
X0064800Y0302642D03*
X0064800Y0354650D03*
D11*
X0064800Y0328646D03*
D12*
X0043300Y0176646D03*
X0226800Y0240646D03*
D13*
X0216800Y0250646D03*
X0216800Y0230646D03*
X0236800Y0230646D03*
X0236800Y0250646D03*
X0053300Y0186646D03*
X0053300Y0166646D03*
X0033300Y0166646D03*
X0033300Y0186646D03*
D14*
X0104481Y0308988D03*
X0112355Y0308988D03*
X0112355Y0330988D03*
X0104481Y0330988D03*
D15*
X0049241Y0249020D03*
X0049241Y0239020D03*
X0039241Y0244020D03*
X0039241Y0254059D03*
X0200351Y0209000D03*
X0200351Y0191283D03*
X0225942Y0191283D03*
X0225942Y0209000D03*
X0245351Y0209000D03*
X0245351Y0191283D03*
X0252946Y0175787D03*
X0270662Y0175787D03*
X0270942Y0191283D03*
X0270942Y0209000D03*
X0270662Y0150197D03*
X0271154Y0139594D03*
X0253438Y0139594D03*
X0252946Y0150197D03*
X0253438Y0114004D03*
X0271154Y0114004D03*
D16*
X0163095Y0150469D03*
X0158095Y0150469D03*
X0153095Y0150469D03*
X0148095Y0150469D03*
X0143095Y0150469D03*
X0138095Y0150469D03*
D17*
X0123450Y0107909D03*
X0179749Y0107870D03*
D18*
X0111300Y0130146D03*
X0125300Y0134646D03*
X0119800Y0154146D03*
X0119300Y0160146D03*
X0112300Y0158646D03*
X0142800Y0143146D03*
X0156800Y0140646D03*
X0163300Y0142646D03*
X0188300Y0124146D03*
X0214300Y0124146D03*
X0073800Y0212646D03*
X0063300Y0214646D03*
X0055300Y0216146D03*
X0060300Y0223646D03*
X0069800Y0223646D03*
X0068800Y0246646D03*
X0061300Y0246646D03*
X0069300Y0267646D03*
D19*
X0068300Y0268646D01*
X0046800Y0268646D01*
X0039300Y0261146D01*
X0039300Y0257146D01*
X0039241Y0257087D01*
X0039241Y0254059D01*
X0039241Y0244020D02*
X0051926Y0244020D01*
X0054300Y0241646D01*
X0054300Y0237146D01*
X0054302Y0237059D01*
X0054308Y0236972D01*
X0054317Y0236885D01*
X0054330Y0236799D01*
X0054347Y0236713D01*
X0054368Y0236628D01*
X0054393Y0236545D01*
X0054421Y0236462D01*
X0054452Y0236381D01*
X0054487Y0236301D01*
X0054526Y0236223D01*
X0054568Y0236146D01*
X0054613Y0236071D01*
X0054662Y0235999D01*
X0054713Y0235928D01*
X0054768Y0235860D01*
X0054825Y0235795D01*
X0054886Y0235732D01*
X0054949Y0235671D01*
X0055014Y0235614D01*
X0055082Y0235559D01*
X0055153Y0235508D01*
X0055225Y0235459D01*
X0055300Y0235414D01*
X0055377Y0235372D01*
X0055455Y0235333D01*
X0055535Y0235298D01*
X0055616Y0235267D01*
X0055699Y0235239D01*
X0055782Y0235214D01*
X0055867Y0235193D01*
X0055953Y0235176D01*
X0056039Y0235163D01*
X0056126Y0235154D01*
X0056213Y0235148D01*
X0056300Y0235146D01*
X0056426Y0235144D01*
X0056551Y0235138D01*
X0056676Y0235128D01*
X0056801Y0235114D01*
X0056926Y0235097D01*
X0057050Y0235075D01*
X0057173Y0235050D01*
X0057295Y0235020D01*
X0057416Y0234987D01*
X0057536Y0234950D01*
X0057655Y0234910D01*
X0057772Y0234865D01*
X0057889Y0234817D01*
X0058003Y0234765D01*
X0058116Y0234710D01*
X0058227Y0234651D01*
X0058336Y0234589D01*
X0058443Y0234523D01*
X0058548Y0234454D01*
X0058651Y0234382D01*
X0058752Y0234307D01*
X0058850Y0234228D01*
X0058945Y0234146D01*
X0059038Y0234062D01*
X0059128Y0233974D01*
X0059216Y0233884D01*
X0059300Y0233791D01*
X0059382Y0233696D01*
X0059461Y0233598D01*
X0059536Y0233497D01*
X0059608Y0233394D01*
X0059677Y0233289D01*
X0059743Y0233182D01*
X0059805Y0233073D01*
X0059864Y0232962D01*
X0059919Y0232849D01*
X0059971Y0232735D01*
X0060019Y0232618D01*
X0060064Y0232501D01*
X0060104Y0232382D01*
X0060141Y0232262D01*
X0060174Y0232141D01*
X0060204Y0232019D01*
X0060229Y0231896D01*
X0060251Y0231772D01*
X0060268Y0231647D01*
X0060282Y0231522D01*
X0060292Y0231397D01*
X0060298Y0231272D01*
X0060300Y0231146D01*
X0060300Y0223646D01*
X0069800Y0223646D01*
X0069800Y0216646D01*
X0073800Y0212646D01*
X0063300Y0214646D02*
X0061800Y0216146D01*
X0055300Y0216146D01*
X0055148Y0216148D01*
X0054996Y0216154D01*
X0054844Y0216163D01*
X0054693Y0216177D01*
X0054542Y0216194D01*
X0054391Y0216215D01*
X0054241Y0216240D01*
X0054092Y0216269D01*
X0053944Y0216301D01*
X0053796Y0216338D01*
X0053649Y0216377D01*
X0053504Y0216421D01*
X0053359Y0216469D01*
X0053216Y0216519D01*
X0053074Y0216574D01*
X0052934Y0216632D01*
X0052795Y0216694D01*
X0052658Y0216759D01*
X0052522Y0216828D01*
X0052388Y0216900D01*
X0052256Y0216975D01*
X0052126Y0217054D01*
X0051998Y0217136D01*
X0051872Y0217221D01*
X0051749Y0217310D01*
X0051627Y0217401D01*
X0051508Y0217496D01*
X0051392Y0217593D01*
X0051278Y0217694D01*
X0051166Y0217797D01*
X0051057Y0217903D01*
X0050951Y0218012D01*
X0050848Y0218124D01*
X0050747Y0218238D01*
X0050650Y0218354D01*
X0050555Y0218473D01*
X0050464Y0218595D01*
X0050375Y0218718D01*
X0050290Y0218844D01*
X0050208Y0218972D01*
X0050129Y0219102D01*
X0050054Y0219234D01*
X0049982Y0219368D01*
X0049913Y0219504D01*
X0049848Y0219641D01*
X0049786Y0219780D01*
X0049728Y0219920D01*
X0049673Y0220062D01*
X0049623Y0220205D01*
X0049575Y0220350D01*
X0049531Y0220495D01*
X0049492Y0220642D01*
X0049455Y0220790D01*
X0049423Y0220938D01*
X0049394Y0221087D01*
X0049369Y0221237D01*
X0049348Y0221388D01*
X0049331Y0221539D01*
X0049317Y0221690D01*
X0049308Y0221842D01*
X0049302Y0221994D01*
X0049300Y0222146D01*
X0049300Y0238961D01*
X0049299Y0238974D01*
X0049294Y0238987D01*
X0049287Y0238998D01*
X0049278Y0239007D01*
X0049267Y0239014D01*
X0049254Y0239019D01*
X0049241Y0239020D01*
X0049241Y0249020D02*
X0058926Y0249020D01*
X0061300Y0246646D01*
X0068800Y0246646D01*
X0062300Y0193146D02*
X0084300Y0193146D01*
X0089300Y0188146D01*
X0089300Y0183646D01*
X0091300Y0181646D01*
X0103800Y0181646D01*
X0103800Y0175146D01*
X0088300Y0175146D01*
X0083300Y0170146D01*
X0060800Y0170146D01*
X0059086Y0168432D01*
X0058411Y0170061D01*
X0056715Y0171757D01*
X0054499Y0172675D01*
X0052101Y0172675D01*
X0049885Y0171757D01*
X0048189Y0170061D01*
X0047271Y0167845D01*
X0047271Y0165646D01*
X0039329Y0165646D01*
X0039329Y0167845D01*
X0038411Y0170061D01*
X0036715Y0171757D01*
X0034499Y0172675D01*
X0032300Y0172675D01*
X0032300Y0180617D01*
X0034499Y0180617D01*
X0036715Y0181534D01*
X0038411Y0183230D01*
X0039329Y0185446D01*
X0039329Y0187845D01*
X0039205Y0188146D01*
X0047395Y0188146D01*
X0047271Y0187845D01*
X0047271Y0185446D01*
X0048189Y0183230D01*
X0049885Y0181534D01*
X0052101Y0180617D01*
X0054499Y0180617D01*
X0056715Y0181534D01*
X0058411Y0183230D01*
X0059329Y0185446D01*
X0059329Y0187845D01*
X0059086Y0188432D01*
X0060300Y0189646D01*
X0060300Y0191146D01*
X0062300Y0193146D01*
X0061380Y0192225D02*
X0085220Y0192225D01*
X0086819Y0190627D02*
X0060300Y0190627D01*
X0059683Y0189028D02*
X0088417Y0189028D01*
X0089300Y0187430D02*
X0059329Y0187430D01*
X0059329Y0185831D02*
X0089300Y0185831D01*
X0089300Y0184233D02*
X0058826Y0184233D01*
X0057815Y0182634D02*
X0090311Y0182634D01*
X0087796Y0174642D02*
X0047449Y0174642D01*
X0047200Y0174040D02*
X0047900Y0175731D01*
X0047900Y0177561D01*
X0047200Y0179251D01*
X0045906Y0180545D01*
X0044215Y0181246D01*
X0042385Y0181246D01*
X0040694Y0180545D01*
X0039400Y0179251D01*
X0038700Y0177561D01*
X0038700Y0175731D01*
X0039400Y0174040D01*
X0040694Y0172746D01*
X0042385Y0172046D01*
X0044215Y0172046D01*
X0045906Y0172746D01*
X0047200Y0174040D01*
X0046203Y0173043D02*
X0086198Y0173043D01*
X0084599Y0171445D02*
X0057027Y0171445D01*
X0058500Y0169846D02*
X0060501Y0169846D01*
X0055511Y0181036D02*
X0103800Y0181036D01*
X0103800Y0179437D02*
X0047014Y0179437D01*
X0047785Y0177839D02*
X0103800Y0177839D01*
X0103800Y0176240D02*
X0047900Y0176240D01*
X0049573Y0171445D02*
X0037027Y0171445D01*
X0038500Y0169846D02*
X0048100Y0169846D01*
X0047438Y0168248D02*
X0039162Y0168248D01*
X0039329Y0166649D02*
X0047271Y0166649D01*
X0040397Y0173043D02*
X0032300Y0173043D01*
X0032300Y0174642D02*
X0039151Y0174642D01*
X0038700Y0176240D02*
X0032300Y0176240D01*
X0032300Y0177839D02*
X0038815Y0177839D01*
X0039586Y0179437D02*
X0032300Y0179437D01*
X0035511Y0181036D02*
X0041878Y0181036D01*
X0044722Y0181036D02*
X0051089Y0181036D01*
X0048785Y0182634D02*
X0037815Y0182634D01*
X0038826Y0184233D02*
X0047774Y0184233D01*
X0047271Y0185831D02*
X0039329Y0185831D01*
X0039329Y0187430D02*
X0047271Y0187430D01*
X0112300Y0158646D02*
X0117800Y0158646D01*
X0119300Y0160146D01*
X0119800Y0154146D02*
X0129300Y0154146D01*
X0132800Y0150646D01*
X0137918Y0150646D01*
X0138095Y0150469D01*
X0138095Y0136941D01*
X0135800Y0134646D01*
X0125300Y0134646D01*
X0114800Y0126646D02*
X0114683Y0126648D01*
X0114566Y0126654D01*
X0114450Y0126664D01*
X0114333Y0126677D01*
X0114218Y0126695D01*
X0114103Y0126716D01*
X0113989Y0126741D01*
X0113875Y0126770D01*
X0113763Y0126803D01*
X0113652Y0126840D01*
X0113542Y0126880D01*
X0113434Y0126924D01*
X0113327Y0126971D01*
X0113221Y0127022D01*
X0113118Y0127077D01*
X0113016Y0127135D01*
X0112917Y0127196D01*
X0112819Y0127260D01*
X0112724Y0127328D01*
X0112631Y0127399D01*
X0112540Y0127473D01*
X0112452Y0127550D01*
X0112367Y0127630D01*
X0112284Y0127713D01*
X0112204Y0127798D01*
X0112127Y0127886D01*
X0112053Y0127977D01*
X0111982Y0128070D01*
X0111914Y0128165D01*
X0111850Y0128263D01*
X0111789Y0128362D01*
X0111731Y0128464D01*
X0111676Y0128567D01*
X0111625Y0128673D01*
X0111578Y0128780D01*
X0111534Y0128888D01*
X0111494Y0128998D01*
X0111457Y0129109D01*
X0111424Y0129221D01*
X0111395Y0129335D01*
X0111370Y0129449D01*
X0111349Y0129564D01*
X0111331Y0129679D01*
X0111318Y0129796D01*
X0111308Y0129912D01*
X0111302Y0130029D01*
X0111300Y0130146D01*
X0114800Y0126646D02*
X0142800Y0126646D01*
X0142943Y0126648D01*
X0143087Y0126654D01*
X0143230Y0126663D01*
X0143372Y0126677D01*
X0143515Y0126694D01*
X0143657Y0126716D01*
X0143798Y0126741D01*
X0143938Y0126770D01*
X0144078Y0126803D01*
X0144217Y0126839D01*
X0144354Y0126879D01*
X0144491Y0126923D01*
X0144626Y0126971D01*
X0144760Y0127022D01*
X0144892Y0127077D01*
X0145023Y0127135D01*
X0145153Y0127197D01*
X0145280Y0127263D01*
X0145406Y0127332D01*
X0145530Y0127404D01*
X0145652Y0127480D01*
X0145771Y0127558D01*
X0145889Y0127640D01*
X0146004Y0127726D01*
X0146117Y0127814D01*
X0146228Y0127905D01*
X0146336Y0128000D01*
X0146441Y0128097D01*
X0146544Y0128197D01*
X0146644Y0128300D01*
X0146741Y0128405D01*
X0146836Y0128513D01*
X0146927Y0128624D01*
X0147015Y0128737D01*
X0147101Y0128852D01*
X0147183Y0128970D01*
X0147261Y0129089D01*
X0147337Y0129211D01*
X0147409Y0129335D01*
X0147478Y0129461D01*
X0147544Y0129588D01*
X0147606Y0129718D01*
X0147664Y0129849D01*
X0147719Y0129981D01*
X0147770Y0130115D01*
X0147818Y0130250D01*
X0147862Y0130387D01*
X0147902Y0130524D01*
X0147938Y0130663D01*
X0147971Y0130803D01*
X0148000Y0130943D01*
X0148025Y0131084D01*
X0148047Y0131226D01*
X0148064Y0131369D01*
X0148078Y0131511D01*
X0148087Y0131654D01*
X0148093Y0131798D01*
X0148095Y0131941D01*
X0148095Y0150469D01*
X0143095Y0150469D02*
X0142800Y0150173D01*
X0142800Y0143146D01*
X0153300Y0145646D02*
X0153300Y0150264D01*
X0153095Y0150469D01*
X0153300Y0145646D02*
X0156800Y0142146D01*
X0156800Y0140646D01*
X0163300Y0142646D02*
X0163300Y0150469D01*
X0163095Y0150469D01*
X0188300Y0124146D02*
X0214300Y0124146D01*
X0270662Y0175787D02*
X0270693Y0175789D01*
X0270724Y0175794D01*
X0270754Y0175803D01*
X0270783Y0175815D01*
X0270811Y0175830D01*
X0270837Y0175848D01*
X0270860Y0175869D01*
X0270881Y0175892D01*
X0270899Y0175918D01*
X0270914Y0175946D01*
X0270926Y0175975D01*
X0270935Y0176005D01*
X0270940Y0176036D01*
X0270942Y0176067D01*
X0230895Y0229146D02*
X0222705Y0229146D01*
X0222829Y0229446D01*
X0222829Y0231845D01*
X0221911Y0234061D01*
X0220215Y0235757D01*
X0217999Y0236675D01*
X0215601Y0236675D01*
X0213385Y0235757D01*
X0211689Y0234061D01*
X0210771Y0231845D01*
X0210771Y0229446D01*
X0210895Y0229146D01*
X0193300Y0229146D01*
X0186800Y0222646D01*
X0156300Y0222646D01*
X0156300Y0233146D01*
X0169300Y0233146D01*
X0172300Y0236146D01*
X0172300Y0245646D01*
X0176300Y0249646D01*
X0176300Y0252146D01*
X0179800Y0255646D01*
X0203300Y0255646D01*
X0206800Y0252146D01*
X0210895Y0252146D01*
X0210771Y0251845D01*
X0210771Y0249446D01*
X0211689Y0247230D01*
X0213385Y0245534D01*
X0215601Y0244617D01*
X0217999Y0244617D01*
X0220215Y0245534D01*
X0221911Y0247230D01*
X0222829Y0249446D01*
X0222829Y0251845D01*
X0222705Y0252146D01*
X0230895Y0252146D01*
X0230771Y0251845D01*
X0230771Y0249446D01*
X0231689Y0247230D01*
X0233385Y0245534D01*
X0235601Y0244617D01*
X0237999Y0244617D01*
X0238300Y0244741D01*
X0238300Y0236550D01*
X0237999Y0236675D01*
X0235601Y0236675D01*
X0233385Y0235757D01*
X0231689Y0234061D01*
X0230771Y0231845D01*
X0230771Y0229446D01*
X0230895Y0229146D01*
X0230771Y0230590D02*
X0222829Y0230590D01*
X0222687Y0232188D02*
X0230913Y0232188D01*
X0231575Y0233787D02*
X0222025Y0233787D01*
X0220587Y0235385D02*
X0233013Y0235385D01*
X0230700Y0238040D02*
X0231400Y0239731D01*
X0231400Y0241561D01*
X0230700Y0243251D01*
X0229406Y0244545D01*
X0227715Y0245246D01*
X0225885Y0245246D01*
X0224194Y0244545D01*
X0222900Y0243251D01*
X0222200Y0241561D01*
X0222200Y0239731D01*
X0222900Y0238040D01*
X0224194Y0236746D01*
X0225885Y0236046D01*
X0227715Y0236046D01*
X0229406Y0236746D01*
X0230700Y0238040D01*
X0230924Y0238582D02*
X0238300Y0238582D01*
X0238300Y0236984D02*
X0229643Y0236984D01*
X0231400Y0240181D02*
X0238300Y0240181D01*
X0238300Y0241779D02*
X0231309Y0241779D01*
X0230573Y0243378D02*
X0238300Y0243378D01*
X0234732Y0244976D02*
X0228365Y0244976D01*
X0225235Y0244976D02*
X0218868Y0244976D01*
X0221256Y0246575D02*
X0232344Y0246575D01*
X0231298Y0248173D02*
X0222302Y0248173D01*
X0222829Y0249772D02*
X0230771Y0249772D01*
X0230771Y0251370D02*
X0222829Y0251370D01*
X0223027Y0243378D02*
X0172300Y0243378D01*
X0172300Y0244976D02*
X0214732Y0244976D01*
X0212344Y0246575D02*
X0173229Y0246575D01*
X0174828Y0248173D02*
X0211298Y0248173D01*
X0210771Y0249772D02*
X0176300Y0249772D01*
X0176300Y0251370D02*
X0210771Y0251370D01*
X0205977Y0252969D02*
X0177123Y0252969D01*
X0178722Y0254567D02*
X0204378Y0254567D01*
X0213013Y0235385D02*
X0171539Y0235385D01*
X0172300Y0236984D02*
X0223957Y0236984D01*
X0222676Y0238582D02*
X0172300Y0238582D01*
X0172300Y0240181D02*
X0222200Y0240181D01*
X0222291Y0241779D02*
X0172300Y0241779D01*
X0169941Y0233787D02*
X0211575Y0233787D01*
X0210913Y0232188D02*
X0156300Y0232188D01*
X0156300Y0230590D02*
X0210771Y0230590D01*
X0193145Y0228991D02*
X0156300Y0228991D01*
X0156300Y0227393D02*
X0191547Y0227393D01*
X0189948Y0225794D02*
X0156300Y0225794D01*
X0156300Y0224196D02*
X0188350Y0224196D01*
D20*
X0172800Y0263146D02*
X0121300Y0263146D01*
X0128300Y0255146D02*
X0137800Y0255146D01*
X0128300Y0255146D02*
X0125300Y0252146D01*
X0104800Y0294146D02*
X0104800Y0308669D01*
X0104481Y0308988D01*
X0104481Y0330988D01*
X0067143Y0330988D01*
X0064800Y0328646D01*
X0048300Y0314646D02*
X0048300Y0345146D01*
X0057804Y0354650D01*
X0064800Y0354650D01*
X0048300Y0314646D02*
X0060304Y0302642D01*
X0064800Y0302642D01*
X0065300Y0302142D01*
X0065300Y0293646D01*
X0112355Y0334091D02*
X0112353Y0334298D01*
X0112345Y0334504D01*
X0112333Y0334711D01*
X0112315Y0334917D01*
X0112293Y0335122D01*
X0112265Y0335327D01*
X0112233Y0335531D01*
X0112196Y0335735D01*
X0112153Y0335937D01*
X0112106Y0336138D01*
X0112055Y0336338D01*
X0111998Y0336537D01*
X0111936Y0336735D01*
X0111870Y0336930D01*
X0111799Y0337125D01*
X0111723Y0337317D01*
X0111643Y0337508D01*
X0111558Y0337696D01*
X0111469Y0337883D01*
X0111375Y0338067D01*
X0111277Y0338249D01*
X0111174Y0338428D01*
X0111067Y0338605D01*
X0110956Y0338779D01*
X0110841Y0338951D01*
X0110721Y0339120D01*
X0110598Y0339285D01*
X0110470Y0339448D01*
X0110339Y0339608D01*
X0110204Y0339764D01*
X0110065Y0339917D01*
X0109922Y0340067D01*
X0109776Y0340213D01*
X0109626Y0340356D01*
X0109473Y0340495D01*
X0109317Y0340630D01*
X0109157Y0340761D01*
X0108994Y0340889D01*
X0108829Y0341012D01*
X0108660Y0341132D01*
X0108488Y0341247D01*
X0108314Y0341358D01*
X0108137Y0341465D01*
X0107958Y0341568D01*
X0107776Y0341666D01*
X0107592Y0341760D01*
X0107405Y0341849D01*
X0107217Y0341934D01*
X0107026Y0342014D01*
X0106834Y0342090D01*
X0106639Y0342161D01*
X0106444Y0342227D01*
X0106246Y0342289D01*
X0106047Y0342346D01*
X0105847Y0342397D01*
X0105646Y0342444D01*
X0105444Y0342487D01*
X0105240Y0342524D01*
X0105036Y0342556D01*
X0104831Y0342584D01*
X0104626Y0342606D01*
X0104420Y0342624D01*
X0104213Y0342636D01*
X0104007Y0342644D01*
X0103800Y0342646D01*
X0112355Y0334091D02*
X0112355Y0330988D01*
X0112355Y0308988D01*
X0172800Y0263146D02*
X0172940Y0263148D01*
X0173080Y0263154D01*
X0173220Y0263164D01*
X0173360Y0263177D01*
X0173499Y0263195D01*
X0173638Y0263217D01*
X0173775Y0263242D01*
X0173913Y0263271D01*
X0174049Y0263304D01*
X0174184Y0263341D01*
X0174318Y0263382D01*
X0174451Y0263427D01*
X0174583Y0263475D01*
X0174713Y0263527D01*
X0174842Y0263582D01*
X0174969Y0263641D01*
X0175095Y0263704D01*
X0175219Y0263770D01*
X0175340Y0263839D01*
X0175460Y0263912D01*
X0175578Y0263989D01*
X0175693Y0264068D01*
X0175807Y0264151D01*
X0175917Y0264237D01*
X0176026Y0264326D01*
X0176132Y0264418D01*
X0176235Y0264513D01*
X0176336Y0264610D01*
X0176433Y0264711D01*
X0176528Y0264814D01*
X0176620Y0264920D01*
X0176709Y0265029D01*
X0176795Y0265139D01*
X0176878Y0265253D01*
X0176957Y0265368D01*
X0177034Y0265486D01*
X0177107Y0265606D01*
X0177176Y0265727D01*
X0177242Y0265851D01*
X0177305Y0265977D01*
X0177364Y0266104D01*
X0177419Y0266233D01*
X0177471Y0266363D01*
X0177519Y0266495D01*
X0177564Y0266628D01*
X0177605Y0266762D01*
X0177642Y0266897D01*
X0177675Y0267033D01*
X0177704Y0267171D01*
X0177729Y0267308D01*
X0177751Y0267447D01*
X0177769Y0267586D01*
X0177782Y0267726D01*
X0177792Y0267866D01*
X0177798Y0268006D01*
X0177800Y0268146D01*
X0181300Y0183146D02*
X0187800Y0183146D01*
X0181300Y0183146D02*
X0181167Y0183144D01*
X0181033Y0183138D01*
X0180900Y0183128D01*
X0180768Y0183114D01*
X0180636Y0183097D01*
X0180504Y0183075D01*
X0180373Y0183050D01*
X0180243Y0183020D01*
X0180114Y0182987D01*
X0179986Y0182950D01*
X0179859Y0182909D01*
X0179733Y0182864D01*
X0179609Y0182816D01*
X0179486Y0182764D01*
X0179365Y0182709D01*
X0179245Y0182649D01*
X0179127Y0182587D01*
X0179012Y0182521D01*
X0178898Y0182451D01*
X0178786Y0182378D01*
X0178677Y0182302D01*
X0178569Y0182223D01*
X0178465Y0182140D01*
X0178362Y0182055D01*
X0178263Y0181966D01*
X0178166Y0181875D01*
X0178071Y0181780D01*
X0177980Y0181683D01*
X0177891Y0181584D01*
X0177806Y0181481D01*
X0177723Y0181377D01*
X0177644Y0181269D01*
X0177568Y0181160D01*
X0177495Y0181048D01*
X0177425Y0180934D01*
X0177359Y0180819D01*
X0177297Y0180701D01*
X0177237Y0180581D01*
X0177182Y0180460D01*
X0177130Y0180337D01*
X0177082Y0180213D01*
X0177037Y0180087D01*
X0176996Y0179960D01*
X0176959Y0179832D01*
X0176926Y0179703D01*
X0176896Y0179573D01*
X0176871Y0179442D01*
X0176849Y0179310D01*
X0176832Y0179178D01*
X0176818Y0179046D01*
X0176808Y0178913D01*
X0176802Y0178779D01*
X0176800Y0178646D01*
X0176800Y0166646D01*
X0176798Y0166465D01*
X0176791Y0166284D01*
X0176780Y0166103D01*
X0176765Y0165922D01*
X0176745Y0165742D01*
X0176721Y0165562D01*
X0176693Y0165383D01*
X0176660Y0165205D01*
X0176623Y0165028D01*
X0176582Y0164851D01*
X0176537Y0164676D01*
X0176487Y0164501D01*
X0176433Y0164328D01*
X0176375Y0164157D01*
X0176313Y0163986D01*
X0176246Y0163818D01*
X0176176Y0163651D01*
X0176102Y0163485D01*
X0176023Y0163322D01*
X0175941Y0163161D01*
X0175855Y0163001D01*
X0175765Y0162844D01*
X0175671Y0162689D01*
X0175574Y0162536D01*
X0175472Y0162386D01*
X0175368Y0162238D01*
X0175259Y0162092D01*
X0175148Y0161950D01*
X0175032Y0161810D01*
X0174914Y0161673D01*
X0174792Y0161538D01*
X0174667Y0161407D01*
X0174539Y0161279D01*
X0174408Y0161154D01*
X0174273Y0161032D01*
X0174136Y0160914D01*
X0173996Y0160798D01*
X0173854Y0160687D01*
X0173708Y0160578D01*
X0173560Y0160474D01*
X0173410Y0160372D01*
X0173257Y0160275D01*
X0173102Y0160181D01*
X0172945Y0160091D01*
X0172785Y0160005D01*
X0172624Y0159923D01*
X0172461Y0159844D01*
X0172295Y0159770D01*
X0172128Y0159700D01*
X0171960Y0159633D01*
X0171789Y0159571D01*
X0171618Y0159513D01*
X0171445Y0159459D01*
X0171270Y0159409D01*
X0171095Y0159364D01*
X0170918Y0159323D01*
X0170741Y0159286D01*
X0170563Y0159253D01*
X0170384Y0159225D01*
X0170204Y0159201D01*
X0170024Y0159181D01*
X0169843Y0159166D01*
X0169662Y0159155D01*
X0169481Y0159148D01*
X0169300Y0159146D01*
X0162300Y0159146D01*
X0178800Y0147646D02*
X0198300Y0147646D01*
X0247800Y0114146D02*
X0253296Y0114146D01*
X0253318Y0114144D01*
X0253340Y0114139D01*
X0253360Y0114131D01*
X0253379Y0114119D01*
X0253396Y0114104D01*
X0253411Y0114087D01*
X0253423Y0114068D01*
X0253431Y0114048D01*
X0253436Y0114026D01*
X0253438Y0114004D01*
D21*
X0247800Y0114146D03*
X0198300Y0147646D03*
X0178800Y0147646D03*
X0162300Y0159146D03*
X0187800Y0183146D03*
X0137800Y0255146D03*
X0125300Y0252146D03*
X0121300Y0263146D03*
X0177800Y0268146D03*
X0065300Y0293646D03*
D22*
X0150300Y0311646D02*
X0150300Y0338646D01*
X0227300Y0279646D02*
X0248300Y0279646D01*
X0248856Y0279639D01*
X0249411Y0279619D01*
X0249966Y0279586D01*
X0250520Y0279539D01*
X0251072Y0279478D01*
X0251623Y0279405D01*
X0252172Y0279318D01*
X0252719Y0279218D01*
X0253263Y0279104D01*
X0253804Y0278978D01*
X0254342Y0278838D01*
X0254877Y0278686D01*
X0255407Y0278520D01*
X0255934Y0278342D01*
X0256456Y0278151D01*
X0256973Y0277948D01*
X0257485Y0277732D01*
X0257992Y0277504D01*
X0258493Y0277264D01*
X0258989Y0277011D01*
X0259478Y0276747D01*
X0259960Y0276471D01*
X0260436Y0276184D01*
X0260904Y0275885D01*
X0261365Y0275575D01*
X0261819Y0275253D01*
X0262265Y0274921D01*
X0262702Y0274579D01*
X0263131Y0274225D01*
X0263552Y0273862D01*
X0263963Y0273488D01*
X0264366Y0273105D01*
X0264759Y0272712D01*
X0265142Y0272309D01*
X0265516Y0271898D01*
X0265879Y0271477D01*
X0266233Y0271048D01*
X0266575Y0270611D01*
X0266907Y0270165D01*
X0267229Y0269711D01*
X0267539Y0269250D01*
X0267838Y0268782D01*
X0268125Y0268306D01*
X0268401Y0267824D01*
X0268665Y0267335D01*
X0268918Y0266839D01*
X0269158Y0266338D01*
X0269386Y0265831D01*
X0269602Y0265319D01*
X0269805Y0264802D01*
X0269996Y0264280D01*
X0270174Y0263753D01*
X0270340Y0263223D01*
X0270492Y0262688D01*
X0270632Y0262150D01*
X0270758Y0261609D01*
X0270872Y0261065D01*
X0270972Y0260518D01*
X0271059Y0259969D01*
X0271132Y0259418D01*
X0271193Y0258866D01*
X0271240Y0258312D01*
X0271273Y0257757D01*
X0271293Y0257202D01*
X0271300Y0256646D01*
X0271300Y0233146D01*
X0264296Y0214146D02*
X0252300Y0214146D01*
X0231087Y0214146D01*
X0230945Y0214144D01*
X0230804Y0214138D01*
X0230662Y0214128D01*
X0230521Y0214115D01*
X0230380Y0214097D01*
X0230240Y0214076D01*
X0230100Y0214051D01*
X0229962Y0214021D01*
X0229824Y0213989D01*
X0229687Y0213952D01*
X0229551Y0213911D01*
X0229416Y0213867D01*
X0229283Y0213819D01*
X0229151Y0213768D01*
X0229020Y0213713D01*
X0228891Y0213654D01*
X0228763Y0213592D01*
X0228638Y0213526D01*
X0228514Y0213457D01*
X0228392Y0213384D01*
X0228272Y0213308D01*
X0228155Y0213229D01*
X0228039Y0213146D01*
X0227926Y0213061D01*
X0227816Y0212972D01*
X0227707Y0212881D01*
X0227602Y0212786D01*
X0227499Y0212689D01*
X0227398Y0212588D01*
X0227301Y0212485D01*
X0227206Y0212380D01*
X0227115Y0212271D01*
X0227026Y0212161D01*
X0226941Y0212048D01*
X0226858Y0211932D01*
X0226779Y0211815D01*
X0226703Y0211695D01*
X0226630Y0211573D01*
X0226561Y0211449D01*
X0226495Y0211324D01*
X0226433Y0211196D01*
X0226374Y0211067D01*
X0226319Y0210936D01*
X0226268Y0210804D01*
X0226220Y0210671D01*
X0226176Y0210536D01*
X0226135Y0210400D01*
X0226098Y0210263D01*
X0226066Y0210125D01*
X0226036Y0209987D01*
X0226011Y0209847D01*
X0225990Y0209707D01*
X0225972Y0209566D01*
X0225959Y0209425D01*
X0225949Y0209283D01*
X0225943Y0209142D01*
X0225941Y0209000D01*
X0225942Y0209000D02*
X0225942Y0191283D01*
X0235800Y0202646D02*
X0238997Y0202646D01*
X0245351Y0209000D01*
X0245351Y0191283D01*
X0252946Y0175787D02*
X0276658Y0175787D01*
X0277800Y0174646D01*
X0277800Y0135646D01*
X0271154Y0129000D01*
X0271154Y0114004D01*
X0253438Y0114004D01*
X0253438Y0139594D02*
X0259300Y0145457D01*
X0259300Y0146146D01*
X0252946Y0150197D02*
X0270662Y0150197D01*
X0270800Y0150335D01*
X0270800Y0161146D01*
X0270662Y0175787D02*
X0252946Y0175787D01*
X0270942Y0176067D02*
X0270942Y0191283D01*
X0270942Y0209000D01*
X0270941Y0209000D02*
X0270920Y0209152D01*
X0270895Y0209302D01*
X0270866Y0209453D01*
X0270833Y0209602D01*
X0270796Y0209751D01*
X0270756Y0209898D01*
X0270712Y0210045D01*
X0270663Y0210190D01*
X0270612Y0210334D01*
X0270556Y0210477D01*
X0270497Y0210618D01*
X0270434Y0210757D01*
X0270368Y0210895D01*
X0270298Y0211031D01*
X0270225Y0211166D01*
X0270148Y0211298D01*
X0270068Y0211428D01*
X0269984Y0211557D01*
X0269897Y0211683D01*
X0269807Y0211807D01*
X0269714Y0211928D01*
X0269618Y0212047D01*
X0269519Y0212163D01*
X0269416Y0212277D01*
X0269311Y0212388D01*
X0269203Y0212497D01*
X0269093Y0212603D01*
X0268979Y0212705D01*
X0268863Y0212805D01*
X0268745Y0212902D01*
X0268624Y0212996D01*
X0268500Y0213086D01*
X0268375Y0213173D01*
X0268247Y0213257D01*
X0268117Y0213338D01*
X0267985Y0213416D01*
X0267851Y0213490D01*
X0267715Y0213560D01*
X0267577Y0213627D01*
X0267438Y0213690D01*
X0267297Y0213750D01*
X0267155Y0213806D01*
X0267011Y0213859D01*
X0266866Y0213907D01*
X0266720Y0213952D01*
X0266572Y0213994D01*
X0266424Y0214031D01*
X0266275Y0214065D01*
X0266124Y0214094D01*
X0265974Y0214120D01*
X0265822Y0214142D01*
X0265670Y0214160D01*
X0265518Y0214174D01*
X0265365Y0214184D01*
X0265212Y0214191D01*
X0265059Y0214193D01*
X0264906Y0214191D01*
X0264753Y0214186D01*
X0264601Y0214176D01*
X0264448Y0214163D01*
X0264296Y0214145D01*
X0252300Y0214146D02*
X0252759Y0214152D01*
X0253218Y0214168D01*
X0253676Y0214196D01*
X0254134Y0214235D01*
X0254590Y0214285D01*
X0255045Y0214345D01*
X0255499Y0214417D01*
X0255950Y0214500D01*
X0256400Y0214594D01*
X0256847Y0214698D01*
X0257291Y0214813D01*
X0257733Y0214939D01*
X0258171Y0215076D01*
X0258606Y0215223D01*
X0259037Y0215381D01*
X0259465Y0215549D01*
X0259888Y0215727D01*
X0260307Y0215915D01*
X0260721Y0216114D01*
X0261130Y0216322D01*
X0261534Y0216541D01*
X0261932Y0216769D01*
X0262325Y0217006D01*
X0262712Y0217253D01*
X0263093Y0217509D01*
X0263468Y0217775D01*
X0263836Y0218049D01*
X0264198Y0218332D01*
X0264552Y0218624D01*
X0264899Y0218924D01*
X0265239Y0219233D01*
X0265572Y0219550D01*
X0265896Y0219874D01*
X0266213Y0220207D01*
X0266522Y0220547D01*
X0266822Y0220894D01*
X0267114Y0221248D01*
X0267397Y0221610D01*
X0267671Y0221978D01*
X0267937Y0222353D01*
X0268193Y0222734D01*
X0268440Y0223121D01*
X0268677Y0223514D01*
X0268905Y0223912D01*
X0269124Y0224316D01*
X0269332Y0224725D01*
X0269531Y0225139D01*
X0269719Y0225558D01*
X0269897Y0225981D01*
X0270065Y0226409D01*
X0270223Y0226840D01*
X0270370Y0227275D01*
X0270507Y0227713D01*
X0270633Y0228155D01*
X0270748Y0228599D01*
X0270852Y0229046D01*
X0270946Y0229496D01*
X0271029Y0229947D01*
X0271101Y0230401D01*
X0271161Y0230856D01*
X0271211Y0231312D01*
X0271250Y0231770D01*
X0271278Y0232228D01*
X0271294Y0232687D01*
X0271300Y0233146D01*
X0200351Y0209000D02*
X0200351Y0191283D01*
X0200351Y0209000D02*
X0200206Y0209146D01*
X0192800Y0209146D01*
X0222800Y0149146D02*
X0223005Y0149144D01*
X0223211Y0149136D01*
X0223416Y0149124D01*
X0223620Y0149106D01*
X0223825Y0149084D01*
X0224028Y0149057D01*
X0224231Y0149025D01*
X0224433Y0148988D01*
X0224634Y0148946D01*
X0224834Y0148899D01*
X0225033Y0148847D01*
X0225231Y0148791D01*
X0225427Y0148730D01*
X0225621Y0148664D01*
X0225814Y0148594D01*
X0226005Y0148518D01*
X0226195Y0148439D01*
X0226382Y0148354D01*
X0226567Y0148266D01*
X0226750Y0148172D01*
X0226931Y0148075D01*
X0227109Y0147973D01*
X0227285Y0147866D01*
X0227458Y0147756D01*
X0227629Y0147641D01*
X0227796Y0147523D01*
X0227961Y0147400D01*
X0228123Y0147273D01*
X0228281Y0147143D01*
X0228437Y0147008D01*
X0228589Y0146870D01*
X0228737Y0146729D01*
X0228883Y0146583D01*
X0229024Y0146435D01*
X0229162Y0146283D01*
X0229297Y0146127D01*
X0229427Y0145969D01*
X0229554Y0145807D01*
X0229677Y0145642D01*
X0229795Y0145475D01*
X0229910Y0145304D01*
X0230020Y0145131D01*
X0230127Y0144955D01*
X0230229Y0144777D01*
X0230326Y0144596D01*
X0230420Y0144413D01*
X0230508Y0144228D01*
X0230593Y0144041D01*
X0230672Y0143851D01*
X0230748Y0143660D01*
X0230818Y0143467D01*
X0230884Y0143273D01*
X0230945Y0143077D01*
X0231001Y0142879D01*
X0231053Y0142680D01*
X0231100Y0142480D01*
X0231142Y0142279D01*
X0231179Y0142077D01*
X0231211Y0141874D01*
X0231238Y0141671D01*
X0231260Y0141466D01*
X0231278Y0141262D01*
X0231290Y0141057D01*
X0231298Y0140851D01*
X0231300Y0140646D01*
X0231300Y0133646D01*
X0253438Y0139594D02*
X0271154Y0139594D01*
D23*
X0227300Y0279646D03*
X0104800Y0294146D03*
X0103800Y0342646D03*
D24*
X0150300Y0338646D03*
X0150300Y0311646D03*
X0192800Y0209146D03*
X0235800Y0202646D03*
X0222800Y0149146D03*
X0231300Y0133646D03*
X0259300Y0146146D03*
D25*
X0270800Y0161146D03*
M02*
