%
M48
M72
T01C0.01600
T02C0.01969
T03C0.02362
T04C0.02400
T05C0.03200
T06C0.03543
T07C0.04000
T08C0.05906
T09C0.07283
T10C0.07874
T11C0.12598
%
T01
X111300Y130146
X125300Y134646
X119800Y154146
X119300Y160146
X112300Y158646
X142800Y143146
X156800Y140646
X163300Y142646
X188300Y124146
X214300Y124146
X73800Y212646
X63300Y214646
X55300Y216146
X60300Y223646
X69800Y223646
X68800Y246646
X61300Y246646
X69300Y267646
T02
X104481Y308988
X112355Y308988
X112355Y330988
X104481Y330988
T03
X103800Y342646
X104800Y294146
X227300Y279646
X270800Y161146
T04
X259300Y146146
X231300Y133646
X222800Y149146
X235800Y202646
X192800Y209146
X150300Y311646
X150300Y338646
T05
X177800Y268146
X137800Y255146
X125300Y252146
X121300Y263146
X65300Y293646
X162300Y159146
X178800Y147646
X198300Y147646
X187800Y183146
X247800Y114146
T06
X253438Y114004
X271154Y114004
X271154Y139594
X270662Y150197
X252946Y150197
X253438Y139594
X252946Y175787
X245351Y191283
X245351Y209000
X225942Y209000
X225942Y191283
X200351Y191283
X200351Y209000
X270942Y209000
X270942Y191283
X270662Y175787
X49241Y239020
X49241Y249020
X39241Y244020
X39241Y254059
T07
X43300Y176646
X226800Y240646
T08
X216800Y250646
X216800Y230646
X236800Y230646
X236800Y250646
X53300Y186646
X53300Y166646
X33300Y166646
X33300Y186646
T09
X64800Y302642
X64800Y354650
T10
X262800Y103646
T11
X19300Y112146
X14241Y231539
X14241Y261539
X19300Y352646
X269800Y356146
M30
