G75*
%MOIN*%
%OFA0B0*%
%FSLAX25Y25*%
%IPPOS*%
%LPD*%
%AMOC8*
5,1,8,0,0,1.08239X$1,22.5*
%
%ADD10R,0.04134X0.04252*%
%ADD11R,0.04252X0.04134*%
%ADD12R,0.13780X0.09843*%
%ADD13R,0.06299X0.08661*%
%ADD14R,0.08661X0.06299*%
%ADD15R,0.08268X0.05906*%
%ADD16C,0.10925*%
%ADD17C,0.06000*%
%ADD18C,0.08858*%
%ADD19R,0.06299X0.07098*%
%ADD20C,0.03969*%
%ADD21R,0.03937X0.05512*%
%ADD22R,0.05512X0.07087*%
%ADD23R,0.09449X0.09843*%
%ADD24R,0.07087X0.05512*%
%ADD25R,0.09843X0.09449*%
%ADD26R,0.07900X0.04300*%
%ADD27R,0.09843X0.02756*%
%ADD28R,0.02756X0.09843*%
%ADD29C,0.05543*%
%ADD30R,0.02992X0.07874*%
%ADD31R,0.02087X0.01457*%
%ADD32R,0.01417X0.00984*%
%ADD33R,0.00984X0.01417*%
%ADD34C,0.03200*%
%ADD35C,0.02400*%
%ADD36C,0.01600*%
%ADD37OC8,0.03200*%
%ADD38OC8,0.04800*%
%ADD39OC8,0.03962*%
%ADD40OC8,0.04000*%
%ADD41R,0.03962X0.03962*%
D10*
X0095355Y0142646D03*
X0102245Y0142646D03*
X0083745Y0203146D03*
X0083745Y0208646D03*
X0076855Y0208646D03*
X0076855Y0203146D03*
X0071745Y0230146D03*
X0071745Y0236646D03*
X0064855Y0236646D03*
X0064855Y0230146D03*
X0064855Y0251146D03*
X0064855Y0257146D03*
X0071745Y0257146D03*
X0071745Y0251146D03*
X0072245Y0288146D03*
X0065355Y0288146D03*
X0178855Y0249646D03*
X0185745Y0249646D03*
X0191855Y0249646D03*
X0198745Y0249646D03*
X0156745Y0126646D03*
X0156745Y0120646D03*
X0156745Y0114646D03*
X0149855Y0114646D03*
X0149855Y0120646D03*
X0149855Y0126646D03*
D11*
X0080800Y0184701D03*
X0080800Y0191591D03*
X0069300Y0202701D03*
X0063300Y0202701D03*
X0063300Y0209591D03*
X0069300Y0209591D03*
X0077300Y0216701D03*
X0077300Y0223591D03*
X0084300Y0223591D03*
X0084300Y0216701D03*
X0084800Y0236701D03*
X0084800Y0243591D03*
X0077800Y0243591D03*
X0077800Y0236701D03*
X0072300Y0275201D03*
X0072300Y0282091D03*
X0067800Y0191591D03*
X0067800Y0184701D03*
D12*
X0110005Y0275146D03*
X0135595Y0275146D03*
X0152005Y0278146D03*
X0177595Y0278146D03*
X0179505Y0134646D03*
X0205095Y0134646D03*
D13*
X0212477Y0170146D03*
X0220623Y0170146D03*
X0235977Y0170146D03*
X0197123Y0170146D03*
X0192123Y0279646D03*
X0207477Y0279646D03*
X0208977Y0342146D03*
X0193623Y0342146D03*
D14*
X0239300Y0129323D03*
X0239300Y0113969D03*
D15*
X0092300Y0274559D03*
X0092300Y0288732D03*
D16*
X0064800Y0302642D03*
X0064800Y0354650D03*
D17*
X0043300Y0176646D03*
X0226800Y0240646D03*
D18*
X0216800Y0250646D03*
X0216800Y0230646D03*
X0236800Y0230646D03*
X0236800Y0250646D03*
X0053300Y0186646D03*
X0053300Y0166646D03*
X0033300Y0166646D03*
X0033300Y0186646D03*
D19*
X0220702Y0220146D03*
X0231898Y0220146D03*
D20*
X0112355Y0308988D03*
X0104481Y0308988D03*
X0104481Y0330988D03*
X0112355Y0330988D03*
D21*
X0136060Y0333815D03*
X0143540Y0333815D03*
X0139800Y0342476D03*
D22*
X0185607Y0240646D03*
X0198993Y0240646D03*
X0196607Y0220146D03*
X0209993Y0220146D03*
X0163493Y0135146D03*
X0150107Y0135146D03*
X0134493Y0140646D03*
X0134493Y0128646D03*
X0121107Y0128646D03*
X0121107Y0140646D03*
X0110993Y0151146D03*
X0097607Y0151146D03*
X0080993Y0176646D03*
X0067607Y0176646D03*
D23*
X0187064Y0159146D03*
X0207536Y0159146D03*
X0218564Y0159146D03*
X0219064Y0140146D03*
X0239536Y0140146D03*
X0239036Y0159146D03*
X0214036Y0291646D03*
X0214036Y0305146D03*
X0214036Y0325646D03*
X0193564Y0325646D03*
X0193564Y0305146D03*
X0193564Y0291646D03*
D24*
X0080800Y0288839D03*
X0080800Y0275453D03*
D25*
X0139800Y0299409D03*
X0139800Y0319882D03*
D26*
X0131000Y0356146D03*
X0095600Y0356146D03*
D27*
X0098698Y0231705D03*
X0098698Y0227768D03*
X0098698Y0223831D03*
X0098698Y0219894D03*
X0098698Y0215957D03*
X0098698Y0212020D03*
X0098698Y0208083D03*
X0098698Y0204146D03*
X0098698Y0200209D03*
X0098698Y0196272D03*
X0098698Y0192335D03*
X0098698Y0188398D03*
X0098698Y0184461D03*
X0098698Y0180524D03*
X0098698Y0176587D03*
X0161099Y0176587D03*
X0161099Y0180524D03*
X0161099Y0184461D03*
X0161099Y0188398D03*
X0161099Y0192335D03*
X0161099Y0196272D03*
X0161099Y0200209D03*
X0161099Y0204146D03*
X0161099Y0208083D03*
X0161099Y0212020D03*
X0161099Y0215957D03*
X0161099Y0219894D03*
X0161099Y0223831D03*
X0161099Y0227768D03*
X0161099Y0231705D03*
D28*
X0151454Y0240563D03*
X0147517Y0240563D03*
X0143580Y0240563D03*
X0139643Y0240563D03*
X0135706Y0240563D03*
X0131769Y0240563D03*
X0127831Y0240563D03*
X0123894Y0240563D03*
X0119957Y0240563D03*
X0116020Y0240563D03*
X0112083Y0240563D03*
X0108146Y0240563D03*
X0108146Y0167728D03*
X0112083Y0167728D03*
X0116020Y0167728D03*
X0119957Y0167728D03*
X0123894Y0167728D03*
X0127831Y0167728D03*
X0131769Y0167728D03*
X0135706Y0167728D03*
X0139643Y0167728D03*
X0143580Y0167728D03*
X0147517Y0167728D03*
X0151454Y0167728D03*
D29*
X0200351Y0191283D03*
X0200351Y0209000D03*
X0225942Y0209000D03*
X0225942Y0191283D03*
X0245351Y0191283D03*
X0252946Y0175787D03*
X0270662Y0175787D03*
X0270942Y0191283D03*
X0270942Y0209000D03*
X0245351Y0209000D03*
X0252946Y0150197D03*
X0253438Y0139594D03*
X0271154Y0139594D03*
X0270662Y0150197D03*
X0271154Y0114004D03*
X0253438Y0114004D03*
X0049241Y0239020D03*
X0049241Y0249020D03*
X0039241Y0244020D03*
X0039241Y0254059D03*
D30*
X0157233Y0304677D03*
X0162233Y0304677D03*
X0167233Y0304677D03*
X0172233Y0304677D03*
X0177233Y0304638D03*
D31*
X0219481Y0124106D03*
X0219481Y0121626D03*
X0219481Y0119146D03*
X0227040Y0119146D03*
X0227040Y0124106D03*
D32*
X0063032Y0264646D03*
X0059646Y0264685D03*
X0058532Y0223646D03*
X0055146Y0223685D03*
D33*
X0054800Y0213878D03*
X0054761Y0210492D03*
X0058261Y0240992D03*
X0058300Y0244378D03*
D34*
X0065355Y0288146D02*
X0065355Y0293591D01*
X0065300Y0293646D01*
X0104800Y0294146D02*
X0109800Y0289146D01*
X0109800Y0275350D01*
X0110005Y0275146D01*
X0110005Y0274441D01*
X0110008Y0274168D01*
X0110018Y0273895D01*
X0110035Y0273623D01*
X0110058Y0273351D01*
X0110087Y0273080D01*
X0110124Y0272809D01*
X0110166Y0272539D01*
X0110215Y0272271D01*
X0110271Y0272004D01*
X0110333Y0271738D01*
X0110402Y0271474D01*
X0110477Y0271211D01*
X0110558Y0270951D01*
X0110645Y0270692D01*
X0110739Y0270436D01*
X0110839Y0270182D01*
X0110945Y0269930D01*
X0111057Y0269681D01*
X0111175Y0269435D01*
X0111299Y0269192D01*
X0111429Y0268952D01*
X0111564Y0268715D01*
X0111705Y0268481D01*
X0111852Y0268251D01*
X0112004Y0268025D01*
X0112162Y0267802D01*
X0112325Y0267583D01*
X0112494Y0267368D01*
X0112667Y0267158D01*
X0112846Y0266951D01*
X0113029Y0266749D01*
X0113217Y0266551D01*
X0113410Y0266358D01*
X0113608Y0266170D01*
X0113810Y0265987D01*
X0114017Y0265808D01*
X0114227Y0265635D01*
X0114442Y0265466D01*
X0114661Y0265303D01*
X0114884Y0265145D01*
X0115110Y0264993D01*
X0115340Y0264846D01*
X0115574Y0264705D01*
X0115811Y0264570D01*
X0116051Y0264440D01*
X0116294Y0264316D01*
X0116540Y0264198D01*
X0116789Y0264086D01*
X0117041Y0263980D01*
X0117295Y0263880D01*
X0117551Y0263786D01*
X0117810Y0263699D01*
X0118070Y0263618D01*
X0118333Y0263543D01*
X0118597Y0263474D01*
X0118863Y0263412D01*
X0119130Y0263356D01*
X0119398Y0263307D01*
X0119668Y0263265D01*
X0119939Y0263228D01*
X0120210Y0263199D01*
X0120482Y0263176D01*
X0120754Y0263159D01*
X0121027Y0263149D01*
X0121300Y0263146D01*
X0121553Y0263143D01*
X0121806Y0263134D01*
X0122058Y0263118D01*
X0122310Y0263097D01*
X0122562Y0263070D01*
X0122813Y0263036D01*
X0123063Y0262997D01*
X0123311Y0262951D01*
X0123559Y0262899D01*
X0123805Y0262842D01*
X0124050Y0262778D01*
X0124294Y0262709D01*
X0124535Y0262634D01*
X0124775Y0262553D01*
X0125012Y0262466D01*
X0125248Y0262373D01*
X0125481Y0262275D01*
X0125712Y0262171D01*
X0125940Y0262062D01*
X0126165Y0261947D01*
X0126388Y0261827D01*
X0126607Y0261701D01*
X0126824Y0261570D01*
X0127037Y0261434D01*
X0127247Y0261293D01*
X0127454Y0261147D01*
X0127656Y0260995D01*
X0127856Y0260839D01*
X0128051Y0260679D01*
X0128242Y0260513D01*
X0128430Y0260343D01*
X0128613Y0260169D01*
X0128792Y0259990D01*
X0128966Y0259807D01*
X0129136Y0259619D01*
X0129302Y0259428D01*
X0129462Y0259233D01*
X0129618Y0259033D01*
X0129770Y0258831D01*
X0129916Y0258624D01*
X0130057Y0258414D01*
X0130193Y0258201D01*
X0130324Y0257984D01*
X0130450Y0257765D01*
X0130570Y0257542D01*
X0130685Y0257317D01*
X0130794Y0257089D01*
X0130898Y0256858D01*
X0130996Y0256625D01*
X0131089Y0256389D01*
X0131176Y0256152D01*
X0131257Y0255912D01*
X0131332Y0255671D01*
X0131401Y0255427D01*
X0131465Y0255182D01*
X0131522Y0254936D01*
X0131574Y0254688D01*
X0131620Y0254440D01*
X0131659Y0254190D01*
X0131693Y0253939D01*
X0131720Y0253687D01*
X0131741Y0253435D01*
X0131757Y0253183D01*
X0131766Y0252930D01*
X0131769Y0252677D01*
X0131769Y0240563D01*
X0123894Y0240563D02*
X0123800Y0240657D01*
X0123800Y0250646D01*
X0125300Y0252146D01*
X0137800Y0255145D02*
X0138143Y0255149D01*
X0138486Y0255162D01*
X0138829Y0255182D01*
X0139171Y0255211D01*
X0139512Y0255249D01*
X0139852Y0255294D01*
X0140192Y0255348D01*
X0140529Y0255410D01*
X0140865Y0255480D01*
X0141199Y0255558D01*
X0141532Y0255644D01*
X0141862Y0255738D01*
X0142190Y0255840D01*
X0142515Y0255950D01*
X0142837Y0256068D01*
X0143157Y0256194D01*
X0143473Y0256327D01*
X0143786Y0256468D01*
X0144096Y0256616D01*
X0144401Y0256772D01*
X0144703Y0256935D01*
X0145001Y0257106D01*
X0145295Y0257283D01*
X0145585Y0257468D01*
X0145869Y0257660D01*
X0146149Y0257858D01*
X0146425Y0258063D01*
X0146695Y0258275D01*
X0146960Y0258493D01*
X0147220Y0258717D01*
X0147474Y0258948D01*
X0147722Y0259185D01*
X0147965Y0259428D01*
X0148202Y0259676D01*
X0148433Y0259930D01*
X0148657Y0260190D01*
X0148875Y0260455D01*
X0149087Y0260725D01*
X0149292Y0261001D01*
X0149490Y0261281D01*
X0149682Y0261565D01*
X0149867Y0261855D01*
X0150044Y0262149D01*
X0150215Y0262447D01*
X0150378Y0262749D01*
X0150534Y0263054D01*
X0150682Y0263364D01*
X0150823Y0263677D01*
X0150956Y0263993D01*
X0151082Y0264313D01*
X0151200Y0264635D01*
X0151310Y0264960D01*
X0151412Y0265288D01*
X0151506Y0265618D01*
X0151592Y0265951D01*
X0151670Y0266285D01*
X0151740Y0266621D01*
X0151802Y0266958D01*
X0151856Y0267298D01*
X0151901Y0267638D01*
X0151939Y0267979D01*
X0151968Y0268321D01*
X0151988Y0268664D01*
X0152001Y0269007D01*
X0152005Y0269350D01*
X0152005Y0278146D01*
X0177595Y0278146D02*
X0177622Y0278144D01*
X0177648Y0278139D01*
X0177673Y0278130D01*
X0177698Y0278119D01*
X0177720Y0278104D01*
X0177740Y0278086D01*
X0177758Y0278066D01*
X0177773Y0278044D01*
X0177784Y0278019D01*
X0177793Y0277994D01*
X0177798Y0277968D01*
X0177800Y0277941D01*
X0177800Y0268146D01*
X0185745Y0249646D02*
X0185745Y0240894D01*
X0185746Y0240882D01*
X0185750Y0240870D01*
X0185757Y0240860D01*
X0185766Y0240851D01*
X0185776Y0240844D01*
X0185788Y0240840D01*
X0185800Y0240839D01*
X0185798Y0240812D01*
X0185792Y0240785D01*
X0185783Y0240759D01*
X0185769Y0240735D01*
X0185753Y0240713D01*
X0185733Y0240693D01*
X0185711Y0240677D01*
X0185687Y0240663D01*
X0185661Y0240654D01*
X0185634Y0240648D01*
X0185607Y0240646D01*
X0185605Y0240667D01*
X0185600Y0240688D01*
X0185591Y0240707D01*
X0185578Y0240724D01*
X0185563Y0240739D01*
X0185546Y0240752D01*
X0185527Y0240761D01*
X0185506Y0240766D01*
X0185485Y0240768D01*
X0185607Y0240646D02*
X0185634Y0240644D01*
X0185661Y0240638D01*
X0185687Y0240629D01*
X0185711Y0240615D01*
X0185733Y0240599D01*
X0185753Y0240579D01*
X0185769Y0240557D01*
X0185783Y0240533D01*
X0185792Y0240507D01*
X0185798Y0240480D01*
X0185800Y0240453D01*
X0198745Y0240894D02*
X0198745Y0249646D01*
X0198745Y0240894D02*
X0198746Y0240882D01*
X0198750Y0240870D01*
X0198757Y0240860D01*
X0198766Y0240851D01*
X0198776Y0240844D01*
X0198788Y0240840D01*
X0198800Y0240839D01*
X0198802Y0240812D01*
X0198808Y0240785D01*
X0198817Y0240759D01*
X0198831Y0240735D01*
X0198847Y0240713D01*
X0198867Y0240693D01*
X0198889Y0240677D01*
X0198913Y0240663D01*
X0198939Y0240654D01*
X0198966Y0240648D01*
X0198993Y0240646D01*
X0226800Y0240646D01*
X0236800Y0250646D02*
X0216800Y0250646D01*
X0216800Y0230646D02*
X0236800Y0230646D01*
X0236800Y0223646D01*
X0236798Y0223529D01*
X0236792Y0223412D01*
X0236782Y0223296D01*
X0236769Y0223179D01*
X0236751Y0223064D01*
X0236730Y0222949D01*
X0236705Y0222835D01*
X0236676Y0222721D01*
X0236643Y0222609D01*
X0236606Y0222498D01*
X0236566Y0222388D01*
X0236522Y0222280D01*
X0236475Y0222173D01*
X0236424Y0222067D01*
X0236369Y0221964D01*
X0236311Y0221862D01*
X0236250Y0221763D01*
X0236186Y0221665D01*
X0236118Y0221570D01*
X0236047Y0221477D01*
X0235973Y0221386D01*
X0235896Y0221298D01*
X0235816Y0221213D01*
X0235733Y0221130D01*
X0235648Y0221050D01*
X0235560Y0220973D01*
X0235469Y0220899D01*
X0235376Y0220828D01*
X0235281Y0220760D01*
X0235183Y0220696D01*
X0235084Y0220635D01*
X0234982Y0220577D01*
X0234879Y0220522D01*
X0234773Y0220471D01*
X0234666Y0220424D01*
X0234558Y0220380D01*
X0234448Y0220340D01*
X0234337Y0220303D01*
X0234225Y0220270D01*
X0234111Y0220241D01*
X0233997Y0220216D01*
X0233882Y0220195D01*
X0233767Y0220177D01*
X0233650Y0220164D01*
X0233534Y0220154D01*
X0233417Y0220148D01*
X0233300Y0220146D01*
X0231898Y0220146D01*
X0236800Y0230646D02*
X0236800Y0250646D01*
X0187946Y0183146D02*
X0187800Y0183146D01*
X0181859Y0176587D02*
X0161099Y0176587D01*
X0168217Y0167728D02*
X0151454Y0167728D01*
X0147517Y0167728D02*
X0147517Y0162429D01*
X0147519Y0162317D01*
X0147525Y0162205D01*
X0147534Y0162093D01*
X0147548Y0161982D01*
X0147565Y0161871D01*
X0147586Y0161761D01*
X0147610Y0161652D01*
X0147639Y0161543D01*
X0147671Y0161436D01*
X0147707Y0161330D01*
X0147746Y0161225D01*
X0147789Y0161121D01*
X0147835Y0161019D01*
X0147885Y0160919D01*
X0147938Y0160820D01*
X0147995Y0160723D01*
X0148055Y0160628D01*
X0148118Y0160536D01*
X0148184Y0160445D01*
X0148253Y0160357D01*
X0148326Y0160271D01*
X0148401Y0160188D01*
X0148479Y0160108D01*
X0148559Y0160030D01*
X0148642Y0159955D01*
X0148728Y0159882D01*
X0148816Y0159813D01*
X0148907Y0159747D01*
X0148999Y0159684D01*
X0149094Y0159624D01*
X0149191Y0159567D01*
X0149290Y0159514D01*
X0149390Y0159464D01*
X0149492Y0159418D01*
X0149596Y0159375D01*
X0149701Y0159336D01*
X0149807Y0159300D01*
X0149914Y0159268D01*
X0150023Y0159239D01*
X0150132Y0159215D01*
X0150242Y0159194D01*
X0150353Y0159177D01*
X0150464Y0159163D01*
X0150576Y0159154D01*
X0150688Y0159148D01*
X0150800Y0159146D01*
X0162300Y0159146D01*
X0168217Y0167729D02*
X0168357Y0167727D01*
X0168497Y0167721D01*
X0168637Y0167712D01*
X0168776Y0167698D01*
X0168915Y0167681D01*
X0169054Y0167660D01*
X0169191Y0167635D01*
X0169329Y0167606D01*
X0169465Y0167573D01*
X0169600Y0167537D01*
X0169734Y0167497D01*
X0169867Y0167454D01*
X0169999Y0167406D01*
X0170130Y0167355D01*
X0170259Y0167301D01*
X0170386Y0167243D01*
X0170512Y0167181D01*
X0170636Y0167116D01*
X0170759Y0167048D01*
X0170879Y0166976D01*
X0170997Y0166901D01*
X0171113Y0166823D01*
X0171227Y0166742D01*
X0171339Y0166657D01*
X0171448Y0166570D01*
X0171555Y0166479D01*
X0171660Y0166386D01*
X0171761Y0166289D01*
X0171860Y0166190D01*
X0171957Y0166089D01*
X0172050Y0165984D01*
X0172141Y0165877D01*
X0172228Y0165768D01*
X0172313Y0165656D01*
X0172394Y0165542D01*
X0172472Y0165426D01*
X0172547Y0165308D01*
X0172619Y0165188D01*
X0172687Y0165065D01*
X0172752Y0164941D01*
X0172814Y0164815D01*
X0172872Y0164688D01*
X0172926Y0164559D01*
X0172977Y0164428D01*
X0173025Y0164296D01*
X0173068Y0164163D01*
X0173108Y0164029D01*
X0173144Y0163894D01*
X0173177Y0163758D01*
X0173206Y0163620D01*
X0173231Y0163483D01*
X0173252Y0163344D01*
X0173269Y0163205D01*
X0173283Y0163066D01*
X0173292Y0162926D01*
X0173298Y0162786D01*
X0173300Y0162646D01*
X0173300Y0153146D01*
X0173302Y0153000D01*
X0173308Y0152853D01*
X0173318Y0152707D01*
X0173331Y0152561D01*
X0173349Y0152416D01*
X0173370Y0152271D01*
X0173395Y0152127D01*
X0173424Y0151983D01*
X0173457Y0151841D01*
X0173494Y0151699D01*
X0173534Y0151558D01*
X0173578Y0151419D01*
X0173626Y0151280D01*
X0173678Y0151143D01*
X0173733Y0151007D01*
X0173792Y0150873D01*
X0173854Y0150741D01*
X0173920Y0150610D01*
X0173989Y0150481D01*
X0174061Y0150354D01*
X0174137Y0150229D01*
X0174217Y0150106D01*
X0174299Y0149985D01*
X0174385Y0149866D01*
X0174474Y0149750D01*
X0174566Y0149636D01*
X0174661Y0149524D01*
X0174759Y0149415D01*
X0174859Y0149309D01*
X0174963Y0149205D01*
X0175069Y0149105D01*
X0175178Y0149007D01*
X0175290Y0148912D01*
X0175404Y0148820D01*
X0175520Y0148731D01*
X0175639Y0148645D01*
X0175760Y0148563D01*
X0175883Y0148483D01*
X0176008Y0148407D01*
X0176135Y0148335D01*
X0176264Y0148266D01*
X0176395Y0148200D01*
X0176527Y0148138D01*
X0176661Y0148079D01*
X0176797Y0148024D01*
X0176934Y0147972D01*
X0177073Y0147924D01*
X0177212Y0147880D01*
X0177353Y0147840D01*
X0177495Y0147803D01*
X0177637Y0147770D01*
X0177781Y0147741D01*
X0177925Y0147716D01*
X0178070Y0147695D01*
X0178215Y0147677D01*
X0178361Y0147664D01*
X0178507Y0147654D01*
X0178654Y0147648D01*
X0178800Y0147646D01*
X0179300Y0134441D02*
X0179300Y0130646D01*
X0179300Y0124646D01*
X0179300Y0134441D02*
X0179302Y0134468D01*
X0179307Y0134494D01*
X0179316Y0134519D01*
X0179327Y0134544D01*
X0179342Y0134566D01*
X0179360Y0134586D01*
X0179380Y0134604D01*
X0179403Y0134619D01*
X0179427Y0134630D01*
X0179452Y0134639D01*
X0179478Y0134644D01*
X0179505Y0134646D01*
X0179300Y0124646D02*
X0179303Y0124388D01*
X0179312Y0124130D01*
X0179328Y0123873D01*
X0179350Y0123616D01*
X0179378Y0123359D01*
X0179412Y0123103D01*
X0179452Y0122848D01*
X0179499Y0122595D01*
X0179552Y0122342D01*
X0179610Y0122091D01*
X0179675Y0121841D01*
X0179746Y0121593D01*
X0179823Y0121347D01*
X0179905Y0121102D01*
X0179994Y0120860D01*
X0180088Y0120620D01*
X0180188Y0120382D01*
X0180294Y0120147D01*
X0180406Y0119914D01*
X0180523Y0119684D01*
X0180646Y0119457D01*
X0180774Y0119233D01*
X0180907Y0119012D01*
X0181046Y0118795D01*
X0181190Y0118581D01*
X0181339Y0118370D01*
X0181493Y0118163D01*
X0181652Y0117960D01*
X0181816Y0117761D01*
X0181985Y0117566D01*
X0182159Y0117375D01*
X0182337Y0117188D01*
X0182519Y0117006D01*
X0182706Y0116828D01*
X0182897Y0116654D01*
X0183092Y0116485D01*
X0183291Y0116321D01*
X0183494Y0116162D01*
X0183701Y0116008D01*
X0183912Y0115859D01*
X0184126Y0115715D01*
X0184343Y0115576D01*
X0184564Y0115443D01*
X0184788Y0115315D01*
X0185015Y0115192D01*
X0185245Y0115075D01*
X0185478Y0114963D01*
X0185713Y0114857D01*
X0185951Y0114757D01*
X0186191Y0114663D01*
X0186433Y0114574D01*
X0186678Y0114492D01*
X0186924Y0114415D01*
X0187172Y0114344D01*
X0187422Y0114279D01*
X0187673Y0114221D01*
X0187926Y0114168D01*
X0188179Y0114121D01*
X0188434Y0114081D01*
X0188690Y0114047D01*
X0188947Y0114019D01*
X0189204Y0113997D01*
X0189461Y0113981D01*
X0189719Y0113972D01*
X0189977Y0113969D01*
X0239300Y0113969D01*
X0247623Y0113969D01*
X0247648Y0113971D01*
X0247673Y0113976D01*
X0247697Y0113985D01*
X0247719Y0113997D01*
X0247739Y0114012D01*
X0247757Y0114030D01*
X0247772Y0114050D01*
X0247784Y0114072D01*
X0247793Y0114096D01*
X0247798Y0114121D01*
X0247800Y0114146D01*
X0227040Y0124106D02*
X0227040Y0125406D01*
X0227038Y0125526D01*
X0227032Y0125646D01*
X0227023Y0125765D01*
X0227009Y0125884D01*
X0226992Y0126003D01*
X0226971Y0126121D01*
X0226946Y0126238D01*
X0226918Y0126355D01*
X0226885Y0126470D01*
X0226849Y0126585D01*
X0226810Y0126698D01*
X0226767Y0126809D01*
X0226720Y0126920D01*
X0226670Y0127029D01*
X0226616Y0127136D01*
X0226559Y0127241D01*
X0226498Y0127345D01*
X0226434Y0127446D01*
X0226367Y0127546D01*
X0226297Y0127643D01*
X0226224Y0127738D01*
X0226148Y0127830D01*
X0226069Y0127920D01*
X0225987Y0128008D01*
X0225902Y0128093D01*
X0225814Y0128175D01*
X0225724Y0128254D01*
X0225632Y0128330D01*
X0225537Y0128403D01*
X0225440Y0128473D01*
X0225340Y0128540D01*
X0225239Y0128604D01*
X0225135Y0128665D01*
X0225030Y0128722D01*
X0224923Y0128776D01*
X0224814Y0128826D01*
X0224703Y0128873D01*
X0224592Y0128916D01*
X0224479Y0128955D01*
X0224364Y0128991D01*
X0224249Y0129024D01*
X0224132Y0129052D01*
X0224015Y0129077D01*
X0223897Y0129098D01*
X0223778Y0129115D01*
X0223659Y0129129D01*
X0223540Y0129138D01*
X0223420Y0129144D01*
X0223300Y0129146D01*
X0222800Y0129146D01*
X0222683Y0129148D01*
X0222566Y0129154D01*
X0222450Y0129164D01*
X0222333Y0129177D01*
X0222218Y0129195D01*
X0222103Y0129216D01*
X0221989Y0129241D01*
X0221875Y0129270D01*
X0221763Y0129303D01*
X0221652Y0129340D01*
X0221542Y0129380D01*
X0221434Y0129424D01*
X0221327Y0129471D01*
X0221221Y0129522D01*
X0221118Y0129577D01*
X0221016Y0129635D01*
X0220917Y0129696D01*
X0220819Y0129760D01*
X0220724Y0129828D01*
X0220631Y0129899D01*
X0220540Y0129973D01*
X0220452Y0130050D01*
X0220367Y0130130D01*
X0220284Y0130213D01*
X0220204Y0130298D01*
X0220127Y0130386D01*
X0220053Y0130477D01*
X0219982Y0130570D01*
X0219914Y0130665D01*
X0219850Y0130763D01*
X0219789Y0130862D01*
X0219731Y0130964D01*
X0219676Y0131067D01*
X0219625Y0131173D01*
X0219578Y0131280D01*
X0219534Y0131388D01*
X0219494Y0131498D01*
X0219457Y0131609D01*
X0219424Y0131721D01*
X0219395Y0131835D01*
X0219370Y0131949D01*
X0219349Y0132064D01*
X0219331Y0132179D01*
X0219318Y0132296D01*
X0219308Y0132412D01*
X0219302Y0132529D01*
X0219300Y0132646D01*
X0219300Y0139909D01*
X0219064Y0140146D01*
X0219064Y0140145D02*
X0219092Y0140143D01*
X0219120Y0140138D01*
X0219148Y0140130D01*
X0219174Y0140118D01*
X0219198Y0140103D01*
X0219220Y0140086D01*
X0219241Y0140065D01*
X0219258Y0140043D01*
X0219273Y0140019D01*
X0219285Y0139993D01*
X0219293Y0139965D01*
X0219298Y0139937D01*
X0219300Y0139909D01*
X0219064Y0140146D02*
X0219299Y0140149D01*
X0219534Y0140157D01*
X0219769Y0140172D01*
X0220004Y0140191D01*
X0220238Y0140217D01*
X0220471Y0140248D01*
X0220703Y0140285D01*
X0220935Y0140327D01*
X0221165Y0140375D01*
X0221394Y0140429D01*
X0221622Y0140488D01*
X0221848Y0140553D01*
X0222073Y0140623D01*
X0222295Y0140698D01*
X0222516Y0140779D01*
X0222735Y0140865D01*
X0222952Y0140956D01*
X0223167Y0141053D01*
X0223379Y0141154D01*
X0223589Y0141261D01*
X0223796Y0141373D01*
X0224000Y0141490D01*
X0224201Y0141612D01*
X0224399Y0141738D01*
X0224595Y0141869D01*
X0224787Y0142005D01*
X0224975Y0142146D01*
X0225161Y0142291D01*
X0225342Y0142441D01*
X0225520Y0142594D01*
X0225694Y0142753D01*
X0225865Y0142915D01*
X0226031Y0143081D01*
X0226193Y0143252D01*
X0226352Y0143426D01*
X0226505Y0143604D01*
X0226655Y0143785D01*
X0226800Y0143971D01*
X0226941Y0144159D01*
X0227077Y0144351D01*
X0227208Y0144547D01*
X0227334Y0144745D01*
X0227456Y0144946D01*
X0227573Y0145150D01*
X0227685Y0145357D01*
X0227792Y0145567D01*
X0227893Y0145779D01*
X0227990Y0145994D01*
X0228081Y0146211D01*
X0228167Y0146430D01*
X0228248Y0146651D01*
X0228323Y0146873D01*
X0228393Y0147098D01*
X0228458Y0147324D01*
X0228517Y0147552D01*
X0228571Y0147781D01*
X0228619Y0148011D01*
X0228661Y0148243D01*
X0228698Y0148475D01*
X0228729Y0148708D01*
X0228755Y0148942D01*
X0228774Y0149177D01*
X0228789Y0149412D01*
X0228797Y0149647D01*
X0228800Y0149882D01*
X0228800Y0162969D01*
X0228802Y0163142D01*
X0228808Y0163316D01*
X0228819Y0163489D01*
X0228834Y0163662D01*
X0228852Y0163834D01*
X0228875Y0164006D01*
X0228902Y0164177D01*
X0228934Y0164348D01*
X0228969Y0164518D01*
X0229009Y0164687D01*
X0229052Y0164854D01*
X0229100Y0165021D01*
X0229151Y0165187D01*
X0229207Y0165351D01*
X0229266Y0165514D01*
X0229330Y0165675D01*
X0229397Y0165835D01*
X0229468Y0165993D01*
X0229543Y0166150D01*
X0229622Y0166304D01*
X0229705Y0166457D01*
X0229791Y0166607D01*
X0229880Y0166756D01*
X0229974Y0166902D01*
X0230070Y0167046D01*
X0230171Y0167188D01*
X0230274Y0167327D01*
X0230381Y0167463D01*
X0230492Y0167597D01*
X0230605Y0167728D01*
X0230722Y0167857D01*
X0230841Y0167982D01*
X0230964Y0168105D01*
X0231089Y0168224D01*
X0231218Y0168341D01*
X0231349Y0168454D01*
X0231483Y0168565D01*
X0231619Y0168672D01*
X0231758Y0168775D01*
X0231900Y0168876D01*
X0232044Y0168972D01*
X0232190Y0169066D01*
X0232339Y0169155D01*
X0232489Y0169241D01*
X0232642Y0169324D01*
X0232796Y0169403D01*
X0232953Y0169478D01*
X0233111Y0169549D01*
X0233271Y0169616D01*
X0233432Y0169680D01*
X0233595Y0169739D01*
X0233759Y0169795D01*
X0233925Y0169846D01*
X0234092Y0169894D01*
X0234259Y0169937D01*
X0234428Y0169977D01*
X0234598Y0170012D01*
X0234769Y0170044D01*
X0234940Y0170071D01*
X0235112Y0170094D01*
X0235284Y0170112D01*
X0235457Y0170127D01*
X0235630Y0170138D01*
X0235804Y0170144D01*
X0235977Y0170146D01*
X0235952Y0170148D01*
X0235927Y0170153D01*
X0235903Y0170162D01*
X0235881Y0170174D01*
X0235861Y0170189D01*
X0235843Y0170207D01*
X0235828Y0170227D01*
X0235816Y0170249D01*
X0235807Y0170273D01*
X0235802Y0170298D01*
X0235800Y0170323D01*
X0235800Y0172646D01*
X0235798Y0172798D01*
X0235792Y0172950D01*
X0235783Y0173102D01*
X0235769Y0173253D01*
X0235752Y0173404D01*
X0235731Y0173555D01*
X0235706Y0173705D01*
X0235677Y0173854D01*
X0235645Y0174002D01*
X0235608Y0174150D01*
X0235569Y0174297D01*
X0235525Y0174442D01*
X0235477Y0174587D01*
X0235427Y0174730D01*
X0235372Y0174872D01*
X0235314Y0175012D01*
X0235252Y0175151D01*
X0235187Y0175288D01*
X0235118Y0175424D01*
X0235046Y0175558D01*
X0234971Y0175690D01*
X0234892Y0175820D01*
X0234810Y0175948D01*
X0234725Y0176074D01*
X0234636Y0176197D01*
X0234545Y0176319D01*
X0234450Y0176438D01*
X0234353Y0176554D01*
X0234252Y0176668D01*
X0234149Y0176780D01*
X0234043Y0176889D01*
X0233934Y0176995D01*
X0233822Y0177098D01*
X0233708Y0177199D01*
X0233592Y0177296D01*
X0233473Y0177391D01*
X0233351Y0177482D01*
X0233228Y0177571D01*
X0233102Y0177656D01*
X0232974Y0177738D01*
X0232844Y0177817D01*
X0232712Y0177892D01*
X0232578Y0177964D01*
X0232442Y0178033D01*
X0232305Y0178098D01*
X0232166Y0178160D01*
X0232026Y0178218D01*
X0231884Y0178273D01*
X0231741Y0178323D01*
X0231596Y0178371D01*
X0231451Y0178415D01*
X0231304Y0178454D01*
X0231156Y0178491D01*
X0231008Y0178523D01*
X0230859Y0178552D01*
X0230709Y0178577D01*
X0230558Y0178598D01*
X0230407Y0178615D01*
X0230256Y0178629D01*
X0230104Y0178638D01*
X0229952Y0178644D01*
X0229800Y0178646D01*
X0201800Y0178646D01*
X0201664Y0178644D01*
X0201528Y0178638D01*
X0201392Y0178628D01*
X0201257Y0178614D01*
X0201122Y0178597D01*
X0200988Y0178575D01*
X0200854Y0178549D01*
X0200721Y0178520D01*
X0200590Y0178487D01*
X0200459Y0178450D01*
X0200329Y0178409D01*
X0200200Y0178364D01*
X0200073Y0178316D01*
X0199948Y0178263D01*
X0199823Y0178208D01*
X0199701Y0178149D01*
X0199580Y0178086D01*
X0199462Y0178019D01*
X0199345Y0177950D01*
X0199230Y0177877D01*
X0199117Y0177800D01*
X0199007Y0177721D01*
X0198899Y0177638D01*
X0198794Y0177552D01*
X0198691Y0177463D01*
X0198590Y0177371D01*
X0198493Y0177276D01*
X0198398Y0177179D01*
X0198306Y0177078D01*
X0198217Y0176975D01*
X0198131Y0176870D01*
X0198048Y0176762D01*
X0197969Y0176652D01*
X0197892Y0176539D01*
X0197819Y0176424D01*
X0197750Y0176308D01*
X0197683Y0176189D01*
X0197620Y0176068D01*
X0197561Y0175946D01*
X0197506Y0175821D01*
X0197453Y0175696D01*
X0197405Y0175569D01*
X0197360Y0175440D01*
X0197319Y0175310D01*
X0197282Y0175179D01*
X0197249Y0175048D01*
X0197220Y0174915D01*
X0197194Y0174781D01*
X0197172Y0174647D01*
X0197155Y0174512D01*
X0197141Y0174377D01*
X0197131Y0174241D01*
X0197125Y0174105D01*
X0197123Y0173969D01*
X0197123Y0170146D01*
X0187300Y0171146D02*
X0187300Y0159382D01*
X0187298Y0159354D01*
X0187293Y0159326D01*
X0187285Y0159298D01*
X0187273Y0159272D01*
X0187258Y0159248D01*
X0187241Y0159226D01*
X0187220Y0159205D01*
X0187198Y0159188D01*
X0187174Y0159173D01*
X0187148Y0159161D01*
X0187120Y0159153D01*
X0187092Y0159148D01*
X0187064Y0159146D01*
X0198300Y0147646D02*
X0198523Y0147649D01*
X0198746Y0147657D01*
X0198969Y0147670D01*
X0199191Y0147689D01*
X0199413Y0147713D01*
X0199635Y0147743D01*
X0199855Y0147778D01*
X0200074Y0147818D01*
X0200293Y0147864D01*
X0200510Y0147914D01*
X0200726Y0147970D01*
X0200941Y0148032D01*
X0201154Y0148098D01*
X0201366Y0148170D01*
X0201575Y0148246D01*
X0201783Y0148328D01*
X0201989Y0148415D01*
X0202192Y0148506D01*
X0202393Y0148603D01*
X0202592Y0148704D01*
X0202789Y0148810D01*
X0202982Y0148921D01*
X0203173Y0149036D01*
X0203361Y0149156D01*
X0203547Y0149281D01*
X0203729Y0149410D01*
X0203908Y0149543D01*
X0204083Y0149681D01*
X0204256Y0149823D01*
X0204425Y0149969D01*
X0204590Y0150119D01*
X0204751Y0150273D01*
X0204909Y0150431D01*
X0205063Y0150592D01*
X0205213Y0150757D01*
X0205359Y0150926D01*
X0205501Y0151099D01*
X0205639Y0151274D01*
X0205772Y0151453D01*
X0205901Y0151635D01*
X0206026Y0151821D01*
X0206146Y0152009D01*
X0206261Y0152200D01*
X0206372Y0152393D01*
X0206478Y0152590D01*
X0206579Y0152789D01*
X0206676Y0152990D01*
X0206767Y0153193D01*
X0206854Y0153399D01*
X0206936Y0153607D01*
X0207012Y0153816D01*
X0207084Y0154028D01*
X0207150Y0154241D01*
X0207212Y0154456D01*
X0207268Y0154672D01*
X0207318Y0154889D01*
X0207364Y0155108D01*
X0207404Y0155327D01*
X0207439Y0155547D01*
X0207469Y0155769D01*
X0207493Y0155991D01*
X0207512Y0156213D01*
X0207525Y0156436D01*
X0207533Y0156659D01*
X0207536Y0156882D01*
X0207536Y0159146D01*
X0218564Y0159146D01*
X0218564Y0162909D01*
X0220800Y0165146D01*
X0220800Y0169969D01*
X0220623Y0170146D01*
X0212477Y0170146D01*
X0199800Y0147646D02*
X0198300Y0147646D01*
X0199800Y0147646D02*
X0199946Y0147644D01*
X0200093Y0147638D01*
X0200239Y0147628D01*
X0200385Y0147615D01*
X0200530Y0147597D01*
X0200675Y0147576D01*
X0200819Y0147551D01*
X0200963Y0147522D01*
X0201105Y0147489D01*
X0201247Y0147452D01*
X0201388Y0147412D01*
X0201527Y0147368D01*
X0201666Y0147320D01*
X0201803Y0147268D01*
X0201939Y0147213D01*
X0202073Y0147154D01*
X0202205Y0147092D01*
X0202336Y0147026D01*
X0202465Y0146957D01*
X0202592Y0146885D01*
X0202717Y0146809D01*
X0202840Y0146729D01*
X0202961Y0146647D01*
X0203080Y0146561D01*
X0203196Y0146472D01*
X0203310Y0146380D01*
X0203422Y0146285D01*
X0203531Y0146187D01*
X0203637Y0146087D01*
X0203741Y0145983D01*
X0203841Y0145877D01*
X0203939Y0145768D01*
X0204034Y0145656D01*
X0204126Y0145542D01*
X0204215Y0145426D01*
X0204301Y0145307D01*
X0204383Y0145186D01*
X0204463Y0145063D01*
X0204539Y0144938D01*
X0204611Y0144811D01*
X0204680Y0144682D01*
X0204746Y0144551D01*
X0204808Y0144419D01*
X0204867Y0144285D01*
X0204922Y0144149D01*
X0204974Y0144012D01*
X0205022Y0143873D01*
X0205066Y0143734D01*
X0205106Y0143593D01*
X0205143Y0143451D01*
X0205176Y0143309D01*
X0205205Y0143165D01*
X0205230Y0143021D01*
X0205251Y0142876D01*
X0205269Y0142731D01*
X0205282Y0142585D01*
X0205292Y0142439D01*
X0205298Y0142292D01*
X0205300Y0142146D01*
X0205300Y0134850D01*
X0205298Y0134823D01*
X0205293Y0134797D01*
X0205284Y0134772D01*
X0205273Y0134748D01*
X0205258Y0134725D01*
X0205240Y0134705D01*
X0205220Y0134687D01*
X0205198Y0134672D01*
X0205173Y0134661D01*
X0205148Y0134652D01*
X0205122Y0134647D01*
X0205095Y0134645D01*
X0197123Y0173969D02*
X0197120Y0174191D01*
X0197112Y0174412D01*
X0197099Y0174634D01*
X0197080Y0174855D01*
X0197056Y0175075D01*
X0197027Y0175295D01*
X0196992Y0175514D01*
X0196952Y0175732D01*
X0196907Y0175949D01*
X0196856Y0176165D01*
X0196801Y0176380D01*
X0196740Y0176593D01*
X0196674Y0176805D01*
X0196603Y0177015D01*
X0196527Y0177223D01*
X0196446Y0177430D01*
X0196359Y0177634D01*
X0196268Y0177836D01*
X0196173Y0178036D01*
X0196072Y0178234D01*
X0195966Y0178429D01*
X0195856Y0178621D01*
X0195742Y0178811D01*
X0195622Y0178998D01*
X0195499Y0179182D01*
X0195370Y0179363D01*
X0195238Y0179541D01*
X0195101Y0179716D01*
X0194960Y0179887D01*
X0194815Y0180054D01*
X0194666Y0180219D01*
X0194513Y0180379D01*
X0194356Y0180536D01*
X0194196Y0180689D01*
X0194031Y0180838D01*
X0193864Y0180983D01*
X0193693Y0181124D01*
X0193518Y0181261D01*
X0193340Y0181393D01*
X0193159Y0181522D01*
X0192975Y0181645D01*
X0192788Y0181765D01*
X0192598Y0181879D01*
X0192406Y0181989D01*
X0192211Y0182095D01*
X0192013Y0182196D01*
X0191813Y0182291D01*
X0191611Y0182382D01*
X0191407Y0182469D01*
X0191200Y0182550D01*
X0190992Y0182626D01*
X0190782Y0182697D01*
X0190570Y0182763D01*
X0190357Y0182824D01*
X0190142Y0182879D01*
X0189926Y0182930D01*
X0189709Y0182975D01*
X0189491Y0183015D01*
X0189272Y0183050D01*
X0189052Y0183079D01*
X0188832Y0183103D01*
X0188611Y0183122D01*
X0188389Y0183135D01*
X0188168Y0183143D01*
X0187946Y0183146D01*
X0181859Y0176587D02*
X0182004Y0176585D01*
X0182149Y0176579D01*
X0182293Y0176570D01*
X0182437Y0176556D01*
X0182581Y0176539D01*
X0182724Y0176518D01*
X0182867Y0176493D01*
X0183009Y0176464D01*
X0183150Y0176432D01*
X0183291Y0176395D01*
X0183430Y0176355D01*
X0183568Y0176312D01*
X0183705Y0176264D01*
X0183840Y0176213D01*
X0183975Y0176159D01*
X0184107Y0176101D01*
X0184238Y0176039D01*
X0184368Y0175974D01*
X0184495Y0175906D01*
X0184621Y0175834D01*
X0184745Y0175759D01*
X0184867Y0175680D01*
X0184986Y0175598D01*
X0185104Y0175514D01*
X0185219Y0175426D01*
X0185332Y0175335D01*
X0185442Y0175241D01*
X0185550Y0175144D01*
X0185655Y0175044D01*
X0185757Y0174942D01*
X0185857Y0174837D01*
X0185954Y0174729D01*
X0186048Y0174619D01*
X0186139Y0174506D01*
X0186227Y0174391D01*
X0186311Y0174273D01*
X0186393Y0174154D01*
X0186472Y0174032D01*
X0186547Y0173908D01*
X0186619Y0173782D01*
X0186687Y0173655D01*
X0186752Y0173525D01*
X0186814Y0173394D01*
X0186872Y0173262D01*
X0186926Y0173127D01*
X0186977Y0172992D01*
X0187025Y0172855D01*
X0187068Y0172717D01*
X0187108Y0172578D01*
X0187145Y0172437D01*
X0187177Y0172296D01*
X0187206Y0172154D01*
X0187231Y0172011D01*
X0187252Y0171868D01*
X0187269Y0171724D01*
X0187283Y0171580D01*
X0187292Y0171436D01*
X0187298Y0171291D01*
X0187300Y0171146D01*
X0239036Y0159146D02*
X0239080Y0159144D01*
X0239123Y0159138D01*
X0239165Y0159129D01*
X0239207Y0159116D01*
X0239247Y0159099D01*
X0239286Y0159079D01*
X0239323Y0159056D01*
X0239357Y0159029D01*
X0239390Y0159000D01*
X0239419Y0158967D01*
X0239446Y0158933D01*
X0239469Y0158896D01*
X0239489Y0158857D01*
X0239506Y0158817D01*
X0239519Y0158775D01*
X0239528Y0158733D01*
X0239534Y0158690D01*
X0239536Y0158646D01*
X0239536Y0140146D01*
X0103800Y0342646D02*
X0101300Y0342646D01*
X0101154Y0342648D01*
X0101007Y0342654D01*
X0100861Y0342664D01*
X0100715Y0342677D01*
X0100570Y0342695D01*
X0100425Y0342716D01*
X0100281Y0342741D01*
X0100137Y0342770D01*
X0099995Y0342803D01*
X0099853Y0342840D01*
X0099712Y0342880D01*
X0099573Y0342924D01*
X0099434Y0342972D01*
X0099297Y0343024D01*
X0099161Y0343079D01*
X0099027Y0343138D01*
X0098895Y0343200D01*
X0098764Y0343266D01*
X0098635Y0343335D01*
X0098508Y0343407D01*
X0098383Y0343483D01*
X0098260Y0343563D01*
X0098139Y0343645D01*
X0098020Y0343731D01*
X0097904Y0343820D01*
X0097790Y0343912D01*
X0097678Y0344007D01*
X0097569Y0344105D01*
X0097463Y0344205D01*
X0097359Y0344309D01*
X0097259Y0344415D01*
X0097161Y0344524D01*
X0097066Y0344636D01*
X0096974Y0344750D01*
X0096885Y0344866D01*
X0096799Y0344985D01*
X0096717Y0345106D01*
X0096637Y0345229D01*
X0096561Y0345354D01*
X0096489Y0345481D01*
X0096420Y0345610D01*
X0096354Y0345741D01*
X0096292Y0345873D01*
X0096233Y0346007D01*
X0096178Y0346143D01*
X0096126Y0346280D01*
X0096078Y0346419D01*
X0096034Y0346558D01*
X0095994Y0346699D01*
X0095957Y0346841D01*
X0095924Y0346983D01*
X0095895Y0347127D01*
X0095870Y0347271D01*
X0095849Y0347416D01*
X0095831Y0347561D01*
X0095818Y0347707D01*
X0095808Y0347853D01*
X0095802Y0348000D01*
X0095800Y0348146D01*
X0095800Y0355946D01*
X0095798Y0355972D01*
X0095793Y0355998D01*
X0095785Y0356023D01*
X0095773Y0356046D01*
X0095759Y0356068D01*
X0095741Y0356087D01*
X0095722Y0356105D01*
X0095700Y0356119D01*
X0095677Y0356131D01*
X0095652Y0356139D01*
X0095626Y0356144D01*
X0095600Y0356146D01*
D35*
X0131000Y0356146D02*
X0131000Y0338875D01*
X0131002Y0338736D01*
X0131008Y0338596D01*
X0131017Y0338457D01*
X0131031Y0338318D01*
X0131048Y0338180D01*
X0131069Y0338042D01*
X0131094Y0337905D01*
X0131122Y0337768D01*
X0131155Y0337633D01*
X0131191Y0337498D01*
X0131231Y0337365D01*
X0131274Y0337232D01*
X0131321Y0337101D01*
X0131372Y0336971D01*
X0131426Y0336842D01*
X0131484Y0336716D01*
X0131545Y0336590D01*
X0131610Y0336467D01*
X0131678Y0336345D01*
X0131749Y0336225D01*
X0131824Y0336107D01*
X0131902Y0335992D01*
X0131983Y0335878D01*
X0132067Y0335767D01*
X0132154Y0335658D01*
X0132244Y0335552D01*
X0132337Y0335448D01*
X0132433Y0335347D01*
X0132532Y0335248D01*
X0132633Y0335152D01*
X0132737Y0335059D01*
X0132843Y0334969D01*
X0132952Y0334882D01*
X0133063Y0334798D01*
X0133177Y0334717D01*
X0133292Y0334639D01*
X0133410Y0334564D01*
X0133530Y0334493D01*
X0133652Y0334425D01*
X0133775Y0334360D01*
X0133901Y0334299D01*
X0134027Y0334241D01*
X0134156Y0334187D01*
X0134286Y0334136D01*
X0134417Y0334089D01*
X0134550Y0334046D01*
X0134683Y0334006D01*
X0134818Y0333970D01*
X0134953Y0333937D01*
X0135090Y0333909D01*
X0135227Y0333884D01*
X0135365Y0333863D01*
X0135503Y0333846D01*
X0135642Y0333832D01*
X0135781Y0333823D01*
X0135921Y0333817D01*
X0136060Y0333815D01*
X0135891Y0333646D01*
X0135800Y0333555D02*
X0136060Y0333815D01*
X0135800Y0333555D02*
X0135800Y0328646D01*
X0139800Y0324646D01*
X0139800Y0319882D01*
X0156564Y0319882D01*
X0162300Y0314146D01*
X0162300Y0304744D01*
X0162233Y0304677D01*
X0162300Y0304610D01*
X0162300Y0297146D01*
X0167300Y0297646D02*
X0167300Y0304744D01*
X0167233Y0304677D01*
X0167300Y0304744D02*
X0167300Y0309646D01*
X0167300Y0328646D01*
X0162131Y0333815D01*
X0143540Y0333815D01*
X0150300Y0338646D02*
X0150298Y0338769D01*
X0150292Y0338891D01*
X0150282Y0339014D01*
X0150269Y0339136D01*
X0150251Y0339257D01*
X0150229Y0339378D01*
X0150204Y0339498D01*
X0150175Y0339618D01*
X0150142Y0339736D01*
X0150105Y0339853D01*
X0150064Y0339969D01*
X0150020Y0340084D01*
X0149972Y0340197D01*
X0149921Y0340308D01*
X0149866Y0340418D01*
X0149807Y0340526D01*
X0149745Y0340632D01*
X0149680Y0340736D01*
X0149611Y0340838D01*
X0149539Y0340937D01*
X0149464Y0341035D01*
X0149386Y0341129D01*
X0149305Y0341222D01*
X0149221Y0341311D01*
X0149134Y0341398D01*
X0149045Y0341482D01*
X0148952Y0341563D01*
X0148858Y0341641D01*
X0148760Y0341716D01*
X0148661Y0341788D01*
X0148559Y0341857D01*
X0148455Y0341922D01*
X0148349Y0341984D01*
X0148241Y0342043D01*
X0148131Y0342098D01*
X0148020Y0342149D01*
X0147907Y0342197D01*
X0147792Y0342241D01*
X0147676Y0342282D01*
X0147559Y0342319D01*
X0147441Y0342352D01*
X0147321Y0342381D01*
X0147201Y0342406D01*
X0147080Y0342428D01*
X0146959Y0342446D01*
X0146837Y0342459D01*
X0146714Y0342469D01*
X0146592Y0342475D01*
X0146469Y0342477D01*
X0146469Y0342476D02*
X0139800Y0342476D01*
X0131000Y0356146D02*
X0196800Y0356146D01*
X0197094Y0356142D01*
X0197388Y0356132D01*
X0197682Y0356114D01*
X0197975Y0356089D01*
X0198268Y0356057D01*
X0198559Y0356018D01*
X0198850Y0355972D01*
X0199140Y0355919D01*
X0199428Y0355859D01*
X0199714Y0355792D01*
X0199999Y0355718D01*
X0200282Y0355638D01*
X0200563Y0355550D01*
X0200842Y0355456D01*
X0201118Y0355355D01*
X0201392Y0355247D01*
X0201663Y0355133D01*
X0201931Y0355012D01*
X0202197Y0354885D01*
X0202459Y0354751D01*
X0202718Y0354611D01*
X0202973Y0354465D01*
X0203225Y0354313D01*
X0203473Y0354155D01*
X0203717Y0353990D01*
X0203957Y0353820D01*
X0204193Y0353645D01*
X0204425Y0353463D01*
X0204652Y0353276D01*
X0204875Y0353084D01*
X0205093Y0352886D01*
X0205306Y0352683D01*
X0205514Y0352475D01*
X0205717Y0352262D01*
X0205915Y0352044D01*
X0206107Y0351821D01*
X0206294Y0351594D01*
X0206476Y0351362D01*
X0206651Y0351126D01*
X0206821Y0350886D01*
X0206986Y0350642D01*
X0207144Y0350394D01*
X0207296Y0350142D01*
X0207442Y0349887D01*
X0207582Y0349628D01*
X0207716Y0349366D01*
X0207843Y0349100D01*
X0207964Y0348832D01*
X0208078Y0348561D01*
X0208186Y0348287D01*
X0208287Y0348011D01*
X0208381Y0347732D01*
X0208469Y0347451D01*
X0208549Y0347168D01*
X0208623Y0346883D01*
X0208690Y0346597D01*
X0208750Y0346309D01*
X0208803Y0346019D01*
X0208849Y0345728D01*
X0208888Y0345437D01*
X0208920Y0345144D01*
X0208945Y0344851D01*
X0208963Y0344557D01*
X0208973Y0344263D01*
X0208977Y0343969D01*
X0208977Y0342146D01*
X0214036Y0325646D02*
X0214036Y0305146D01*
X0216800Y0305146D01*
X0214536Y0304646D02*
X0214036Y0305146D01*
X0216800Y0305146D02*
X0216981Y0305144D01*
X0217162Y0305137D01*
X0217343Y0305126D01*
X0217524Y0305111D01*
X0217704Y0305091D01*
X0217884Y0305067D01*
X0218063Y0305039D01*
X0218241Y0305006D01*
X0218418Y0304969D01*
X0218595Y0304928D01*
X0218770Y0304883D01*
X0218945Y0304833D01*
X0219118Y0304779D01*
X0219289Y0304721D01*
X0219460Y0304659D01*
X0219628Y0304592D01*
X0219795Y0304522D01*
X0219961Y0304448D01*
X0220124Y0304369D01*
X0220285Y0304287D01*
X0220445Y0304201D01*
X0220602Y0304111D01*
X0220757Y0304017D01*
X0220910Y0303920D01*
X0221060Y0303818D01*
X0221208Y0303714D01*
X0221354Y0303605D01*
X0221496Y0303494D01*
X0221636Y0303378D01*
X0221773Y0303260D01*
X0221908Y0303138D01*
X0222039Y0303013D01*
X0222167Y0302885D01*
X0222292Y0302754D01*
X0222414Y0302619D01*
X0222532Y0302482D01*
X0222648Y0302342D01*
X0222759Y0302200D01*
X0222868Y0302054D01*
X0222972Y0301906D01*
X0223074Y0301756D01*
X0223171Y0301603D01*
X0223265Y0301448D01*
X0223355Y0301291D01*
X0223441Y0301131D01*
X0223523Y0300970D01*
X0223602Y0300807D01*
X0223676Y0300641D01*
X0223746Y0300474D01*
X0223813Y0300306D01*
X0223875Y0300135D01*
X0223933Y0299964D01*
X0223987Y0299791D01*
X0224037Y0299616D01*
X0224082Y0299441D01*
X0224123Y0299264D01*
X0224160Y0299087D01*
X0224193Y0298909D01*
X0224221Y0298730D01*
X0224245Y0298550D01*
X0224265Y0298370D01*
X0224280Y0298189D01*
X0224291Y0298008D01*
X0224298Y0297827D01*
X0224300Y0297646D01*
X0224300Y0291146D01*
X0227300Y0279646D02*
X0207477Y0279646D01*
X0212800Y0279646D01*
X0207800Y0279323D02*
X0207800Y0272646D01*
X0207800Y0279323D02*
X0207798Y0279357D01*
X0207793Y0279390D01*
X0207784Y0279423D01*
X0207772Y0279454D01*
X0207757Y0279485D01*
X0207738Y0279513D01*
X0207717Y0279539D01*
X0207693Y0279563D01*
X0207667Y0279584D01*
X0207639Y0279603D01*
X0207608Y0279618D01*
X0207577Y0279630D01*
X0207544Y0279639D01*
X0207511Y0279644D01*
X0207477Y0279646D01*
X0209300Y0291646D02*
X0214036Y0291646D01*
X0224300Y0291146D02*
X0224297Y0290868D01*
X0224287Y0290590D01*
X0224270Y0290313D01*
X0224246Y0290036D01*
X0224216Y0289760D01*
X0224179Y0289484D01*
X0224136Y0289210D01*
X0224086Y0288937D01*
X0224029Y0288664D01*
X0223966Y0288394D01*
X0223896Y0288125D01*
X0223820Y0287858D01*
X0223737Y0287592D01*
X0223648Y0287329D01*
X0223553Y0287068D01*
X0223451Y0286809D01*
X0223343Y0286553D01*
X0223229Y0286300D01*
X0223109Y0286049D01*
X0222983Y0285802D01*
X0222851Y0285557D01*
X0222713Y0285316D01*
X0222569Y0285078D01*
X0222419Y0284844D01*
X0222264Y0284613D01*
X0222104Y0284386D01*
X0221938Y0284164D01*
X0221766Y0283945D01*
X0221590Y0283730D01*
X0221408Y0283520D01*
X0221221Y0283314D01*
X0221029Y0283113D01*
X0220833Y0282917D01*
X0220632Y0282725D01*
X0220426Y0282538D01*
X0220216Y0282356D01*
X0220001Y0282180D01*
X0219782Y0282008D01*
X0219560Y0281842D01*
X0219333Y0281682D01*
X0219102Y0281527D01*
X0218868Y0281377D01*
X0218630Y0281233D01*
X0218389Y0281095D01*
X0218144Y0280963D01*
X0217897Y0280837D01*
X0217646Y0280717D01*
X0217393Y0280603D01*
X0217137Y0280495D01*
X0216878Y0280393D01*
X0216617Y0280298D01*
X0216354Y0280209D01*
X0216088Y0280126D01*
X0215821Y0280050D01*
X0215552Y0279980D01*
X0215282Y0279917D01*
X0215009Y0279860D01*
X0214736Y0279810D01*
X0214462Y0279767D01*
X0214186Y0279730D01*
X0213910Y0279700D01*
X0213633Y0279676D01*
X0213356Y0279659D01*
X0213078Y0279649D01*
X0212800Y0279646D01*
X0209300Y0291646D02*
X0209154Y0291648D01*
X0209007Y0291654D01*
X0208861Y0291664D01*
X0208715Y0291677D01*
X0208570Y0291695D01*
X0208425Y0291716D01*
X0208281Y0291741D01*
X0208137Y0291770D01*
X0207995Y0291803D01*
X0207853Y0291840D01*
X0207712Y0291880D01*
X0207573Y0291924D01*
X0207434Y0291972D01*
X0207297Y0292024D01*
X0207161Y0292079D01*
X0207027Y0292138D01*
X0206895Y0292200D01*
X0206764Y0292266D01*
X0206635Y0292335D01*
X0206508Y0292407D01*
X0206383Y0292483D01*
X0206260Y0292563D01*
X0206139Y0292645D01*
X0206020Y0292731D01*
X0205904Y0292820D01*
X0205790Y0292912D01*
X0205678Y0293007D01*
X0205569Y0293105D01*
X0205463Y0293205D01*
X0205359Y0293309D01*
X0205259Y0293415D01*
X0205161Y0293524D01*
X0205066Y0293636D01*
X0204974Y0293750D01*
X0204885Y0293866D01*
X0204799Y0293985D01*
X0204717Y0294106D01*
X0204637Y0294229D01*
X0204561Y0294354D01*
X0204489Y0294481D01*
X0204420Y0294610D01*
X0204354Y0294741D01*
X0204292Y0294873D01*
X0204233Y0295007D01*
X0204178Y0295143D01*
X0204126Y0295280D01*
X0204078Y0295419D01*
X0204034Y0295558D01*
X0203994Y0295699D01*
X0203957Y0295841D01*
X0203924Y0295983D01*
X0203895Y0296127D01*
X0203870Y0296271D01*
X0203849Y0296416D01*
X0203831Y0296561D01*
X0203818Y0296707D01*
X0203808Y0296853D01*
X0203802Y0297000D01*
X0203800Y0297146D01*
X0203800Y0298646D01*
X0203798Y0298806D01*
X0203792Y0298965D01*
X0203782Y0299124D01*
X0203769Y0299283D01*
X0203751Y0299442D01*
X0203730Y0299600D01*
X0203704Y0299757D01*
X0203675Y0299914D01*
X0203642Y0300070D01*
X0203605Y0300225D01*
X0203565Y0300380D01*
X0203520Y0300533D01*
X0203472Y0300685D01*
X0203420Y0300836D01*
X0203364Y0300985D01*
X0203305Y0301133D01*
X0203242Y0301280D01*
X0203176Y0301425D01*
X0203106Y0301568D01*
X0203032Y0301710D01*
X0202956Y0301850D01*
X0202875Y0301988D01*
X0202792Y0302123D01*
X0202705Y0302257D01*
X0202614Y0302389D01*
X0202521Y0302518D01*
X0202424Y0302645D01*
X0202325Y0302770D01*
X0202222Y0302892D01*
X0202116Y0303011D01*
X0202008Y0303128D01*
X0201896Y0303242D01*
X0201782Y0303354D01*
X0201665Y0303462D01*
X0201546Y0303568D01*
X0201424Y0303671D01*
X0201299Y0303770D01*
X0201172Y0303867D01*
X0201043Y0303960D01*
X0200911Y0304051D01*
X0200777Y0304138D01*
X0200642Y0304221D01*
X0200504Y0304302D01*
X0200364Y0304378D01*
X0200222Y0304452D01*
X0200079Y0304522D01*
X0199934Y0304588D01*
X0199787Y0304651D01*
X0199639Y0304710D01*
X0199490Y0304766D01*
X0199339Y0304818D01*
X0199187Y0304866D01*
X0199034Y0304911D01*
X0198879Y0304951D01*
X0198724Y0304988D01*
X0198568Y0305021D01*
X0198411Y0305050D01*
X0198254Y0305076D01*
X0198096Y0305097D01*
X0197937Y0305115D01*
X0197778Y0305128D01*
X0197619Y0305138D01*
X0197460Y0305144D01*
X0197300Y0305146D01*
X0193564Y0305146D01*
X0177741Y0305146D01*
X0177233Y0304638D01*
X0172233Y0304677D02*
X0172233Y0311579D01*
X0175800Y0315146D01*
X0204036Y0315146D01*
X0204278Y0315143D01*
X0204519Y0315134D01*
X0204760Y0315120D01*
X0205001Y0315099D01*
X0205241Y0315073D01*
X0205481Y0315041D01*
X0205720Y0315003D01*
X0205957Y0314960D01*
X0206194Y0314910D01*
X0206429Y0314855D01*
X0206663Y0314795D01*
X0206895Y0314728D01*
X0207126Y0314657D01*
X0207355Y0314579D01*
X0207582Y0314496D01*
X0207807Y0314408D01*
X0208030Y0314314D01*
X0208250Y0314215D01*
X0208468Y0314110D01*
X0208683Y0314001D01*
X0208896Y0313886D01*
X0209106Y0313766D01*
X0209312Y0313641D01*
X0209516Y0313511D01*
X0209717Y0313376D01*
X0209914Y0313236D01*
X0210108Y0313092D01*
X0210298Y0312943D01*
X0210484Y0312789D01*
X0210667Y0312631D01*
X0210846Y0312469D01*
X0211021Y0312302D01*
X0211192Y0312131D01*
X0211359Y0311956D01*
X0211521Y0311777D01*
X0211679Y0311594D01*
X0211833Y0311408D01*
X0211982Y0311218D01*
X0212126Y0311024D01*
X0212266Y0310827D01*
X0212401Y0310626D01*
X0212531Y0310422D01*
X0212656Y0310216D01*
X0212776Y0310006D01*
X0212891Y0309793D01*
X0213000Y0309578D01*
X0213105Y0309360D01*
X0213204Y0309140D01*
X0213298Y0308917D01*
X0213386Y0308692D01*
X0213469Y0308465D01*
X0213547Y0308236D01*
X0213618Y0308005D01*
X0213685Y0307773D01*
X0213745Y0307539D01*
X0213800Y0307304D01*
X0213850Y0307067D01*
X0213893Y0306830D01*
X0213931Y0306591D01*
X0213963Y0306351D01*
X0213989Y0306111D01*
X0214010Y0305870D01*
X0214024Y0305629D01*
X0214033Y0305388D01*
X0214036Y0305146D01*
X0193800Y0291409D02*
X0193800Y0284646D01*
X0192123Y0282969D01*
X0192123Y0279646D01*
X0185800Y0279646D01*
X0184300Y0278146D01*
X0177595Y0278146D01*
X0177595Y0278145D02*
X0177622Y0278147D01*
X0177648Y0278152D01*
X0177673Y0278161D01*
X0177698Y0278172D01*
X0177720Y0278187D01*
X0177740Y0278205D01*
X0177758Y0278225D01*
X0177773Y0278248D01*
X0177784Y0278272D01*
X0177793Y0278297D01*
X0177798Y0278323D01*
X0177800Y0278350D01*
X0177800Y0288646D01*
X0177798Y0288786D01*
X0177792Y0288926D01*
X0177782Y0289066D01*
X0177769Y0289206D01*
X0177751Y0289345D01*
X0177729Y0289484D01*
X0177704Y0289621D01*
X0177675Y0289759D01*
X0177642Y0289895D01*
X0177605Y0290030D01*
X0177564Y0290164D01*
X0177519Y0290297D01*
X0177471Y0290429D01*
X0177419Y0290559D01*
X0177364Y0290688D01*
X0177305Y0290815D01*
X0177242Y0290941D01*
X0177176Y0291065D01*
X0177107Y0291186D01*
X0177034Y0291306D01*
X0176957Y0291424D01*
X0176878Y0291539D01*
X0176795Y0291653D01*
X0176709Y0291763D01*
X0176620Y0291872D01*
X0176528Y0291978D01*
X0176433Y0292081D01*
X0176336Y0292182D01*
X0176235Y0292279D01*
X0176132Y0292374D01*
X0176026Y0292466D01*
X0175917Y0292555D01*
X0175807Y0292641D01*
X0175693Y0292724D01*
X0175578Y0292803D01*
X0175460Y0292880D01*
X0175340Y0292953D01*
X0175219Y0293022D01*
X0175095Y0293088D01*
X0174969Y0293151D01*
X0174842Y0293210D01*
X0174713Y0293265D01*
X0174583Y0293317D01*
X0174451Y0293365D01*
X0174318Y0293410D01*
X0174184Y0293451D01*
X0174049Y0293488D01*
X0173913Y0293521D01*
X0173775Y0293550D01*
X0173638Y0293575D01*
X0173499Y0293597D01*
X0173360Y0293615D01*
X0173220Y0293628D01*
X0173080Y0293638D01*
X0172940Y0293644D01*
X0172800Y0293646D01*
X0171300Y0293646D01*
X0171174Y0293648D01*
X0171049Y0293654D01*
X0170924Y0293664D01*
X0170799Y0293678D01*
X0170674Y0293695D01*
X0170550Y0293717D01*
X0170427Y0293742D01*
X0170305Y0293772D01*
X0170184Y0293805D01*
X0170064Y0293842D01*
X0169945Y0293882D01*
X0169828Y0293927D01*
X0169711Y0293975D01*
X0169597Y0294027D01*
X0169484Y0294082D01*
X0169373Y0294141D01*
X0169264Y0294203D01*
X0169157Y0294269D01*
X0169052Y0294338D01*
X0168949Y0294410D01*
X0168848Y0294485D01*
X0168750Y0294564D01*
X0168655Y0294646D01*
X0168562Y0294730D01*
X0168472Y0294818D01*
X0168384Y0294908D01*
X0168300Y0295001D01*
X0168218Y0295096D01*
X0168139Y0295194D01*
X0168064Y0295295D01*
X0167992Y0295398D01*
X0167923Y0295503D01*
X0167857Y0295610D01*
X0167795Y0295719D01*
X0167736Y0295830D01*
X0167681Y0295943D01*
X0167629Y0296057D01*
X0167581Y0296174D01*
X0167536Y0296291D01*
X0167496Y0296410D01*
X0167459Y0296530D01*
X0167426Y0296651D01*
X0167396Y0296773D01*
X0167371Y0296896D01*
X0167349Y0297020D01*
X0167332Y0297145D01*
X0167318Y0297270D01*
X0167308Y0297395D01*
X0167302Y0297520D01*
X0167300Y0297646D01*
X0162300Y0304610D02*
X0162298Y0304625D01*
X0162293Y0304639D01*
X0162285Y0304652D01*
X0162275Y0304662D01*
X0162262Y0304670D01*
X0162248Y0304675D01*
X0162233Y0304677D01*
X0157300Y0304610D02*
X0157300Y0300646D01*
X0156064Y0299409D01*
X0139800Y0299409D01*
X0140300Y0289146D02*
X0154300Y0289146D01*
X0154493Y0289148D01*
X0154687Y0289155D01*
X0154879Y0289167D01*
X0155072Y0289183D01*
X0155264Y0289204D01*
X0155456Y0289230D01*
X0155647Y0289260D01*
X0155837Y0289295D01*
X0156026Y0289334D01*
X0156215Y0289378D01*
X0156402Y0289427D01*
X0156588Y0289480D01*
X0156772Y0289538D01*
X0156955Y0289600D01*
X0157137Y0289666D01*
X0157317Y0289737D01*
X0157495Y0289812D01*
X0157671Y0289891D01*
X0157846Y0289975D01*
X0158018Y0290062D01*
X0158188Y0290154D01*
X0158356Y0290250D01*
X0158521Y0290350D01*
X0158684Y0290454D01*
X0158845Y0290562D01*
X0159002Y0290674D01*
X0159157Y0290789D01*
X0159309Y0290909D01*
X0159459Y0291031D01*
X0159605Y0291158D01*
X0159748Y0291288D01*
X0159888Y0291421D01*
X0160025Y0291558D01*
X0160158Y0291698D01*
X0160288Y0291841D01*
X0160415Y0291987D01*
X0160537Y0292137D01*
X0160657Y0292289D01*
X0160772Y0292444D01*
X0160884Y0292601D01*
X0160992Y0292762D01*
X0161096Y0292925D01*
X0161196Y0293090D01*
X0161292Y0293258D01*
X0161384Y0293428D01*
X0161471Y0293600D01*
X0161555Y0293775D01*
X0161634Y0293951D01*
X0161709Y0294129D01*
X0161780Y0294309D01*
X0161846Y0294491D01*
X0161908Y0294674D01*
X0161966Y0294858D01*
X0162019Y0295044D01*
X0162068Y0295231D01*
X0162112Y0295420D01*
X0162151Y0295609D01*
X0162186Y0295799D01*
X0162216Y0295990D01*
X0162242Y0296182D01*
X0162263Y0296374D01*
X0162279Y0296567D01*
X0162291Y0296759D01*
X0162298Y0296953D01*
X0162300Y0297146D01*
X0157300Y0304610D02*
X0157233Y0304677D01*
X0157065Y0304679D01*
X0156898Y0304685D01*
X0156731Y0304695D01*
X0156564Y0304709D01*
X0156397Y0304728D01*
X0156231Y0304750D01*
X0156066Y0304776D01*
X0155901Y0304806D01*
X0155737Y0304840D01*
X0155574Y0304878D01*
X0155412Y0304921D01*
X0155251Y0304966D01*
X0155091Y0305016D01*
X0154932Y0305070D01*
X0154775Y0305128D01*
X0154619Y0305189D01*
X0154464Y0305254D01*
X0154311Y0305323D01*
X0154160Y0305395D01*
X0154011Y0305471D01*
X0153864Y0305551D01*
X0153718Y0305634D01*
X0153575Y0305721D01*
X0153434Y0305811D01*
X0153295Y0305904D01*
X0153158Y0306001D01*
X0153024Y0306101D01*
X0152892Y0306205D01*
X0152762Y0306311D01*
X0152636Y0306421D01*
X0152512Y0306533D01*
X0152390Y0306649D01*
X0152272Y0306767D01*
X0152156Y0306889D01*
X0152044Y0307013D01*
X0151934Y0307139D01*
X0151828Y0307269D01*
X0151724Y0307401D01*
X0151624Y0307535D01*
X0151527Y0307672D01*
X0151434Y0307811D01*
X0151344Y0307952D01*
X0151257Y0308095D01*
X0151174Y0308241D01*
X0151094Y0308388D01*
X0151018Y0308537D01*
X0150946Y0308688D01*
X0150877Y0308841D01*
X0150812Y0308996D01*
X0150751Y0309152D01*
X0150693Y0309309D01*
X0150639Y0309468D01*
X0150589Y0309628D01*
X0150544Y0309789D01*
X0150501Y0309951D01*
X0150463Y0310114D01*
X0150429Y0310278D01*
X0150399Y0310443D01*
X0150373Y0310608D01*
X0150351Y0310774D01*
X0150332Y0310941D01*
X0150318Y0311108D01*
X0150308Y0311275D01*
X0150302Y0311442D01*
X0150300Y0311610D01*
X0150300Y0311646D01*
X0140300Y0289146D02*
X0140166Y0289144D01*
X0140031Y0289138D01*
X0139897Y0289129D01*
X0139764Y0289115D01*
X0139630Y0289098D01*
X0139498Y0289077D01*
X0139366Y0289052D01*
X0139234Y0289024D01*
X0139104Y0288991D01*
X0138974Y0288955D01*
X0138846Y0288916D01*
X0138719Y0288872D01*
X0138593Y0288825D01*
X0138468Y0288775D01*
X0138345Y0288721D01*
X0138224Y0288663D01*
X0138104Y0288602D01*
X0137986Y0288538D01*
X0137870Y0288470D01*
X0137756Y0288399D01*
X0137644Y0288325D01*
X0137534Y0288247D01*
X0137427Y0288167D01*
X0137322Y0288083D01*
X0137219Y0287997D01*
X0137119Y0287907D01*
X0137021Y0287815D01*
X0136926Y0287720D01*
X0136834Y0287622D01*
X0136744Y0287522D01*
X0136658Y0287419D01*
X0136574Y0287314D01*
X0136494Y0287207D01*
X0136416Y0287097D01*
X0136342Y0286985D01*
X0136271Y0286871D01*
X0136203Y0286755D01*
X0136139Y0286637D01*
X0136078Y0286517D01*
X0136020Y0286396D01*
X0135966Y0286273D01*
X0135916Y0286148D01*
X0135869Y0286022D01*
X0135825Y0285895D01*
X0135786Y0285767D01*
X0135750Y0285637D01*
X0135717Y0285507D01*
X0135689Y0285375D01*
X0135664Y0285243D01*
X0135643Y0285111D01*
X0135626Y0284977D01*
X0135612Y0284844D01*
X0135603Y0284710D01*
X0135597Y0284575D01*
X0135595Y0284441D01*
X0135595Y0275146D01*
X0152005Y0278146D02*
X0152005Y0269441D01*
X0152008Y0269216D01*
X0152016Y0268992D01*
X0152029Y0268768D01*
X0152048Y0268544D01*
X0152073Y0268321D01*
X0152103Y0268098D01*
X0152138Y0267876D01*
X0152178Y0267655D01*
X0152224Y0267435D01*
X0152275Y0267217D01*
X0152331Y0266999D01*
X0152393Y0266783D01*
X0152460Y0266569D01*
X0152532Y0266356D01*
X0152609Y0266145D01*
X0152691Y0265936D01*
X0152778Y0265729D01*
X0152871Y0265524D01*
X0152968Y0265322D01*
X0153070Y0265121D01*
X0153176Y0264924D01*
X0153288Y0264729D01*
X0153404Y0264537D01*
X0153525Y0264347D01*
X0153650Y0264161D01*
X0153780Y0263978D01*
X0153914Y0263797D01*
X0154053Y0263621D01*
X0154196Y0263447D01*
X0154343Y0263277D01*
X0154494Y0263111D01*
X0154649Y0262948D01*
X0154807Y0262790D01*
X0154970Y0262635D01*
X0155136Y0262484D01*
X0155306Y0262337D01*
X0155480Y0262194D01*
X0155656Y0262055D01*
X0155837Y0261921D01*
X0156020Y0261791D01*
X0156206Y0261666D01*
X0156396Y0261545D01*
X0156588Y0261429D01*
X0156783Y0261317D01*
X0156980Y0261211D01*
X0157181Y0261109D01*
X0157383Y0261012D01*
X0157588Y0260919D01*
X0157795Y0260832D01*
X0158004Y0260750D01*
X0158215Y0260673D01*
X0158428Y0260601D01*
X0158642Y0260534D01*
X0158858Y0260472D01*
X0159076Y0260416D01*
X0159294Y0260365D01*
X0159514Y0260319D01*
X0159735Y0260279D01*
X0159957Y0260244D01*
X0160180Y0260214D01*
X0160403Y0260189D01*
X0160627Y0260170D01*
X0160851Y0260157D01*
X0161075Y0260149D01*
X0161300Y0260146D01*
X0195300Y0260146D01*
X0190300Y0254646D02*
X0190800Y0254146D01*
X0202800Y0254146D01*
X0206300Y0250646D01*
X0216800Y0250646D01*
X0216800Y0230646D02*
X0192800Y0230646D01*
X0185985Y0223831D01*
X0161099Y0223831D01*
X0161099Y0227768D02*
X0181422Y0227768D01*
X0181552Y0227770D01*
X0181681Y0227776D01*
X0181811Y0227785D01*
X0181940Y0227799D01*
X0182068Y0227816D01*
X0182196Y0227837D01*
X0182324Y0227862D01*
X0182450Y0227890D01*
X0182576Y0227923D01*
X0182701Y0227959D01*
X0182824Y0227999D01*
X0182946Y0228042D01*
X0183067Y0228089D01*
X0183187Y0228139D01*
X0183305Y0228194D01*
X0183421Y0228251D01*
X0183536Y0228312D01*
X0183648Y0228376D01*
X0183759Y0228444D01*
X0183868Y0228515D01*
X0183974Y0228589D01*
X0184079Y0228666D01*
X0184181Y0228746D01*
X0184280Y0228830D01*
X0184377Y0228916D01*
X0184472Y0229005D01*
X0184563Y0229096D01*
X0184652Y0229191D01*
X0184738Y0229288D01*
X0184822Y0229387D01*
X0184902Y0229489D01*
X0184979Y0229594D01*
X0185053Y0229700D01*
X0185124Y0229809D01*
X0185192Y0229920D01*
X0185256Y0230032D01*
X0185317Y0230147D01*
X0185374Y0230263D01*
X0185429Y0230381D01*
X0185479Y0230501D01*
X0185526Y0230622D01*
X0185569Y0230744D01*
X0185609Y0230867D01*
X0185645Y0230992D01*
X0185678Y0231118D01*
X0185706Y0231244D01*
X0185731Y0231372D01*
X0185752Y0231500D01*
X0185769Y0231628D01*
X0185783Y0231757D01*
X0185792Y0231887D01*
X0185798Y0232016D01*
X0185800Y0232146D01*
X0185800Y0240453D01*
X0191855Y0249646D02*
X0191800Y0249701D01*
X0191800Y0253146D01*
X0190800Y0254146D01*
X0190300Y0254646D02*
X0180300Y0254646D01*
X0178855Y0253201D01*
X0178855Y0249646D01*
X0173300Y0244091D01*
X0173300Y0235146D01*
X0169859Y0231705D01*
X0161099Y0231705D01*
X0161099Y0219894D02*
X0196355Y0219894D01*
X0196607Y0220146D01*
X0185989Y0215957D02*
X0192800Y0209146D01*
X0192800Y0202646D02*
X0235800Y0202646D01*
X0220702Y0220146D02*
X0209993Y0220146D01*
X0192800Y0202646D02*
X0183426Y0212020D01*
X0161099Y0212020D01*
X0161099Y0215957D02*
X0185989Y0215957D01*
X0181363Y0208083D02*
X0191300Y0198146D01*
X0261300Y0198146D01*
X0264800Y0194646D01*
X0264800Y0167146D01*
X0270800Y0161146D01*
X0259300Y0146146D02*
X0259300Y0181146D01*
X0254300Y0186146D01*
X0194300Y0186146D01*
X0176300Y0204146D01*
X0161099Y0204146D01*
X0161099Y0208083D02*
X0181363Y0208083D01*
X0186800Y0158882D02*
X0186800Y0148646D01*
X0192300Y0143146D01*
X0192300Y0129146D01*
X0192303Y0128904D01*
X0192312Y0128663D01*
X0192326Y0128422D01*
X0192347Y0128181D01*
X0192373Y0127941D01*
X0192405Y0127701D01*
X0192443Y0127462D01*
X0192486Y0127225D01*
X0192536Y0126988D01*
X0192591Y0126753D01*
X0192651Y0126519D01*
X0192718Y0126287D01*
X0192789Y0126056D01*
X0192867Y0125827D01*
X0192950Y0125600D01*
X0193038Y0125375D01*
X0193132Y0125152D01*
X0193231Y0124932D01*
X0193336Y0124714D01*
X0193445Y0124499D01*
X0193560Y0124286D01*
X0193680Y0124076D01*
X0193805Y0123870D01*
X0193935Y0123666D01*
X0194070Y0123465D01*
X0194210Y0123268D01*
X0194354Y0123074D01*
X0194503Y0122884D01*
X0194657Y0122698D01*
X0194815Y0122515D01*
X0194977Y0122336D01*
X0195144Y0122161D01*
X0195315Y0121990D01*
X0195490Y0121823D01*
X0195669Y0121661D01*
X0195852Y0121503D01*
X0196038Y0121349D01*
X0196228Y0121200D01*
X0196422Y0121056D01*
X0196619Y0120916D01*
X0196820Y0120781D01*
X0197024Y0120651D01*
X0197230Y0120526D01*
X0197440Y0120406D01*
X0197653Y0120291D01*
X0197868Y0120182D01*
X0198086Y0120077D01*
X0198306Y0119978D01*
X0198529Y0119884D01*
X0198754Y0119796D01*
X0198981Y0119713D01*
X0199210Y0119635D01*
X0199441Y0119564D01*
X0199673Y0119497D01*
X0199907Y0119437D01*
X0200142Y0119382D01*
X0200379Y0119332D01*
X0200616Y0119289D01*
X0200855Y0119251D01*
X0201095Y0119219D01*
X0201335Y0119193D01*
X0201576Y0119172D01*
X0201817Y0119158D01*
X0202058Y0119149D01*
X0202300Y0119146D01*
X0221300Y0149146D02*
X0222800Y0149146D01*
X0221300Y0149146D02*
X0221193Y0149148D01*
X0221086Y0149154D01*
X0220979Y0149163D01*
X0220873Y0149177D01*
X0220767Y0149194D01*
X0220662Y0149215D01*
X0220558Y0149239D01*
X0220455Y0149268D01*
X0220353Y0149300D01*
X0220252Y0149335D01*
X0220152Y0149374D01*
X0220054Y0149417D01*
X0219957Y0149463D01*
X0219862Y0149513D01*
X0219769Y0149566D01*
X0219678Y0149622D01*
X0219589Y0149682D01*
X0219502Y0149744D01*
X0219418Y0149810D01*
X0219335Y0149879D01*
X0219256Y0149950D01*
X0219179Y0150025D01*
X0219104Y0150102D01*
X0219033Y0150181D01*
X0218964Y0150264D01*
X0218898Y0150348D01*
X0218836Y0150435D01*
X0218776Y0150524D01*
X0218720Y0150615D01*
X0218667Y0150708D01*
X0218617Y0150803D01*
X0218571Y0150900D01*
X0218528Y0150998D01*
X0218489Y0151098D01*
X0218454Y0151199D01*
X0218422Y0151301D01*
X0218393Y0151404D01*
X0218369Y0151508D01*
X0218348Y0151613D01*
X0218331Y0151719D01*
X0218317Y0151825D01*
X0218308Y0151932D01*
X0218302Y0152039D01*
X0218300Y0152146D01*
X0218300Y0158882D01*
X0218302Y0158912D01*
X0218307Y0158941D01*
X0218315Y0158969D01*
X0218326Y0158997D01*
X0218340Y0159022D01*
X0218358Y0159047D01*
X0218377Y0159069D01*
X0218399Y0159088D01*
X0218424Y0159106D01*
X0218449Y0159120D01*
X0218477Y0159131D01*
X0218505Y0159139D01*
X0218534Y0159144D01*
X0218564Y0159146D01*
X0231300Y0133646D02*
X0231302Y0133515D01*
X0231308Y0133385D01*
X0231318Y0133255D01*
X0231332Y0133125D01*
X0231349Y0132996D01*
X0231371Y0132867D01*
X0231396Y0132739D01*
X0231426Y0132611D01*
X0231459Y0132485D01*
X0231496Y0132360D01*
X0231536Y0132236D01*
X0231581Y0132113D01*
X0231629Y0131992D01*
X0231681Y0131872D01*
X0231736Y0131754D01*
X0231795Y0131637D01*
X0231858Y0131522D01*
X0231923Y0131410D01*
X0231993Y0131299D01*
X0232065Y0131190D01*
X0232141Y0131084D01*
X0232220Y0130980D01*
X0232302Y0130878D01*
X0232387Y0130779D01*
X0232475Y0130683D01*
X0232566Y0130589D01*
X0232660Y0130498D01*
X0232756Y0130410D01*
X0232855Y0130325D01*
X0232957Y0130243D01*
X0233061Y0130164D01*
X0233167Y0130088D01*
X0233276Y0130016D01*
X0233387Y0129946D01*
X0233499Y0129881D01*
X0233614Y0129818D01*
X0233731Y0129759D01*
X0233849Y0129704D01*
X0233969Y0129652D01*
X0234090Y0129604D01*
X0234213Y0129559D01*
X0234337Y0129519D01*
X0234462Y0129482D01*
X0234588Y0129449D01*
X0234716Y0129419D01*
X0234844Y0129394D01*
X0234973Y0129372D01*
X0235102Y0129355D01*
X0235232Y0129341D01*
X0235362Y0129331D01*
X0235492Y0129325D01*
X0235623Y0129323D01*
X0239300Y0129323D01*
X0131769Y0240563D02*
X0127831Y0240563D01*
X0123894Y0240563D02*
X0119957Y0240563D01*
X0119957Y0243988D01*
X0116020Y0244425D02*
X0116020Y0240563D01*
X0116020Y0244425D02*
X0116017Y0244648D01*
X0116009Y0244870D01*
X0115996Y0245093D01*
X0115977Y0245315D01*
X0115953Y0245536D01*
X0115923Y0245757D01*
X0115888Y0245977D01*
X0115848Y0246196D01*
X0115803Y0246415D01*
X0115752Y0246631D01*
X0115696Y0246847D01*
X0115635Y0247061D01*
X0115569Y0247274D01*
X0115497Y0247485D01*
X0115421Y0247694D01*
X0115339Y0247902D01*
X0115253Y0248107D01*
X0115161Y0248310D01*
X0115065Y0248511D01*
X0114964Y0248710D01*
X0114858Y0248906D01*
X0114747Y0249099D01*
X0114632Y0249290D01*
X0114512Y0249478D01*
X0114388Y0249663D01*
X0114259Y0249844D01*
X0114126Y0250023D01*
X0113989Y0250198D01*
X0113847Y0250370D01*
X0113701Y0250539D01*
X0113552Y0250704D01*
X0113398Y0250865D01*
X0113240Y0251023D01*
X0113079Y0251177D01*
X0112914Y0251326D01*
X0112745Y0251472D01*
X0112573Y0251614D01*
X0112398Y0251751D01*
X0112219Y0251884D01*
X0112038Y0252013D01*
X0111853Y0252137D01*
X0111665Y0252257D01*
X0111474Y0252372D01*
X0111281Y0252483D01*
X0111085Y0252589D01*
X0110886Y0252690D01*
X0110685Y0252786D01*
X0110482Y0252878D01*
X0110277Y0252964D01*
X0110069Y0253046D01*
X0109860Y0253122D01*
X0109649Y0253194D01*
X0109436Y0253260D01*
X0109222Y0253321D01*
X0109006Y0253377D01*
X0108790Y0253428D01*
X0108571Y0253473D01*
X0108352Y0253513D01*
X0108132Y0253548D01*
X0107911Y0253578D01*
X0107690Y0253602D01*
X0107468Y0253621D01*
X0107245Y0253634D01*
X0107023Y0253642D01*
X0106800Y0253645D01*
X0106800Y0253646D02*
X0095800Y0253646D01*
X0101800Y0259146D02*
X0104800Y0259146D01*
X0101800Y0259146D02*
X0101570Y0259149D01*
X0101341Y0259157D01*
X0101112Y0259171D01*
X0100883Y0259190D01*
X0100655Y0259215D01*
X0100427Y0259246D01*
X0100201Y0259282D01*
X0099975Y0259323D01*
X0099750Y0259370D01*
X0099527Y0259422D01*
X0099304Y0259480D01*
X0099084Y0259543D01*
X0098864Y0259611D01*
X0098647Y0259685D01*
X0098431Y0259763D01*
X0098218Y0259847D01*
X0098006Y0259936D01*
X0097797Y0260031D01*
X0097590Y0260130D01*
X0097385Y0260234D01*
X0097183Y0260343D01*
X0096984Y0260457D01*
X0096787Y0260576D01*
X0096594Y0260700D01*
X0096403Y0260828D01*
X0096216Y0260960D01*
X0096032Y0261098D01*
X0095851Y0261239D01*
X0095674Y0261385D01*
X0095500Y0261535D01*
X0095330Y0261689D01*
X0095164Y0261848D01*
X0095002Y0262010D01*
X0094843Y0262176D01*
X0094689Y0262346D01*
X0094539Y0262520D01*
X0094393Y0262697D01*
X0094252Y0262878D01*
X0094114Y0263062D01*
X0093982Y0263249D01*
X0093854Y0263440D01*
X0093730Y0263633D01*
X0093611Y0263830D01*
X0093497Y0264029D01*
X0093388Y0264231D01*
X0093284Y0264436D01*
X0093185Y0264643D01*
X0093090Y0264852D01*
X0093001Y0265064D01*
X0092917Y0265277D01*
X0092839Y0265493D01*
X0092765Y0265710D01*
X0092697Y0265930D01*
X0092634Y0266150D01*
X0092576Y0266373D01*
X0092524Y0266596D01*
X0092477Y0266821D01*
X0092436Y0267047D01*
X0092400Y0267273D01*
X0092369Y0267501D01*
X0092344Y0267729D01*
X0092325Y0267958D01*
X0092311Y0268187D01*
X0092303Y0268416D01*
X0092300Y0268646D01*
X0092300Y0274559D01*
X0080800Y0268646D02*
X0080804Y0268284D01*
X0080818Y0267921D01*
X0080839Y0267559D01*
X0080870Y0267198D01*
X0080909Y0266838D01*
X0080957Y0266479D01*
X0081014Y0266121D01*
X0081079Y0265764D01*
X0081153Y0265409D01*
X0081236Y0265056D01*
X0081327Y0264705D01*
X0081426Y0264357D01*
X0081534Y0264011D01*
X0081650Y0263667D01*
X0081775Y0263327D01*
X0081907Y0262990D01*
X0082048Y0262656D01*
X0082197Y0262325D01*
X0082354Y0261998D01*
X0082518Y0261675D01*
X0082690Y0261356D01*
X0082870Y0261042D01*
X0083058Y0260731D01*
X0083253Y0260426D01*
X0083455Y0260125D01*
X0083665Y0259829D01*
X0083881Y0259539D01*
X0084105Y0259253D01*
X0084335Y0258973D01*
X0084572Y0258699D01*
X0084816Y0258431D01*
X0085066Y0258168D01*
X0085322Y0257912D01*
X0085585Y0257662D01*
X0085853Y0257418D01*
X0086127Y0257181D01*
X0086407Y0256951D01*
X0086693Y0256727D01*
X0086983Y0256511D01*
X0087279Y0256301D01*
X0087580Y0256099D01*
X0087885Y0255904D01*
X0088196Y0255716D01*
X0088510Y0255536D01*
X0088829Y0255364D01*
X0089152Y0255200D01*
X0089479Y0255043D01*
X0089810Y0254894D01*
X0090144Y0254753D01*
X0090481Y0254621D01*
X0090821Y0254496D01*
X0091165Y0254380D01*
X0091511Y0254272D01*
X0091859Y0254173D01*
X0092210Y0254082D01*
X0092563Y0253999D01*
X0092918Y0253925D01*
X0093275Y0253860D01*
X0093633Y0253803D01*
X0093992Y0253755D01*
X0094352Y0253716D01*
X0094713Y0253685D01*
X0095075Y0253664D01*
X0095438Y0253650D01*
X0095800Y0253646D01*
X0096355Y0243591D02*
X0098800Y0241146D01*
X0098800Y0231807D01*
X0098698Y0231705D01*
X0098698Y0227768D02*
X0093678Y0227768D01*
X0093556Y0227770D01*
X0093434Y0227776D01*
X0093313Y0227785D01*
X0093192Y0227799D01*
X0093071Y0227816D01*
X0092951Y0227837D01*
X0092832Y0227861D01*
X0092714Y0227890D01*
X0092596Y0227922D01*
X0092480Y0227958D01*
X0092364Y0227997D01*
X0092250Y0228040D01*
X0092138Y0228087D01*
X0092027Y0228137D01*
X0091917Y0228191D01*
X0091810Y0228248D01*
X0091704Y0228308D01*
X0091600Y0228372D01*
X0091498Y0228439D01*
X0091399Y0228509D01*
X0091301Y0228582D01*
X0091206Y0228658D01*
X0091113Y0228737D01*
X0091023Y0228819D01*
X0090936Y0228904D01*
X0090851Y0228991D01*
X0090769Y0229081D01*
X0090690Y0229174D01*
X0090614Y0229269D01*
X0090541Y0229367D01*
X0090471Y0229466D01*
X0090404Y0229568D01*
X0090340Y0229672D01*
X0090280Y0229778D01*
X0090223Y0229885D01*
X0090169Y0229995D01*
X0090119Y0230106D01*
X0090072Y0230218D01*
X0090029Y0230332D01*
X0089990Y0230448D01*
X0089954Y0230564D01*
X0089922Y0230682D01*
X0089893Y0230800D01*
X0089869Y0230919D01*
X0089848Y0231039D01*
X0089831Y0231160D01*
X0089817Y0231281D01*
X0089808Y0231402D01*
X0089802Y0231524D01*
X0089800Y0231646D01*
X0089800Y0234646D01*
X0087745Y0236701D01*
X0084800Y0236701D01*
X0077800Y0236701D01*
X0077745Y0236646D01*
X0071745Y0236646D01*
X0071745Y0230146D01*
X0064855Y0230146D02*
X0064855Y0236646D01*
X0064855Y0239146D01*
X0064855Y0251146D01*
X0064855Y0257146D01*
X0071745Y0257146D02*
X0071745Y0256701D01*
X0071800Y0256646D01*
X0071800Y0251201D01*
X0071745Y0251146D01*
X0076300Y0251146D01*
X0077800Y0249646D01*
X0077800Y0243591D01*
X0084800Y0243591D01*
X0096355Y0243591D01*
X0104800Y0259145D02*
X0105166Y0259141D01*
X0105532Y0259127D01*
X0105898Y0259105D01*
X0106263Y0259074D01*
X0106627Y0259034D01*
X0106990Y0258986D01*
X0107352Y0258929D01*
X0107712Y0258863D01*
X0108071Y0258788D01*
X0108427Y0258705D01*
X0108782Y0258613D01*
X0109134Y0258512D01*
X0109484Y0258403D01*
X0109831Y0258286D01*
X0110175Y0258160D01*
X0110516Y0258026D01*
X0110853Y0257884D01*
X0111187Y0257733D01*
X0111517Y0257575D01*
X0111844Y0257409D01*
X0112166Y0257235D01*
X0112484Y0257053D01*
X0112797Y0256863D01*
X0113106Y0256666D01*
X0113410Y0256462D01*
X0113709Y0256250D01*
X0114003Y0256031D01*
X0114291Y0255806D01*
X0114574Y0255573D01*
X0114851Y0255333D01*
X0115122Y0255087D01*
X0115387Y0254834D01*
X0115646Y0254575D01*
X0115899Y0254310D01*
X0116145Y0254039D01*
X0116385Y0253762D01*
X0116618Y0253479D01*
X0116843Y0253191D01*
X0117062Y0252897D01*
X0117274Y0252598D01*
X0117478Y0252294D01*
X0117675Y0251985D01*
X0117865Y0251672D01*
X0118047Y0251354D01*
X0118221Y0251032D01*
X0118387Y0250705D01*
X0118545Y0250375D01*
X0118696Y0250041D01*
X0118838Y0249704D01*
X0118972Y0249363D01*
X0119098Y0249019D01*
X0119215Y0248672D01*
X0119324Y0248322D01*
X0119425Y0247970D01*
X0119517Y0247615D01*
X0119600Y0247259D01*
X0119675Y0246900D01*
X0119741Y0246540D01*
X0119798Y0246178D01*
X0119846Y0245815D01*
X0119886Y0245451D01*
X0119917Y0245086D01*
X0119939Y0244720D01*
X0119953Y0244354D01*
X0119957Y0243988D01*
X0098698Y0227768D02*
X0098576Y0227646D01*
X0098698Y0223831D02*
X0098457Y0223591D01*
X0084300Y0223591D01*
X0077300Y0223591D01*
X0077300Y0216701D02*
X0077245Y0216646D01*
X0072800Y0216646D01*
X0069300Y0213146D01*
X0069300Y0209591D01*
X0063300Y0209591D01*
X0058800Y0204646D02*
X0058800Y0217646D01*
X0064800Y0223646D01*
X0064800Y0230091D01*
X0064855Y0230146D01*
X0077300Y0216701D02*
X0084300Y0216701D01*
X0087855Y0216701D01*
X0090800Y0219646D01*
X0098450Y0219646D01*
X0098698Y0219894D01*
X0087300Y0208646D02*
X0088300Y0207646D01*
X0088300Y0184091D01*
X0088300Y0183146D01*
X0090922Y0180524D01*
X0098698Y0180524D01*
X0098698Y0176587D02*
X0081052Y0176587D01*
X0081039Y0176588D01*
X0081026Y0176593D01*
X0081015Y0176600D01*
X0081006Y0176609D01*
X0080999Y0176620D01*
X0080994Y0176633D01*
X0080993Y0176646D01*
X0080993Y0184508D01*
X0080991Y0184535D01*
X0080985Y0184562D01*
X0080976Y0184588D01*
X0080962Y0184612D01*
X0080946Y0184634D01*
X0080926Y0184654D01*
X0080904Y0184670D01*
X0080880Y0184684D01*
X0080854Y0184693D01*
X0080827Y0184699D01*
X0080800Y0184701D01*
X0080800Y0191591D02*
X0080981Y0191589D01*
X0081162Y0191582D01*
X0081343Y0191571D01*
X0081524Y0191556D01*
X0081704Y0191536D01*
X0081884Y0191512D01*
X0082063Y0191484D01*
X0082241Y0191451D01*
X0082418Y0191414D01*
X0082595Y0191373D01*
X0082770Y0191328D01*
X0082945Y0191278D01*
X0083118Y0191224D01*
X0083289Y0191166D01*
X0083460Y0191104D01*
X0083628Y0191037D01*
X0083795Y0190967D01*
X0083961Y0190893D01*
X0084124Y0190814D01*
X0084285Y0190732D01*
X0084445Y0190646D01*
X0084602Y0190556D01*
X0084757Y0190462D01*
X0084910Y0190365D01*
X0085060Y0190263D01*
X0085208Y0190159D01*
X0085354Y0190050D01*
X0085496Y0189939D01*
X0085636Y0189823D01*
X0085773Y0189705D01*
X0085908Y0189583D01*
X0086039Y0189458D01*
X0086167Y0189330D01*
X0086292Y0189199D01*
X0086414Y0189064D01*
X0086532Y0188927D01*
X0086648Y0188787D01*
X0086759Y0188645D01*
X0086868Y0188499D01*
X0086972Y0188351D01*
X0087074Y0188201D01*
X0087171Y0188048D01*
X0087265Y0187893D01*
X0087355Y0187736D01*
X0087441Y0187576D01*
X0087523Y0187415D01*
X0087602Y0187252D01*
X0087676Y0187086D01*
X0087746Y0186919D01*
X0087813Y0186751D01*
X0087875Y0186580D01*
X0087933Y0186409D01*
X0087987Y0186236D01*
X0088037Y0186061D01*
X0088082Y0185886D01*
X0088123Y0185709D01*
X0088160Y0185532D01*
X0088193Y0185354D01*
X0088221Y0185175D01*
X0088245Y0184995D01*
X0088265Y0184815D01*
X0088280Y0184634D01*
X0088291Y0184453D01*
X0088298Y0184272D01*
X0088300Y0184091D01*
X0080800Y0191591D02*
X0067800Y0191591D01*
X0063745Y0191591D01*
X0063649Y0191589D01*
X0063553Y0191583D01*
X0063458Y0191574D01*
X0063363Y0191561D01*
X0063268Y0191544D01*
X0063174Y0191523D01*
X0063081Y0191499D01*
X0062989Y0191471D01*
X0062899Y0191440D01*
X0062809Y0191405D01*
X0062721Y0191366D01*
X0062635Y0191325D01*
X0062550Y0191279D01*
X0062467Y0191231D01*
X0062387Y0191179D01*
X0062308Y0191124D01*
X0062231Y0191066D01*
X0062157Y0191005D01*
X0062085Y0190941D01*
X0062016Y0190875D01*
X0061950Y0190806D01*
X0061886Y0190734D01*
X0061825Y0190660D01*
X0061767Y0190583D01*
X0061712Y0190504D01*
X0061660Y0190424D01*
X0061612Y0190341D01*
X0061566Y0190256D01*
X0061525Y0190170D01*
X0061486Y0190082D01*
X0061451Y0189992D01*
X0061420Y0189902D01*
X0061392Y0189810D01*
X0061368Y0189717D01*
X0061347Y0189623D01*
X0061330Y0189528D01*
X0061317Y0189433D01*
X0061308Y0189338D01*
X0061302Y0189242D01*
X0061300Y0189146D01*
X0061298Y0189048D01*
X0061292Y0188950D01*
X0061283Y0188852D01*
X0061269Y0188755D01*
X0061252Y0188658D01*
X0061231Y0188562D01*
X0061206Y0188467D01*
X0061178Y0188373D01*
X0061145Y0188281D01*
X0061110Y0188189D01*
X0061070Y0188099D01*
X0061028Y0188011D01*
X0060981Y0187924D01*
X0060932Y0187840D01*
X0060879Y0187757D01*
X0060823Y0187677D01*
X0060763Y0187598D01*
X0060701Y0187522D01*
X0060636Y0187449D01*
X0060568Y0187378D01*
X0060497Y0187310D01*
X0060424Y0187245D01*
X0060348Y0187183D01*
X0060269Y0187123D01*
X0060189Y0187067D01*
X0060106Y0187014D01*
X0060022Y0186965D01*
X0059935Y0186918D01*
X0059847Y0186876D01*
X0059757Y0186836D01*
X0059665Y0186801D01*
X0059573Y0186768D01*
X0059479Y0186740D01*
X0059384Y0186715D01*
X0059288Y0186694D01*
X0059191Y0186677D01*
X0059094Y0186663D01*
X0058996Y0186654D01*
X0058898Y0186648D01*
X0058800Y0186646D01*
X0053300Y0186646D01*
X0033300Y0186646D01*
X0033300Y0166646D01*
X0053300Y0166646D01*
X0043300Y0176646D02*
X0067607Y0176646D01*
X0067607Y0184508D01*
X0067609Y0184535D01*
X0067615Y0184562D01*
X0067624Y0184588D01*
X0067638Y0184612D01*
X0067654Y0184634D01*
X0067674Y0184654D01*
X0067696Y0184670D01*
X0067720Y0184684D01*
X0067746Y0184693D01*
X0067773Y0184699D01*
X0067800Y0184701D01*
X0070800Y0198146D02*
X0082300Y0198146D01*
X0083800Y0199646D01*
X0083800Y0203091D01*
X0083745Y0203146D01*
X0083745Y0208646D01*
X0087300Y0208646D01*
X0076855Y0208646D02*
X0076855Y0203146D01*
X0069300Y0202701D02*
X0069300Y0199646D01*
X0070800Y0198146D01*
X0069300Y0202701D02*
X0063300Y0202701D01*
X0060745Y0202701D01*
X0058800Y0204646D01*
X0080800Y0268646D02*
X0080800Y0275453D01*
X0072552Y0275453D01*
X0072522Y0275451D01*
X0072492Y0275446D01*
X0072463Y0275437D01*
X0072435Y0275424D01*
X0072409Y0275408D01*
X0072385Y0275390D01*
X0072363Y0275368D01*
X0072345Y0275344D01*
X0072329Y0275318D01*
X0072316Y0275290D01*
X0072307Y0275261D01*
X0072302Y0275231D01*
X0072300Y0275201D01*
X0072300Y0282091D02*
X0072300Y0288091D01*
X0072245Y0288146D01*
X0072245Y0295091D01*
X0075300Y0298146D01*
X0100800Y0298146D01*
X0104800Y0294146D01*
X0092300Y0288732D02*
X0080906Y0288732D01*
X0080906Y0288733D02*
X0080888Y0288735D01*
X0080870Y0288739D01*
X0080853Y0288747D01*
X0080838Y0288758D01*
X0080825Y0288771D01*
X0080814Y0288786D01*
X0080806Y0288803D01*
X0080802Y0288821D01*
X0080800Y0288839D01*
X0072300Y0275201D02*
X0072132Y0275203D01*
X0071964Y0275209D01*
X0071797Y0275219D01*
X0071630Y0275233D01*
X0071463Y0275252D01*
X0071297Y0275274D01*
X0071131Y0275300D01*
X0070966Y0275330D01*
X0070801Y0275365D01*
X0070638Y0275403D01*
X0070475Y0275445D01*
X0070314Y0275491D01*
X0070154Y0275541D01*
X0069995Y0275595D01*
X0069837Y0275652D01*
X0069681Y0275714D01*
X0069526Y0275779D01*
X0069373Y0275848D01*
X0069222Y0275920D01*
X0069072Y0275997D01*
X0068925Y0276076D01*
X0068779Y0276160D01*
X0068636Y0276246D01*
X0068494Y0276337D01*
X0068355Y0276430D01*
X0068218Y0276527D01*
X0068083Y0276628D01*
X0067951Y0276731D01*
X0067822Y0276838D01*
X0067695Y0276948D01*
X0067570Y0277060D01*
X0067449Y0277176D01*
X0067330Y0277295D01*
X0067214Y0277416D01*
X0067102Y0277541D01*
X0066992Y0277668D01*
X0066885Y0277797D01*
X0066782Y0277929D01*
X0066681Y0278064D01*
X0066584Y0278201D01*
X0066491Y0278340D01*
X0066400Y0278482D01*
X0066314Y0278625D01*
X0066230Y0278771D01*
X0066151Y0278918D01*
X0066074Y0279068D01*
X0066002Y0279219D01*
X0065933Y0279372D01*
X0065868Y0279527D01*
X0065806Y0279683D01*
X0065749Y0279841D01*
X0065695Y0280000D01*
X0065645Y0280160D01*
X0065599Y0280321D01*
X0065557Y0280484D01*
X0065519Y0280647D01*
X0065484Y0280812D01*
X0065454Y0280977D01*
X0065428Y0281143D01*
X0065406Y0281309D01*
X0065387Y0281476D01*
X0065373Y0281643D01*
X0065363Y0281810D01*
X0065357Y0281978D01*
X0065355Y0282146D01*
X0065355Y0288146D01*
X0167300Y0309646D02*
X0167305Y0310033D01*
X0167319Y0310419D01*
X0167342Y0310805D01*
X0167375Y0311190D01*
X0167417Y0311575D01*
X0167468Y0311958D01*
X0167528Y0312340D01*
X0167598Y0312720D01*
X0167677Y0313099D01*
X0167765Y0313475D01*
X0167862Y0313849D01*
X0167968Y0314221D01*
X0168083Y0314590D01*
X0168207Y0314957D01*
X0168340Y0315320D01*
X0168481Y0315680D01*
X0168631Y0316036D01*
X0168790Y0316388D01*
X0168957Y0316737D01*
X0169133Y0317082D01*
X0169317Y0317422D01*
X0169508Y0317757D01*
X0169709Y0318088D01*
X0169916Y0318414D01*
X0170132Y0318735D01*
X0170356Y0319051D01*
X0170587Y0319361D01*
X0170825Y0319665D01*
X0171071Y0319963D01*
X0171324Y0320256D01*
X0171584Y0320542D01*
X0171850Y0320822D01*
X0172124Y0321096D01*
X0172404Y0321362D01*
X0172690Y0321622D01*
X0172983Y0321875D01*
X0173281Y0322121D01*
X0173585Y0322359D01*
X0173895Y0322590D01*
X0174211Y0322814D01*
X0174532Y0323030D01*
X0174858Y0323237D01*
X0175189Y0323438D01*
X0175524Y0323629D01*
X0175864Y0323813D01*
X0176209Y0323989D01*
X0176558Y0324156D01*
X0176910Y0324315D01*
X0177266Y0324465D01*
X0177626Y0324606D01*
X0177989Y0324739D01*
X0178356Y0324863D01*
X0178725Y0324978D01*
X0179097Y0325084D01*
X0179471Y0325181D01*
X0179847Y0325269D01*
X0180226Y0325348D01*
X0180606Y0325418D01*
X0180988Y0325478D01*
X0181371Y0325529D01*
X0181756Y0325571D01*
X0182141Y0325604D01*
X0182527Y0325627D01*
X0182913Y0325641D01*
X0183300Y0325646D01*
X0193564Y0325646D01*
X0193564Y0342087D01*
X0193565Y0342100D01*
X0193570Y0342113D01*
X0193577Y0342124D01*
X0193586Y0342133D01*
X0193597Y0342140D01*
X0193610Y0342145D01*
X0193623Y0342146D01*
X0193564Y0291646D02*
X0193800Y0291409D01*
X0207800Y0272646D02*
X0207796Y0272344D01*
X0207785Y0272042D01*
X0207767Y0271741D01*
X0207742Y0271440D01*
X0207709Y0271139D01*
X0207669Y0270840D01*
X0207622Y0270542D01*
X0207567Y0270244D01*
X0207506Y0269949D01*
X0207437Y0269655D01*
X0207361Y0269362D01*
X0207278Y0269072D01*
X0207188Y0268783D01*
X0207091Y0268497D01*
X0206988Y0268213D01*
X0206877Y0267932D01*
X0206760Y0267654D01*
X0206636Y0267378D01*
X0206505Y0267106D01*
X0206368Y0266837D01*
X0206225Y0266571D01*
X0206075Y0266309D01*
X0205918Y0266050D01*
X0205756Y0265796D01*
X0205587Y0265545D01*
X0205413Y0265299D01*
X0205232Y0265056D01*
X0205046Y0264819D01*
X0204854Y0264585D01*
X0204656Y0264357D01*
X0204453Y0264133D01*
X0204245Y0263915D01*
X0204031Y0263701D01*
X0203813Y0263493D01*
X0203589Y0263290D01*
X0203361Y0263092D01*
X0203127Y0262900D01*
X0202890Y0262714D01*
X0202647Y0262533D01*
X0202401Y0262359D01*
X0202150Y0262190D01*
X0201896Y0262028D01*
X0201637Y0261871D01*
X0201375Y0261721D01*
X0201109Y0261578D01*
X0200840Y0261441D01*
X0200568Y0261310D01*
X0200292Y0261186D01*
X0200014Y0261069D01*
X0199733Y0260958D01*
X0199449Y0260855D01*
X0199163Y0260758D01*
X0198874Y0260668D01*
X0198584Y0260585D01*
X0198291Y0260509D01*
X0197997Y0260440D01*
X0197702Y0260379D01*
X0197404Y0260324D01*
X0197106Y0260277D01*
X0196807Y0260237D01*
X0196506Y0260204D01*
X0196205Y0260179D01*
X0195904Y0260161D01*
X0195602Y0260150D01*
X0195300Y0260146D01*
D36*
X0095300Y0138646D02*
X0097300Y0136646D01*
X0102800Y0136646D01*
X0107800Y0131646D01*
X0107800Y0123146D01*
X0121800Y0109146D01*
X0151245Y0109146D01*
X0151391Y0109148D01*
X0151538Y0109154D01*
X0151684Y0109164D01*
X0151830Y0109177D01*
X0151975Y0109195D01*
X0152120Y0109216D01*
X0152264Y0109241D01*
X0152408Y0109270D01*
X0152550Y0109303D01*
X0152692Y0109340D01*
X0152833Y0109380D01*
X0152972Y0109424D01*
X0153111Y0109472D01*
X0153248Y0109524D01*
X0153384Y0109579D01*
X0153518Y0109638D01*
X0153650Y0109700D01*
X0153781Y0109766D01*
X0153910Y0109835D01*
X0154037Y0109907D01*
X0154162Y0109983D01*
X0154285Y0110063D01*
X0154406Y0110145D01*
X0154525Y0110231D01*
X0154641Y0110320D01*
X0154755Y0110412D01*
X0154867Y0110507D01*
X0154976Y0110605D01*
X0155082Y0110705D01*
X0155186Y0110809D01*
X0155286Y0110915D01*
X0155384Y0111024D01*
X0155479Y0111136D01*
X0155571Y0111250D01*
X0155660Y0111366D01*
X0155746Y0111485D01*
X0155828Y0111606D01*
X0155908Y0111729D01*
X0155984Y0111854D01*
X0156056Y0111981D01*
X0156125Y0112110D01*
X0156191Y0112241D01*
X0156253Y0112373D01*
X0156312Y0112507D01*
X0156367Y0112643D01*
X0156419Y0112780D01*
X0156467Y0112919D01*
X0156511Y0113058D01*
X0156551Y0113199D01*
X0156588Y0113341D01*
X0156621Y0113483D01*
X0156650Y0113627D01*
X0156675Y0113771D01*
X0156696Y0113916D01*
X0156714Y0114061D01*
X0156727Y0114207D01*
X0156737Y0114353D01*
X0156743Y0114500D01*
X0156745Y0114646D01*
X0156745Y0120646D01*
X0156800Y0120701D01*
X0156800Y0126146D01*
X0156745Y0126201D01*
X0156745Y0126646D01*
X0156745Y0140591D01*
X0156800Y0140646D01*
X0163300Y0142646D02*
X0163300Y0135339D01*
X0163493Y0135146D01*
X0150107Y0135146D02*
X0130300Y0135146D01*
X0127800Y0137646D01*
X0127800Y0167697D01*
X0127831Y0167728D01*
X0123894Y0167728D02*
X0123894Y0148740D01*
X0121300Y0146146D01*
X0121300Y0140839D01*
X0121107Y0140646D01*
X0115800Y0140646D01*
X0114800Y0139646D01*
X0114800Y0123146D01*
X0123300Y0114646D01*
X0149855Y0114646D01*
X0149855Y0120646D02*
X0124800Y0120646D01*
X0121300Y0124146D01*
X0121300Y0128453D01*
X0121107Y0128646D01*
X0121300Y0128839D01*
X0121300Y0133646D01*
X0122300Y0134646D01*
X0125300Y0134646D01*
X0134493Y0140646D02*
X0140300Y0140646D01*
X0142800Y0143146D01*
X0150107Y0135146D02*
X0149855Y0134894D01*
X0149855Y0126646D01*
X0143300Y0126646D01*
X0141300Y0128646D01*
X0134493Y0128646D01*
X0119800Y0154146D02*
X0116020Y0157925D01*
X0116020Y0167728D01*
X0119957Y0167728D02*
X0119957Y0160803D01*
X0119300Y0160146D01*
X0112300Y0158646D02*
X0105107Y0158646D01*
X0104926Y0158644D01*
X0104745Y0158637D01*
X0104564Y0158626D01*
X0104383Y0158611D01*
X0104203Y0158591D01*
X0104023Y0158567D01*
X0103844Y0158539D01*
X0103666Y0158506D01*
X0103489Y0158469D01*
X0103312Y0158428D01*
X0103137Y0158383D01*
X0102962Y0158333D01*
X0102789Y0158279D01*
X0102618Y0158221D01*
X0102447Y0158159D01*
X0102279Y0158092D01*
X0102112Y0158022D01*
X0101946Y0157948D01*
X0101783Y0157869D01*
X0101622Y0157787D01*
X0101462Y0157701D01*
X0101305Y0157611D01*
X0101150Y0157517D01*
X0100997Y0157420D01*
X0100847Y0157318D01*
X0100699Y0157214D01*
X0100553Y0157105D01*
X0100411Y0156994D01*
X0100271Y0156878D01*
X0100134Y0156760D01*
X0099999Y0156638D01*
X0099868Y0156513D01*
X0099740Y0156385D01*
X0099615Y0156254D01*
X0099493Y0156119D01*
X0099375Y0155982D01*
X0099259Y0155842D01*
X0099148Y0155700D01*
X0099039Y0155554D01*
X0098935Y0155406D01*
X0098833Y0155256D01*
X0098736Y0155103D01*
X0098642Y0154948D01*
X0098552Y0154791D01*
X0098466Y0154631D01*
X0098384Y0154470D01*
X0098305Y0154307D01*
X0098231Y0154141D01*
X0098161Y0153974D01*
X0098094Y0153806D01*
X0098032Y0153635D01*
X0097974Y0153464D01*
X0097920Y0153291D01*
X0097870Y0153116D01*
X0097825Y0152941D01*
X0097784Y0152764D01*
X0097747Y0152587D01*
X0097714Y0152409D01*
X0097686Y0152230D01*
X0097662Y0152050D01*
X0097642Y0151870D01*
X0097627Y0151689D01*
X0097616Y0151508D01*
X0097609Y0151327D01*
X0097607Y0151146D01*
X0097800Y0151146D01*
X0095355Y0142646D02*
X0095136Y0142649D01*
X0094918Y0142657D01*
X0094699Y0142670D01*
X0094481Y0142688D01*
X0094264Y0142712D01*
X0094047Y0142741D01*
X0093831Y0142775D01*
X0093615Y0142815D01*
X0093401Y0142859D01*
X0093188Y0142909D01*
X0092976Y0142964D01*
X0092766Y0143024D01*
X0092557Y0143089D01*
X0092350Y0143159D01*
X0092144Y0143234D01*
X0091940Y0143314D01*
X0091739Y0143399D01*
X0091539Y0143489D01*
X0091342Y0143584D01*
X0091147Y0143683D01*
X0090954Y0143787D01*
X0090764Y0143896D01*
X0090577Y0144009D01*
X0090393Y0144127D01*
X0090211Y0144249D01*
X0090033Y0144375D01*
X0089857Y0144506D01*
X0089685Y0144641D01*
X0089516Y0144780D01*
X0089350Y0144923D01*
X0089188Y0145070D01*
X0089030Y0145221D01*
X0088875Y0145376D01*
X0088724Y0145534D01*
X0088577Y0145696D01*
X0088434Y0145862D01*
X0088295Y0146031D01*
X0088160Y0146203D01*
X0088029Y0146379D01*
X0087903Y0146557D01*
X0087781Y0146739D01*
X0087663Y0146923D01*
X0087550Y0147110D01*
X0087441Y0147300D01*
X0087337Y0147493D01*
X0087238Y0147688D01*
X0087143Y0147885D01*
X0087053Y0148085D01*
X0086968Y0148286D01*
X0086888Y0148490D01*
X0086813Y0148696D01*
X0086743Y0148903D01*
X0086678Y0149112D01*
X0086618Y0149322D01*
X0086563Y0149534D01*
X0086513Y0149747D01*
X0086469Y0149961D01*
X0086429Y0150177D01*
X0086395Y0150393D01*
X0086366Y0150610D01*
X0086342Y0150827D01*
X0086324Y0151045D01*
X0086311Y0151264D01*
X0086303Y0151482D01*
X0086300Y0151701D01*
X0086300Y0156646D01*
X0086303Y0156914D01*
X0086313Y0157181D01*
X0086329Y0157449D01*
X0086352Y0157716D01*
X0086381Y0157982D01*
X0086416Y0158247D01*
X0086458Y0158512D01*
X0086506Y0158775D01*
X0086561Y0159038D01*
X0086622Y0159298D01*
X0086689Y0159558D01*
X0086763Y0159815D01*
X0086842Y0160071D01*
X0086928Y0160325D01*
X0087020Y0160576D01*
X0087118Y0160825D01*
X0087222Y0161072D01*
X0087332Y0161316D01*
X0087448Y0161558D01*
X0087569Y0161797D01*
X0087697Y0162032D01*
X0087830Y0162265D01*
X0087968Y0162494D01*
X0088112Y0162720D01*
X0088262Y0162942D01*
X0088417Y0163160D01*
X0088577Y0163375D01*
X0088742Y0163586D01*
X0088912Y0163793D01*
X0089087Y0163995D01*
X0089267Y0164194D01*
X0089452Y0164388D01*
X0089641Y0164577D01*
X0089835Y0164762D01*
X0090034Y0164942D01*
X0090236Y0165117D01*
X0090443Y0165287D01*
X0090654Y0165452D01*
X0090869Y0165612D01*
X0091087Y0165767D01*
X0091309Y0165917D01*
X0091535Y0166061D01*
X0091764Y0166199D01*
X0091997Y0166332D01*
X0092232Y0166460D01*
X0092471Y0166581D01*
X0092713Y0166697D01*
X0092957Y0166807D01*
X0093204Y0166911D01*
X0093453Y0167009D01*
X0093704Y0167101D01*
X0093958Y0167187D01*
X0094214Y0167266D01*
X0094471Y0167340D01*
X0094731Y0167407D01*
X0094991Y0167468D01*
X0095254Y0167523D01*
X0095517Y0167571D01*
X0095782Y0167613D01*
X0096047Y0167648D01*
X0096313Y0167677D01*
X0096580Y0167700D01*
X0096848Y0167716D01*
X0097115Y0167726D01*
X0097383Y0167729D01*
X0097383Y0167728D02*
X0108146Y0167728D01*
X0110993Y0151146D02*
X0111025Y0151144D01*
X0111057Y0151139D01*
X0111088Y0151131D01*
X0111118Y0151119D01*
X0111147Y0151105D01*
X0111173Y0151087D01*
X0111198Y0151067D01*
X0111221Y0151044D01*
X0111241Y0151019D01*
X0111259Y0150993D01*
X0111273Y0150964D01*
X0111285Y0150934D01*
X0111293Y0150903D01*
X0111298Y0150871D01*
X0111300Y0150839D01*
X0111300Y0130146D01*
X0102300Y0142701D02*
X0102300Y0146646D01*
X0102300Y0142701D02*
X0102299Y0142689D01*
X0102295Y0142677D01*
X0102288Y0142667D01*
X0102279Y0142658D01*
X0102269Y0142651D01*
X0102257Y0142647D01*
X0102245Y0142646D01*
X0102300Y0146646D02*
X0102298Y0146779D01*
X0102292Y0146913D01*
X0102282Y0147046D01*
X0102268Y0147178D01*
X0102251Y0147310D01*
X0102229Y0147442D01*
X0102204Y0147573D01*
X0102174Y0147703D01*
X0102141Y0147832D01*
X0102104Y0147960D01*
X0102063Y0148087D01*
X0102018Y0148213D01*
X0101970Y0148337D01*
X0101918Y0148460D01*
X0101863Y0148581D01*
X0101803Y0148701D01*
X0101741Y0148819D01*
X0101675Y0148934D01*
X0101605Y0149048D01*
X0101532Y0149160D01*
X0101456Y0149269D01*
X0101377Y0149377D01*
X0101294Y0149481D01*
X0101209Y0149584D01*
X0101120Y0149683D01*
X0101029Y0149780D01*
X0100934Y0149875D01*
X0100837Y0149966D01*
X0100738Y0150055D01*
X0100635Y0150140D01*
X0100531Y0150223D01*
X0100423Y0150302D01*
X0100314Y0150378D01*
X0100202Y0150451D01*
X0100088Y0150521D01*
X0099973Y0150587D01*
X0099855Y0150649D01*
X0099735Y0150709D01*
X0099614Y0150764D01*
X0099491Y0150816D01*
X0099367Y0150864D01*
X0099241Y0150909D01*
X0099114Y0150950D01*
X0098986Y0150987D01*
X0098857Y0151020D01*
X0098727Y0151050D01*
X0098596Y0151075D01*
X0098464Y0151097D01*
X0098332Y0151114D01*
X0098200Y0151128D01*
X0098067Y0151138D01*
X0097933Y0151144D01*
X0097800Y0151146D01*
X0095355Y0142646D02*
X0095300Y0142591D01*
X0095300Y0138646D01*
X0058800Y0204646D02*
X0054761Y0208685D01*
X0054761Y0210492D01*
X0054800Y0213878D02*
X0054800Y0215646D01*
X0055300Y0216146D01*
X0058800Y0217646D02*
X0055146Y0221299D01*
X0055146Y0223685D01*
X0058532Y0223646D02*
X0060300Y0223646D01*
X0063300Y0214646D02*
X0063300Y0209591D01*
X0073800Y0212646D02*
X0076855Y0209591D01*
X0076855Y0208646D01*
X0077300Y0223591D02*
X0077245Y0223646D01*
X0069800Y0223646D01*
X0071745Y0236646D02*
X0071800Y0236701D01*
X0071800Y0244146D01*
X0069300Y0246646D01*
X0068800Y0246646D01*
X0061300Y0246646D02*
X0060568Y0246646D01*
X0058300Y0244378D01*
X0058261Y0240992D02*
X0063009Y0240992D01*
X0064855Y0239146D01*
X0064855Y0257146D02*
X0061300Y0257146D01*
X0059646Y0258799D01*
X0059646Y0264685D01*
X0063032Y0264646D02*
X0070300Y0264646D01*
X0069300Y0265646D01*
X0069300Y0267646D01*
X0070300Y0264646D02*
X0071800Y0263146D01*
X0071800Y0257201D01*
X0071745Y0257146D01*
X0179300Y0130646D02*
X0179302Y0130486D01*
X0179308Y0130327D01*
X0179318Y0130168D01*
X0179331Y0130009D01*
X0179349Y0129850D01*
X0179370Y0129692D01*
X0179396Y0129535D01*
X0179425Y0129378D01*
X0179458Y0129222D01*
X0179495Y0129067D01*
X0179535Y0128912D01*
X0179580Y0128759D01*
X0179628Y0128607D01*
X0179680Y0128456D01*
X0179736Y0128307D01*
X0179795Y0128159D01*
X0179858Y0128012D01*
X0179924Y0127867D01*
X0179994Y0127724D01*
X0180068Y0127582D01*
X0180144Y0127442D01*
X0180225Y0127304D01*
X0180308Y0127169D01*
X0180395Y0127035D01*
X0180486Y0126903D01*
X0180579Y0126774D01*
X0180676Y0126647D01*
X0180775Y0126522D01*
X0180878Y0126400D01*
X0180984Y0126281D01*
X0181092Y0126164D01*
X0181204Y0126050D01*
X0181318Y0125938D01*
X0181435Y0125830D01*
X0181554Y0125724D01*
X0181676Y0125621D01*
X0181801Y0125522D01*
X0181928Y0125425D01*
X0182057Y0125332D01*
X0182189Y0125241D01*
X0182323Y0125154D01*
X0182458Y0125071D01*
X0182596Y0124990D01*
X0182736Y0124914D01*
X0182878Y0124840D01*
X0183021Y0124770D01*
X0183166Y0124704D01*
X0183313Y0124641D01*
X0183461Y0124582D01*
X0183610Y0124526D01*
X0183761Y0124474D01*
X0183913Y0124426D01*
X0184066Y0124381D01*
X0184221Y0124341D01*
X0184376Y0124304D01*
X0184532Y0124271D01*
X0184689Y0124242D01*
X0184846Y0124216D01*
X0185004Y0124195D01*
X0185163Y0124177D01*
X0185322Y0124164D01*
X0185481Y0124154D01*
X0185640Y0124148D01*
X0185800Y0124146D01*
X0188300Y0124146D01*
X0202300Y0119146D02*
X0219481Y0119146D01*
X0219481Y0121626D02*
X0210320Y0121626D01*
X0205300Y0126646D01*
X0205300Y0134441D01*
X0205095Y0134646D01*
X0214300Y0124146D02*
X0214339Y0124106D01*
X0219481Y0124106D01*
X0227040Y0119146D02*
X0232800Y0119146D01*
X0235800Y0122146D01*
X0244300Y0122146D01*
X0246300Y0124146D01*
X0246300Y0136146D01*
X0242300Y0140146D01*
X0239536Y0140146D01*
X0187064Y0159146D02*
X0186800Y0158882D01*
D37*
X0163300Y0142646D03*
X0156800Y0140646D03*
X0142800Y0143146D03*
X0125300Y0134646D03*
X0111300Y0130146D03*
X0119800Y0154146D03*
X0119300Y0160146D03*
X0112300Y0158646D03*
X0073800Y0212646D03*
X0063300Y0214646D03*
X0055300Y0216146D03*
X0060300Y0223646D03*
X0069800Y0223646D03*
X0068800Y0246646D03*
X0061300Y0246646D03*
X0069300Y0267646D03*
X0188300Y0124146D03*
X0214300Y0124146D03*
D38*
X0198300Y0147646D03*
X0178800Y0147646D03*
X0162300Y0159146D03*
X0187800Y0183146D03*
X0137800Y0255146D03*
X0125300Y0252146D03*
X0121300Y0263146D03*
X0177800Y0268146D03*
X0065300Y0293646D03*
X0247800Y0114146D03*
D39*
X0227300Y0279646D03*
X0104800Y0294146D03*
X0103800Y0342646D03*
D40*
X0150300Y0338646D03*
X0150300Y0311646D03*
X0192800Y0209146D03*
X0235800Y0202646D03*
X0222800Y0149146D03*
X0231300Y0133646D03*
X0259300Y0146146D03*
D41*
X0270800Y0161146D03*
M02*
